<svg width="40" height="40" viewBox="0 0 40 40" fill="none" xmlns="http://www.w3.org/2000/svg">
<g id="apple 1" clip-path="url(#clip0_159_3477)">
<g id="Group">
<path id="Vector" fill-rule="evenodd" clip-rule="evenodd" d="M30.9171 21.2518C30.8688 16.1935 35.0501 13.7556 35.2388 13.6401C32.8908 10.198 29.2277 9.7268 27.9232 9.67172C24.8091 9.35903 21.8457 11.5076 20.2646 11.5076C18.6878 11.5076 16.2465 9.71935 13.6658 9.7702C10.2678 9.81745 7.13765 11.7429 5.38815 14.7823C1.86253 20.9039 4.48695 29.97 7.92513 34.9363C9.60319 37.3613 11.6089 40.097 14.239 39.9982C16.776 39.8987 17.7312 38.362 20.7909 38.362C23.8531 38.362 24.7131 39.9982 27.3965 39.9477C30.119 39.8987 31.85 37.4708 33.5177 35.0358C35.4456 32.2153 36.2395 29.485 36.2857 29.3432C36.227 29.3219 30.9722 27.3044 30.9171 21.2518L30.9171 21.2518Z" fill="white"/>
<path id="Vector_2" fill-rule="evenodd" clip-rule="evenodd" d="M25.8853 6.38882C27.283 4.69477 28.2208 2.344 27.9638 0C25.9521 0.0799225 23.5129 1.34288 22.0718 3.03165C20.7765 4.53024 19.6429 6.92327 19.9503 9.2182C22.1944 9.3927 24.4869 8.07962 25.8853 6.38882Z" fill="white"/>
</g>
</g>
<defs>
<clipPath id="clip0_159_3477">
<rect width="40" height="40" fill="white"/>
</clipPath>
</defs>
</svg>
