<svg width="48" height="49" viewBox="0 0 48 49" fill="none" xmlns="http://www.w3.org/2000/svg">
<circle cx="24" cy="24.4023" r="23.5" stroke="#51BE5F"/>
<path fill-rule="evenodd" clip-rule="evenodd" d="M27.6161 14.8926C27.8022 14.9723 28.0039 14.9282 28.1973 14.9575C28.3949 14.9872 28.5971 14.9976 28.7972 15.0035C28.9325 15.0075 28.9828 15.0446 28.9813 15.1873C28.973 16.0913 28.9751 16.9947 28.9797 17.8987C28.9802 18.0156 28.9548 18.0552 28.8237 18.0532C28.2989 18.0453 27.7737 18.0503 27.249 18.0498C27.0608 18.0498 26.8741 18.0587 26.687 18.0815C25.958 18.1706 25.5354 18.5659 25.4851 19.2702C25.4219 20.1539 25.4722 21.04 25.4576 21.9252C25.455 22.0713 25.5598 22.0222 25.6293 22.0227C26.5755 22.0252 27.5212 22.0292 28.4675 22.0203C28.6422 22.0188 28.678 22.0544 28.6546 22.2209C28.5131 23.2323 28.3803 24.2447 28.2549 25.2582C28.2383 25.3924 28.1854 25.4088 28.0636 25.4078C27.2537 25.4028 26.4433 25.4073 25.6334 25.4028C25.509 25.4023 25.4561 25.4152 25.4566 25.5574C25.4618 28.2999 25.4602 31.042 25.4613 33.7846C25.4613 33.8272 25.4716 33.8693 25.4773 33.9114C24.2848 33.9114 23.0928 33.9114 21.9003 33.9114C21.9039 33.85 21.9107 33.7886 21.9107 33.7272C21.9112 31.0158 21.9096 28.3044 21.9148 25.5935C21.9153 25.4409 21.8811 25.3998 21.7168 25.4018C20.8747 25.4107 20.0322 25.4028 19.1896 25.4092C19.0559 25.4102 19.018 25.382 19.0191 25.2493C19.0253 24.2279 19.0253 23.2066 19.0191 22.1852C19.0185 22.0574 19.0476 22.0212 19.1865 22.0222C20.0353 22.0292 20.8841 22.0222 21.7328 22.0292C21.8744 22.0302 21.9138 22.0019 21.9148 21.8598C21.92 20.8449 21.865 19.8285 21.9418 18.815C22.0299 17.6476 22.4323 16.6059 23.3941 15.8208C23.9748 15.3468 24.6586 15.0867 25.4058 14.9644C25.496 14.9495 25.5971 14.9649 25.6718 14.8936C26.3199 14.8926 26.968 14.8926 27.6161 14.8926Z" fill="#51BE5F"/>
</svg>
