<svg width="181" height="166" viewBox="0 0 181 166" fill="none" xmlns="http://www.w3.org/2000/svg">
<g filter="url(#filter0_d_159_4544)">
<path d="M29.5005 89.7437L36.36 87.1921C36.36 87.1921 59.7764 106.847 71.8602 120.605C84.8002 135.337 99.3901 156.661 99.3901 156.661L97.819 161.973L92.8665 157.184L29.5005 89.7437Z" fill="#F9C41C"/>
<path d="M28.6297 98.4882C29.2479 99.0872 56.1911 119.953 68.8198 134.563C81.4486 149.172 90.1889 162.018 90.1889 162.018L97.8175 161.976C97.8175 161.976 79.8193 136.815 71.5465 127.614C63.2737 118.413 29.5001 89.7437 29.5001 89.7437L28.6297 98.4882Z" fill="#FBD544"/>
<path d="M71.5022 40.6865L78.8188 40.8685C78.8188 40.8685 93.2479 67.8206 99.3494 85.0858C105.884 103.573 111.498 128.795 111.498 128.795L108.065 133.142L105.249 126.854L71.5022 40.6865Z" fill="#F9C41C"/>
<path d="M67.443 48.4806C67.7946 49.2658 85.0484 78.6554 91.3383 96.9114C97.6282 115.167 100.966 130.344 100.966 130.344L108.064 133.141C108.064 133.141 100.713 103.093 96.453 91.4748C92.1932 79.857 71.5015 40.685 71.5015 40.685L67.443 48.4806Z" fill="#FBD544"/>
<path d="M137.979 27.3709L144.74 30.1727C144.74 30.1727 148.509 60.5109 147.991 78.8154C147.437 98.4163 143.604 123.968 143.604 123.968L138.837 126.789L138.471 119.91L137.979 27.3709Z" fill="#F9C41C"/>
<path d="M131.388 33.1842C131.435 34.0432 136.96 67.6718 136.262 86.969C135.564 106.266 133.219 121.627 133.219 121.627L138.835 126.79C138.835 126.79 142.786 96.1083 142.988 83.7357C143.193 71.3641 137.977 27.3714 137.977 27.3714L131.388 33.1842Z" fill="#FBD544"/>
<path d="M96.8318 37.6181L104.148 37.8001C104.148 37.8001 118.578 64.7522 124.679 82.0174C131.214 100.504 136.828 125.727 136.828 125.727L133.395 130.074L130.579 123.786L96.8318 37.6181Z" fill="#F9C41C"/>
<path d="M92.775 45.4127C93.1267 46.1979 110.38 75.5876 116.67 93.8436C122.961 112.101 126.298 127.277 126.298 127.277L133.396 130.073C133.396 130.073 126.045 100.025 121.785 88.407C117.525 76.7891 96.8335 37.6171 96.8335 37.6171L92.775 45.4127Z" fill="#FBD544"/>
<path d="M59.5626 66.7166L54.8349 72.3026C54.8349 72.3026 65.3739 101.001 74.2123 117.038C83.6771 134.21 98.7823 155.173 98.7823 155.173L104.312 155.499L101.488 149.215L59.5626 66.7166Z" fill="#F9C41C"/>
<path d="M68.0839 68.8673C68.4373 69.6517 78.9175 102.08 88.3728 118.916C97.8272 135.754 106.945 148.335 106.945 148.335L104.315 155.496C104.315 155.496 86.758 130.027 80.9128 119.121C75.0676 108.214 59.5641 66.7143 59.5641 66.7143L68.0839 68.8673Z" fill="#FBD544"/>
<path d="M171.018 32.9907L173.379 41.6127C173.379 41.6127 161.335 66.1167 160.143 81.6529C158.782 99.3958 165.067 114.363 169.632 122.667C172.091 127.141 171.663 130.634 171.663 130.634L166.164 132.826L161.544 132.139L152.462 82.4865L161.394 41.4495L171.018 32.9907Z" fill="#F9C41C"/>
<path d="M159.658 34.9865C159.658 34.9865 150.838 56.2078 149.932 83.1916C149.025 110.175 161.548 132.14 161.548 132.14L168.004 128.647C168.004 128.647 153.484 101.393 155.498 80.2411C157.904 54.9632 171.019 32.9887 171.019 32.9887L159.658 34.9865Z" fill="#FBD544"/>
<path d="M31.2573 66.3532L35.644 55.3566L46.0481 56.0445L45.6158 66.2302L41.1514 72.523L31.2573 66.3532Z" fill="#FFEB31"/>
<path d="M40.9291 66.183L46.0481 56.0443C46.0481 56.0443 67.6559 92.9738 77.0679 112.354C86.4799 131.733 103.617 166.805 103.617 166.805L99.8553 173.817L78.6417 135.313L41.0057 73.668L40.9291 66.183Z" fill="#F9C41C"/>
<path d="M31.2573 66.3535C31.2573 66.3535 61.2936 108.924 71.4245 132.317C81.5555 155.711 89.4128 171.621 89.4128 171.621L99.8563 173.815C99.8563 173.815 62.8877 99.6084 55.7141 87.5632C48.5387 75.5187 40.9302 66.1811 40.9302 66.1811L31.2573 66.3535Z" fill="#FBD544"/>
<path d="M167.458 61.0601L161.213 51.0005L151.09 53.4986L153.298 63.4514L158.796 68.8647L167.458 61.0601Z" fill="#FFEB31"/>
<path d="M157.904 62.5846L151.09 53.4991C151.09 53.4991 136.283 93.6437 130.412 114.371C124.54 135.1 113.811 172.631 113.811 172.631L118.742 178.875L132.884 137.25L159.14 69.9703L157.904 62.5846Z" fill="#F9C41C"/>
<path d="M167.458 61.0603C167.458 61.0603 145.342 108.235 139.466 133.041C133.591 157.846 128.639 174.887 128.639 174.887L118.741 178.875C118.741 178.875 142.141 99.3408 147.093 86.2261C152.048 73.1106 157.903 62.5849 157.903 62.5849L167.458 61.0603Z" fill="#FBD544"/>
<path d="M66.6935 81.5302L71.0796 70.5319L81.4836 71.2198L81.0514 81.4055L76.5869 87.6983L66.6935 81.5302Z" fill="#FFEB31"/>
<path d="M76.3642 81.3583L81.4832 71.2196C81.4832 71.2196 103.091 108.149 112.503 127.529C121.915 146.909 139.052 181.982 139.052 181.982L135.291 188.994L114.077 150.49L76.4414 88.8451L76.3642 81.3583Z" fill="#F9C41C"/>
<path d="M66.6934 81.5298C66.6934 81.5298 96.7297 124.1 106.861 147.494C116.992 170.887 124.849 186.798 124.849 186.798L135.292 188.991C135.292 188.991 98.3237 114.785 91.1501 102.74C83.9747 90.695 76.3662 81.3573 76.3662 81.3573L66.6934 81.5298Z" fill="#FBD544"/>
<path d="M85.252 58.6664L91.5873 48.6632L101.686 51.253L99.3891 61.1855L93.843 66.5495L85.252 58.6664Z" fill="#FFEB31"/>
<path d="M94.7909 60.2762L101.688 51.2523C101.688 51.2523 116.133 91.5272 121.819 112.307C127.504 133.086 137.897 170.714 137.897 170.714L132.91 176.914L119.143 135.164L93.4895 67.648L94.7909 60.2762Z" fill="#F9C41C"/>
<path d="M85.2517 58.6664C85.2517 58.6664 106.944 106.036 112.598 130.894C118.253 155.753 123.049 172.837 123.049 172.837L132.91 176.914C132.91 176.914 110.224 97.1727 105.388 84.0128C100.553 70.8546 94.79 60.2746 94.79 60.2746L85.2517 58.6664Z" fill="#FBD544"/>
<path d="M107.179 49.8666L113.514 39.8634L123.615 42.4525L121.316 52.3857L115.77 57.7497L107.179 49.8666Z" fill="#FFEB31"/>
<path d="M116.718 51.4764L123.615 42.4525C123.615 42.4525 138.06 82.7274 143.745 103.507C149.431 124.287 159.824 161.914 159.824 161.914L154.837 168.114L141.069 126.364L115.416 58.8482L116.718 51.4764Z" fill="#F9C41C"/>
<path d="M107.179 49.8661C107.179 49.8661 128.871 97.2352 134.526 122.094C140.18 146.952 144.976 164.037 144.976 164.037L154.837 168.114C154.837 168.114 132.152 88.3724 127.316 75.2125C122.48 62.0543 116.717 51.4743 116.717 51.4743L107.179 49.8661Z" fill="#FBD544"/>
<path d="M69.4286 112.639L73.035 102.461L82.9005 100.81L82.9923 109.457L79.0844 115.699L69.4286 112.639Z" fill="#FFEB31"/>
<path d="M78.5613 110.422L82.9002 100.809C82.9002 100.809 105.139 127.197 114.985 141.459C124.833 155.719 142.755 181.505 142.755 181.505L139.545 188.201L117.604 160.406L79.0016 116.692L78.5613 110.422Z" fill="#F9C41C"/>
<path d="M69.4287 112.638C69.4287 112.638 99.9089 141.959 110.634 159.437C121.358 176.915 129.566 188.596 129.566 188.596L139.543 188.2C139.543 188.2 100.956 133.791 93.5829 125.212C86.2097 116.633 78.5591 110.421 78.5591 110.421L69.4287 112.638Z" fill="#FBD544"/>
<path d="M87.234 91.5361C87.1685 91.1907 94.1297 82.732 94.1297 82.732L102.644 85.3523L100.186 96.0583L93.306 96.3411L87.234 91.5361Z" fill="#FFEB31"/>
<path d="M97.7674 92.4407L102.646 85.352C102.646 85.352 105.282 105.027 116.233 125.378C127.183 145.729 150.133 170.544 150.133 170.544L149.851 176.032L128.251 158.601L100.229 114.788L97.7674 92.4407Z" fill="#F9C41C"/>
<path d="M143.118 179.719C145.745 180.328 148.09 178.077 149.851 176.032C141.815 170.199 120.103 149.032 106.716 119.614C102.411 110.153 99.609 102.269 97.7683 92.4424C94.2649 93.1272 90.5724 92.8092 87.2366 91.5376C88.7252 96.6848 94.2509 110.5 96.0686 114.443C121.856 170.384 142.05 179.471 143.118 179.719Z" fill="#FBD544"/>
<path d="M50.7747 105.464C50.4801 105.271 40.0093 108.492 40.0093 108.492L39.1936 117.363L50.0291 119.162L52.9078 112.906L50.7747 105.464Z" fill="#FFEB31"/>
<path d="M47.6038 115.548L39.1934 117.363C39.1934 117.363 56.387 127.286 71.041 145.156C85.6967 163.024 99.9154 193.689 99.9154 193.689L105.097 195.516L97.1928 168.909L67.3343 126.326L47.6038 115.548Z" fill="#F9C41C"/>
<path d="M111.067 190.691C110.63 193.352 107.656 194.663 105.097 195.514C102.758 185.863 91.4439 157.73 69.3282 134.159C62.2156 126.578 55.9897 120.99 47.6042 115.548C49.5689 112.567 50.681 109.032 50.7748 105.464C54.9688 108.798 65.6436 119.166 68.5975 122.346C110.521 167.477 111.245 189.61 111.067 190.691Z" fill="#FBD544"/>
<path d="M108.773 81.7315L116.172 72.4875L125.924 76.1755L122.545 85.7925L116.442 90.5125L108.773 81.7315Z" fill="#FFEB31"/>
<path d="M118.074 84.3832L125.923 76.1735C125.923 76.1735 135.841 117.796 139.201 139.076C142.561 160.357 148.742 198.9 148.742 198.9L143.103 204.512L134.023 161.5L115.97 91.5671L118.074 84.3832Z" fill="#F9C41C"/>
<path d="M108.773 81.7316C108.773 81.7316 125.109 131.205 127.987 156.534C130.866 181.865 133.75 199.373 133.75 199.373L143.103 204.513C143.103 204.513 129.347 122.757 125.991 109.145C122.635 95.533 118.075 84.3828 118.075 84.3828L108.773 81.7316Z" fill="#FBD544"/>
<path d="M133.353 75.6035L141.119 75.7979C141.119 75.7979 156.434 104.406 162.91 122.731C169.846 142.355 175.805 169.125 175.805 169.125L172.162 173.739L169.173 167.065L133.353 75.6035Z" fill="#F9C41C"/>
<path d="M129.046 83.877C129.419 84.7105 147.732 115.905 154.409 135.284C161.086 154.662 164.629 170.77 164.629 170.77L172.163 173.739C172.163 173.739 164.359 141.845 159.837 129.514C155.315 117.183 133.354 75.6054 133.354 75.6054L129.046 83.877Z" fill="#FBD544"/>
<path d="M82.6715 101.312L78.5616 110.422L87.503 118.652L80.3983 109.689L82.6715 101.312Z" fill="#F7AB14"/>
<path d="M97.767 92.4407C97.767 92.4407 99.7904 102.535 102.162 108.587C104.534 114.639 106.715 119.614 106.715 119.614C106.715 119.614 100.355 101.993 99.9104 97.7821C99.465 93.5692 100.71 88.168 100.71 88.168L97.767 92.4407Z" fill="#F7AB14"/>
<path d="M55.1771 71.9002L70.2785 101.839L58.5623 67.899L55.1771 71.9002Z" fill="#F7AB14"/>
<path d="M120.146 132.612C120.487 133.135 124.776 139.068 124.776 139.068L117.528 110.422C117.528 110.422 110.63 87.5028 110.595 87.3891C110.559 87.2754 118.19 111.904 118.15 116.929C118.11 121.956 120.146 132.612 120.146 132.612Z" fill="#F7AB14"/>
<path d="M134.284 139.772C134.555 138.995 125.923 76.1739 125.923 76.1739L139.697 138.262L134.284 139.772Z" fill="#F7AB14"/>
<path d="M135.969 96.5747L149.604 131.404L154.209 127.254L135.81 96.0127L135.969 96.5747Z" fill="#F7AB14"/>
<path d="M86.3604 129.856L98.7846 155.173L103.575 154.222C103.575 154.222 96.2987 142.114 93.4599 138.285C90.6223 134.453 86.3604 129.856 86.3604 129.856Z" fill="#F7AB14"/>
<path d="M142.298 78.0307L157.89 109.895L144.819 71.9266L142.298 78.0307Z" fill="#F7AB14"/>
<path d="M148.375 107.234C148.375 107.234 151.068 119.476 145.718 127.051C140.368 134.625 121.568 141.265 121.568 141.265C121.568 141.265 103.391 149.463 94.2916 147.687C85.19 145.912 78.6729 135.204 78.6729 135.204L69.3232 138.956L112.739 217.019L146.528 203.46L180.317 189.901L157.728 103.48L148.375 107.234Z" fill="#FFFBF3"/>
<path d="M112.735 217.02L98.821 207.554L51.2461 125.828L69.3199 138.957L112.735 217.02Z" fill="#FCEBC9"/>
<path d="M180.315 189.901L183.827 173.442L160.185 81.1741L157.727 103.481L180.315 189.901Z" fill="#FCEBC9"/>
<path d="M69.429 112.639L78.5619 110.422L82.6724 101.314C82.6724 101.314 81.3372 103.479 77.6053 107.077C73.8709 110.674 69.429 112.639 69.429 112.639Z" fill="#FFFF3E"/>
<path d="M87.2334 91.5371C87.2334 91.5371 89.281 93.1774 92.1732 93.4549C95.0654 93.7325 97.8623 93.317 97.8623 93.317L102.643 85.3533C102.643 85.3533 103.708 85.9518 96.6924 88.8626C89.6764 91.7735 87.2334 91.5371 87.2334 91.5371Z" fill="#FFFF3E"/>
<path d="M114.64 78.7263C114.375 76.5068 115.059 74.191 116.485 72.4692C115.895 72.3201 115.376 72.8653 115.009 73.3537C112.897 76.1696 110.786 78.9871 108.672 81.8037C111.644 83.4226 115.165 83.7078 118.308 84.89C117.597 83.9831 116.648 83.3281 115.995 82.355C115.208 81.1796 115.141 79.9737 114.64 78.7263Z" fill="#FFFF3E"/>
</g>
<defs>
<filter id="filter0_d_159_4544" x="0.629883" y="0.371094" width="215.197" height="249.649" filterUnits="userSpaceOnUse" color-interpolation-filters="sRGB">
<feFlood flood-opacity="0" result="BackgroundImageFix"/>
<feColorMatrix in="SourceAlpha" type="matrix" values="0 0 0 0 0 0 0 0 0 0 0 0 0 0 0 0 0 0 127 0" result="hardAlpha"/>
<feOffset dx="2" dy="3"/>
<feGaussianBlur stdDeviation="15"/>
<feComposite in2="hardAlpha" operator="out"/>
<feColorMatrix type="matrix" values="0 0 0 0 0.970833 0 0 0 0 0.744306 0 0 0 0 0.242708 0 0 0 0.19 0"/>
<feBlend mode="normal" in2="BackgroundImageFix" result="effect1_dropShadow_159_4544"/>
<feBlend mode="normal" in="SourceGraphic" in2="effect1_dropShadow_159_4544" result="shape"/>
</filter>
</defs>
</svg>
