<svg width="94" height="90" viewBox="0 0 94 90" fill="none" xmlns="http://www.w3.org/2000/svg">
<g id="Group 3818">
<path id="Vector" fill-rule="evenodd" clip-rule="evenodd" d="M14.6833 15.4523C15.5467 15.1998 16.4155 14.9639 17.2725 14.6908C18.7278 14.2277 19.9717 14.5747 21.0981 15.5698C22.8319 17.1013 24.6008 18.5931 26.3283 20.1315C26.6744 20.4397 26.965 20.4733 27.3605 20.3157C27.7176 20.1729 28.0977 20.0886 28.4611 19.9599C29.8288 19.4753 31.0772 19.7052 32.1828 20.6209C33.1158 21.3937 34.0135 22.2093 34.9266 23.006C35.0794 23.7172 34.8964 24.4232 34.8864 25.1322C34.8709 26.2192 35.2141 27.2042 36.034 27.8601C39.4093 30.5602 42.5792 33.4918 45.6448 36.5237C47.7029 38.5591 49.7541 40.6122 51.6798 42.7844C53.1263 44.4159 54.4066 46.1906 55.9636 47.7252C55.6349 48.9862 54.8727 50.0131 54.0373 50.9485C52.4469 52.7296 50.4503 53.8247 48.0438 54.0951C47.532 53.3964 46.8023 52.9226 46.2037 52.3131C44.9269 51.0134 43.731 49.6411 42.4203 48.3665C40.601 46.597 38.8921 44.7086 37.1379 42.8699C35.7455 41.4106 34.2638 40.0402 32.915 38.5412C32.4797 38.0576 32.2065 38.2054 32.0435 38.7297C31.8849 39.24 31.7888 39.7697 31.6005 40.5641C30.4382 39.2953 29.4557 38.1356 28.3765 37.074C27.6105 36.3204 26.8602 35.5464 26.0668 34.8239C24.2169 33.1395 22.3342 31.4909 20.4381 29.8587C18.8134 28.4601 17.1798 27.0698 15.4217 25.8364C15.5649 25.4369 15.9097 25.2469 16.2437 25.0461C17.1583 24.7361 18.0641 24.3957 18.9894 24.1228C20.7789 23.5948 23.5301 24.6998 24.1678 26.4303C24.6887 27.844 25.7201 28.6973 26.7677 29.5592C29.2563 31.607 31.605 33.8084 33.9291 36.0319C34.5591 36.6346 35.0442 36.7607 35.7994 36.4717C37.1373 35.9597 38.345 36.1377 39.5121 37.0694C41.1475 38.3747 42.7376 39.735 44.2645 41.1541C46.4841 43.2169 48.7859 45.2015 50.7986 47.4809C50.9251 47.6245 51.0295 47.863 51.2819 47.7919C51.3651 47.6322 51.2787 47.5506 51.2123 47.47C49.8822 45.8511 48.6176 44.1719 47.2036 42.6298C44.8878 40.1035 42.6336 37.5235 40.1877 35.1103C37.7148 32.6707 35.2413 30.2402 32.6578 27.9167C30.4886 25.9657 28.2548 24.0976 25.9435 22.3201C24.9935 21.5896 24.6846 21.6992 24.4389 22.8563C24.3933 23.0711 24.3997 23.2969 24.3821 23.5174C24.339 24.0574 24.397 24.6163 24.0966 25.1513C20.7509 22.0389 17.3218 19.0822 13.703 16.3504C14.03 16.0508 14.3567 15.7515 14.6833 15.4523Z" fill="#FE983B"/>
<path id="Vector_2" fill-rule="evenodd" clip-rule="evenodd" d="M63.4891 28.3973C64.9166 27.4279 66.4177 27.71 67.3501 29.1227C72.2574 36.5571 77.1659 43.9904 82.0713 51.4257C83.9847 54.3264 85.8737 57.2431 87.8109 60.1277C88.5332 61.2031 88.7289 62.2809 88.1874 63.4704C79.4492 71.4754 70.7109 79.4806 61.9727 87.4856C59.991 88.1573 58.8048 86.7634 57.4762 85.7477C57.2585 85.5812 57.0727 85.3734 56.8721 85.1847C64.9133 77.8146 72.9558 70.4459 80.992 63.0708C81.4983 62.6061 82.2824 62.2459 82.4091 61.6181C82.531 61.014 81.8176 60.5022 81.4646 59.9561C79.8987 57.5338 78.3273 55.1148 76.7395 52.7072C74.8792 49.8868 72.992 47.084 71.1298 44.265C69.2979 41.4921 67.4797 38.7101 65.6606 35.9284C64.3681 33.9515 63.0845 31.9692 61.7969 29.989C62.3612 29.4585 62.9253 28.928 63.4891 28.3973Z" fill="#E3D6B5"/>
<path id="Vector_3" fill-rule="evenodd" clip-rule="evenodd" d="M13.7031 16.3499C17.3217 19.0816 20.7509 22.0384 24.0967 25.1508C24.3969 24.6159 24.339 24.0569 24.3821 23.5169C24.3998 23.2964 24.3933 23.0707 24.439 22.8558C24.6847 21.6987 24.9935 21.5892 25.9436 22.3196C28.2547 24.097 30.4887 25.9652 32.6579 27.9162C35.2412 30.2396 37.7149 32.6703 40.1877 35.1098C42.6336 37.523 44.888 40.1032 47.2037 42.6293C48.6178 44.1716 49.8822 45.8506 51.2123 47.4695C51.2787 47.5502 51.3651 47.6317 51.282 47.7915C51.0294 47.8627 50.9252 47.6241 50.7987 47.4804C48.7859 45.201 46.4842 43.2164 44.2645 41.1536C42.7375 39.7343 41.1474 38.3741 39.5122 37.0689C38.345 36.1372 37.1373 35.9592 35.7995 36.4712C35.0441 36.7604 34.5591 36.6341 33.9292 36.0314C31.6051 33.808 29.2562 31.6067 26.7678 29.5587C25.7203 28.6967 24.6889 27.8437 24.1679 26.4298C23.5302 24.6993 20.7789 23.5943 18.9895 24.1223C18.0638 24.3952 17.1583 24.7357 16.2438 25.0456C15.7483 24.4017 15.0723 23.9583 14.4477 23.4642C13.3469 22.5931 12.7731 21.5063 12.9057 20.0857C13.0203 18.8573 13.0189 17.6069 13.5809 16.4618C13.6214 16.4247 13.6622 16.3873 13.7031 16.3499Z" fill="#FECE5C"/>
<path id="Vector_4" fill-rule="evenodd" clip-rule="evenodd" d="M61.7973 29.9893C63.0849 31.9694 64.3686 33.9518 65.661 35.9287C67.4801 38.7103 69.2984 41.492 71.1302 44.2653C72.9926 47.0844 74.8797 49.8871 76.7399 52.7074C78.3278 55.115 79.8991 57.5341 81.465 59.9563C81.8182 60.5026 82.5315 61.0142 82.4095 61.6184C82.2826 62.2463 81.4985 62.6064 80.9924 63.071C72.9562 70.4462 64.9137 77.8148 56.8726 85.1849C54.0072 82.9321 51.1373 80.6845 48.2773 78.4248C43.4648 74.6221 38.6593 70.8109 33.8499 67.0051C32.4199 65.8734 30.9774 64.7573 29.5575 63.6137C28.5185 62.777 28.3313 61.7215 28.8924 60.1623C30.1733 58.9641 31.4545 57.7658 32.7355 56.5677C33.924 55.4789 35.1126 54.39 36.3011 53.3012C36.7944 52.95 37.1506 52.4323 37.7092 52.1582C38.8856 51.5808 39.8785 52.0114 40.8775 52.6558C43.0705 54.0701 45.4477 54.6477 48.044 54.0953C50.4505 53.825 52.4471 52.7298 54.0374 50.9488C54.8729 50.0134 55.6351 48.9865 55.9637 47.7254C56.2987 47.2315 56.3886 46.6497 56.4836 46.0883C56.8574 43.875 56.7748 41.7112 55.6407 39.6916C55.5533 39.4628 55.4872 39.2224 55.3748 39.0062C54.5783 37.472 54.7602 36.4197 56.0337 35.2486C56.5209 34.8004 57.0047 34.3482 57.49 33.898C58.1785 33.2627 58.8674 32.6274 59.5561 31.9919C60.3034 31.3242 61.0501 30.6567 61.7973 29.9893Z" fill="#FFF6DF"/>
<path id="Vector_5" fill-rule="evenodd" clip-rule="evenodd" d="M48.0444 54.0952C45.4482 54.6478 43.0707 54.0701 40.8779 52.6558C39.8789 52.0113 38.8858 51.5808 37.7096 52.1581C37.1509 52.4323 36.7948 52.9499 36.3015 53.3011C35.7796 52.8032 35.3537 52.2271 34.9512 51.6323C32.9185 49.6122 31.2123 47.304 29.2106 45.2449C26.5026 42.4595 23.7933 39.6798 20.9344 37.0516C19.6485 35.8697 18.3845 34.6526 16.9363 33.6581C16.7256 33.4389 16.5458 33.1734 16.2988 33.0085C14.8721 32.0549 14.3793 30.7239 14.6134 29.0625C14.7692 27.9569 14.5974 26.773 15.4223 25.8362C17.1803 27.0698 18.8141 28.46 20.4387 29.8586C22.3348 31.4908 24.2177 33.1395 26.0674 34.8238C26.8609 35.5462 27.6111 36.3203 28.3772 37.0738C29.4563 38.1354 30.4389 39.2952 31.6012 40.5639C31.7896 39.7694 31.8856 39.2398 32.0442 38.7295C32.2071 38.2052 32.4803 38.0574 32.9156 38.5411C34.2646 40.0402 35.7462 41.4106 37.1385 42.8697C38.8929 44.7086 40.6018 46.597 42.4209 48.3663C43.7316 49.641 44.9275 51.0133 46.2043 52.3129C46.8029 52.9227 47.5325 53.3967 48.0444 54.0952Z" fill="#FECE5D"/>
<path id="Vector_6" fill-rule="evenodd" clip-rule="evenodd" d="M34.9501 51.6324C35.3528 52.2274 35.7785 52.8033 36.3005 53.3013C35.1121 54.3899 33.9234 55.4789 32.7349 56.5677C32.6312 56.4782 32.5379 56.3717 32.4222 56.3019C29.1319 54.3126 25.8633 52.2887 22.4517 50.5045C17.1517 47.7328 11.7828 45.1179 6.15895 43.0575C6.44537 41.9308 7.43681 41.5011 8.27344 40.9185C8.44553 40.8342 8.64995 40.7851 8.78446 40.6604C10.0517 39.483 11.4591 39.5074 12.9353 40.1651C14.4215 40.8271 15.91 41.4855 17.3778 42.1865C22.6034 44.6826 27.7203 47.3808 32.6337 50.4551C32.929 50.64 33.2178 50.8883 33.6093 50.8634C33.9831 51.2475 34.2764 51.7717 34.9501 51.6324Z" fill="#FE973B"/>
<path id="Vector_7" fill-rule="evenodd" clip-rule="evenodd" d="M6.15915 43.0576C11.7832 45.1179 17.1519 47.7329 22.4519 50.5046C25.8636 52.2887 29.1322 54.3126 32.4224 56.302C32.5381 56.3718 32.6314 56.4783 32.7351 56.5678C31.4541 57.766 30.1729 58.9643 28.8919 60.1624C22.4139 56.0925 15.665 52.5345 8.63504 49.5167C7.31976 48.952 6.55737 48.0181 6.34237 46.6225C6.1606 45.4415 5.62535 44.2764 6.15915 43.0576Z" fill="#FECE5D"/>
<path id="Vector_8" fill-rule="evenodd" clip-rule="evenodd" d="M34.9508 51.6322C34.2771 51.7714 33.9838 51.2473 33.6099 50.863C33.1603 50.5025 32.7223 50.1267 32.2599 49.7843C28.8557 47.262 25.3493 44.8884 21.7634 42.6342C18.0529 40.3018 14.2425 38.1445 10.349 36.1285C7.7284 34.7716 5.03427 33.5758 2.37363 32.3063C2.73945 31.0993 3.91907 30.8088 4.78788 30.1719C6.29933 29.0639 7.82195 29.0078 9.51696 29.8883C11.8421 31.0962 14.1891 32.2636 16.4994 33.5019C16.6343 33.5741 16.739 33.751 16.9355 33.6582C18.3839 34.6528 19.6477 35.8697 20.9336 37.0517C23.7925 39.6799 26.5018 42.4596 29.2098 45.245C31.2122 47.3039 32.9181 49.6121 34.9508 51.6322Z" fill="#FE983C"/>
<path id="Vector_9" fill-rule="evenodd" clip-rule="evenodd" d="M2.37351 32.3064C5.03401 33.5757 7.72829 34.7717 10.3489 36.1286C14.2424 38.1446 18.0527 40.3017 21.7633 42.6343C25.3492 44.8885 28.8555 47.2621 32.2598 49.7843C32.7222 50.1268 33.1602 50.5026 33.6097 50.8631C33.2182 50.888 32.9295 50.6397 32.6342 50.4547C27.7209 47.3807 22.6039 44.6826 17.3782 42.1862C15.9104 41.4852 14.4219 40.8268 12.9357 40.1648C11.4596 39.5071 10.0519 39.4828 8.78489 40.6601C8.65038 40.7848 8.4458 40.834 8.27387 40.9182C7.39476 40.1826 6.33392 39.7589 5.30202 39.3327C3.42523 38.5571 2.37954 37.2642 2.25152 35.2177C2.18997 34.2384 1.81965 33.2563 2.37351 32.3064Z" fill="#FECE5D"/>
<path id="Vector_10" fill-rule="evenodd" clip-rule="evenodd" d="M61.7973 29.9895C61.0503 30.6568 60.3034 31.3245 59.5563 31.9917C59.4874 31.9056 59.4033 31.8273 59.3513 31.7319C56.9946 27.4113 54.4324 23.219 51.6999 19.1228C49.4269 15.7151 46.9801 12.4395 44.516 9.17382C43.1353 7.34388 41.5657 5.6722 40.017 3.98465C40.1549 3.85051 40.2781 3.69503 40.4334 3.58548C42.2568 2.29992 46.024 2.77502 47.4067 4.4887C49.9192 7.60189 52.3361 10.7909 54.6036 14.0859C57.7274 18.6256 60.6397 23.3008 63.285 28.1384C63.3372 28.2337 63.4208 28.3118 63.4894 28.3976C62.9254 28.9285 62.3614 29.459 61.7973 29.9895Z" fill="#FE983C"/>
<path id="Vector_11" fill-rule="evenodd" clip-rule="evenodd" d="M40.0168 3.98437C41.5655 5.6716 43.1351 7.34328 44.5158 9.17354C46.9798 12.439 49.4267 15.7148 51.6997 19.1225C54.4321 23.2189 56.9944 27.411 59.3511 31.7316C59.4032 31.8272 59.4871 31.9053 59.5561 31.9915C58.8674 32.6269 58.1785 33.2622 57.4899 33.8975C56.8496 33.495 56.3777 32.9143 55.8722 32.3691C55.008 31.4365 54.1766 30.4703 53.2702 29.5806C51.6621 28.0016 50.0083 26.4696 48.3733 24.9176C48.4937 24.8076 48.6139 24.6975 48.7339 24.5875C49.3498 25.1407 49.7681 25.8649 50.3304 26.4689C50.1957 26.129 50.0128 25.8273 49.8243 25.5289C48.3155 23.1373 46.7573 20.7782 45.113 18.4777C44.1386 17.1146 43.1476 15.7622 42.1276 14.4331C41.1063 13.1024 40.008 11.8301 39.0037 10.4868C38.3674 9.63547 38.1906 8.64915 38.4406 7.58194C38.5641 7.05502 38.9082 6.55955 38.7379 5.97648C39.1807 5.69701 39.0775 5.14918 39.3293 4.76742C39.5257 4.46916 39.7078 4.1764 40.0168 3.98437Z" fill="#FECE5C"/>
<path id="Vector_12" fill-rule="evenodd" clip-rule="evenodd" d="M55.6407 39.6911C56.775 41.7108 56.8576 43.8747 56.4836 46.0878C56.3888 46.6491 56.2987 47.2309 55.9638 47.7249C54.407 46.1905 53.1264 44.4158 51.68 42.7841C49.7541 40.6117 47.7029 38.5589 45.645 36.5234C42.5794 33.4915 39.4095 30.56 36.0342 27.8598C35.2143 27.2039 34.8711 26.2189 34.8866 25.1319C34.8966 24.423 35.0796 23.7169 34.9268 23.0057C35.2534 22.377 35.1912 21.5741 35.7954 21.0698C38.6545 23.4722 41.6264 25.7416 44.3461 28.3083C46.386 30.2333 48.4655 32.1195 50.4424 34.1073C52.2347 35.9093 53.9124 37.8256 55.6407 39.6911Z" fill="#FECE5D"/>
<path id="Vector_13" fill-rule="evenodd" clip-rule="evenodd" d="M55.6403 39.691C53.9122 37.8254 52.2343 35.9092 50.442 34.1072C48.4648 32.1194 46.3856 30.2332 44.3457 28.3082C41.6261 25.7416 38.6543 23.472 35.795 21.0697C36.2709 20.2156 37.2438 20.1842 37.9754 19.7534C38.3505 19.8247 38.6709 19.6444 39.0028 19.5246C40.3683 19.0317 41.6611 19.1251 42.7926 20.0871C44.6671 21.6804 46.5142 23.3058 48.3731 24.9177C50.008 26.4694 51.6619 28.0017 53.27 29.5807C54.1764 30.4703 55.0078 31.4366 55.872 32.3691C56.3775 32.9143 56.8493 33.4952 57.4897 33.8976C57.0045 34.3478 56.5207 34.8 56.0335 35.2481C54.7598 36.4195 54.5781 37.4716 55.3746 39.0058C55.4868 39.2218 55.5529 39.4622 55.6403 39.691Z" fill="#FE983B"/>
<path id="Vector_14" fill-rule="evenodd" clip-rule="evenodd" d="M48.3733 24.9178C46.5147 23.3058 44.6674 21.6806 42.7928 20.0872C41.6615 19.1254 40.3684 19.032 39.003 19.5247C38.6712 19.6446 38.3508 19.8248 37.9757 19.7535C35.963 17.7153 33.9635 15.6641 31.9322 13.6445C30.9432 12.6611 30.6219 11.5157 30.8733 10.1726C30.9998 9.49603 31.1114 8.81633 31.2357 8.13939C31.3327 7.61068 31.5368 7.13745 31.9744 6.79394C34.1864 8.61465 36.2468 10.6125 38.2146 12.6762C41.8696 16.5093 45.5387 20.3428 48.734 24.5874C48.6139 24.6977 48.4937 24.8078 48.3733 24.9178Z" fill="#FECE5D"/>
<path id="Vector_15" fill-rule="evenodd" clip-rule="evenodd" d="M48.7345 24.5877C45.5392 20.3431 41.87 16.5097 38.2151 12.6765C36.2473 10.6128 34.187 8.61492 31.9749 6.79421C32.0234 6.6999 32.0472 6.56029 32.1242 6.51803C33.9092 5.5378 35.7706 4.92108 37.8358 5.42483C38.1796 5.50857 38.4779 5.72594 38.7383 5.97678C38.9088 6.5597 38.5647 7.05516 38.4411 7.58208C38.1912 8.64929 38.3678 9.63577 39.0043 10.487C40.0086 11.8302 41.1069 13.1026 42.1282 14.4332C43.1484 15.7622 44.1395 17.1147 45.1136 18.4778C46.7579 20.7784 48.3159 23.1376 49.8249 25.529C50.0134 25.8272 50.1961 26.129 50.331 26.4691C49.7688 25.8652 49.3504 25.1408 48.7345 24.5877Z" fill="#FE993C"/>
</g>
</svg>
