<svg width="68" height="98" viewBox="0 0 68 98" fill="none" xmlns="http://www.w3.org/2000/svg">
<path fill-rule="evenodd" clip-rule="evenodd" d="M47.6372 20.2936C47.8648 21.1358 48.0761 21.983 48.3238 22.8194C48.7436 24.2397 48.3822 25.4389 47.3947 26.5112C45.875 28.1616 44.3931 29.8469 42.8668 31.4912C42.561 31.8205 42.5226 32.1017 42.6676 32.4883C42.7988 32.8374 42.873 33.2076 42.9904 33.5626C43.433 34.8984 43.185 36.1043 42.275 37.158C41.5069 38.0472 40.6981 38.9013 39.9073 39.7707C39.2147 39.9046 38.5337 39.713 37.8465 39.6891C36.7928 39.6523 35.8309 39.9653 35.1785 40.7472C32.4927 43.9658 29.5867 46.9807 26.5854 49.8924C24.5706 51.8472 22.5388 53.795 20.3939 55.6187C18.783 56.9886 17.0365 58.1945 15.5174 59.6734C14.3012 59.3294 13.3208 58.5698 12.4305 57.741C10.7354 56.1633 9.71355 54.2053 9.49967 51.8665C10.1874 51.3843 10.6614 50.6862 11.2644 50.118C12.5502 48.906 13.9048 47.774 15.1669 46.5286C16.9191 44.8 18.7844 43.1809 20.6025 41.5168C22.0453 40.1959 23.4038 38.7867 24.8842 37.5089C25.3619 37.0965 25.2241 36.8286 24.719 36.6601C24.2274 36.4961 23.7157 36.3923 22.9492 36.1938C24.2027 35.0922 25.3469 34.1628 26.3979 33.1377C27.1439 32.41 27.9095 31.698 28.6259 30.9432C30.2962 29.1832 31.9324 27.3907 33.553 25.5849C34.9417 24.0376 36.3226 22.4815 37.5537 20.8015C37.9383 20.9484 38.1156 21.2865 38.3036 21.6144C38.5858 22.5073 38.8977 23.3925 39.1438 24.2952C39.6199 26.0409 38.4933 28.6864 36.8026 29.27C35.4214 29.7468 34.5733 30.7298 33.7167 31.7283C31.6812 34.1002 29.4995 36.3335 27.2971 38.5425C26.7 39.1412 26.568 39.6091 26.8331 40.3472C27.3028 41.6546 27.106 42.8221 26.1792 43.9351C24.8807 45.4947 23.53 47.0092 22.1234 48.4613C20.0787 50.5722 18.1083 52.7643 15.8578 54.6702C15.7159 54.79 15.4826 54.8864 15.5465 55.1326C15.6997 55.2164 15.7805 55.1343 15.8601 55.0715C17.4564 53.8142 19.1099 52.6217 20.6335 51.2816C23.1295 49.0867 25.6764 46.9527 28.0652 44.6294C30.4803 42.2805 32.8865 39.9308 35.1912 37.4724C37.1265 35.4082 38.9826 33.2797 40.7524 31.0742C41.4797 30.1676 41.3796 29.866 40.2626 29.6045C40.0552 29.556 39.8362 29.5577 39.6228 29.5362C39.1 29.4835 38.557 29.5286 38.0442 29.2267C41.1291 26.0449 44.0647 22.7792 46.7861 19.3251C47.07 19.6482 47.3537 19.9709 47.6372 20.2936Z" fill="#FE983B"/>
<path fill-rule="evenodd" clip-rule="evenodd" d="M34.107 67.358C35.0183 68.7615 34.7147 70.2113 33.3263 71.0871C26.0193 75.6964 18.7134 80.3069 11.4057 84.9143C8.55478 86.7115 5.68882 88.4847 2.85298 90.3052C1.79573 90.984 0.746765 91.1522 -0.395704 90.6033C-7.9825 81.9702 -15.5694 73.3368 -23.1562 64.7036C-23.7678 62.7686 -22.3925 61.6464 -21.381 60.3785C-21.2152 60.1708 -21.0101 59.9948 -20.823 59.8041C-13.8379 67.7487 -6.85421 75.6946 0.135931 83.6345C0.576366 84.1347 0.909881 84.9022 1.51604 85.0376C2.09938 85.168 2.60997 84.4864 3.14652 84.1551C5.52661 82.6853 7.90369 81.2101 10.2699 79.7188C13.042 77.9715 15.7975 76.1978 18.5681 74.4486C21.2935 72.728 24.0275 71.0207 26.7611 69.3126C28.7038 68.099 30.6517 66.8941 32.5975 65.6852C33.1006 66.2431 33.6037 66.8006 34.107 67.358Z" fill="#E3D6B5"/>
<path fill-rule="evenodd" clip-rule="evenodd" d="M46.7863 19.3254C44.0651 22.7794 41.1293 26.0452 38.0444 29.227C38.557 29.5288 39.1002 29.4839 39.623 29.5365C39.8364 29.558 40.0554 29.5563 40.2628 29.6049C41.3799 29.8663 41.4799 30.1679 40.7526 31.0745C38.9829 33.2799 37.1267 35.4085 35.1914 37.4727C32.8869 39.931 30.4805 42.2809 28.0654 44.6297C25.6766 46.953 23.1295 49.0872 20.6337 51.2819C19.11 52.6221 17.4566 53.8145 15.8603 55.0718C15.7807 55.1346 15.6999 55.2168 15.5467 55.1329C15.4826 54.8865 15.7161 54.7903 15.858 54.6705C18.1085 52.7646 20.0789 50.5725 22.1236 48.4616C23.5303 47.0094 24.8811 45.4948 26.1794 43.9355C27.1062 42.8224 27.303 41.6549 26.8333 40.3475C26.5681 39.6092 26.7003 39.1416 27.2973 38.5428C29.4998 36.3338 31.6813 34.1004 33.7169 31.7286C34.5737 30.7302 35.4214 29.7473 36.8029 29.2704C38.4935 28.6867 39.6201 26.0412 39.144 24.2955C38.8979 23.3925 38.586 22.5077 38.3038 21.6147C38.9381 21.1471 39.3815 20.5006 39.8732 19.9049C40.7399 18.8549 41.8052 18.3203 43.18 18.4774C44.3687 18.6131 45.5811 18.6369 46.6802 19.2047C46.7154 19.2447 46.7508 19.285 46.7863 19.3254Z" fill="#FECE5C"/>
<path fill-rule="evenodd" clip-rule="evenodd" d="M32.5974 65.6854C30.6516 66.8943 28.7037 68.0992 26.761 69.3128C24.0274 71.0209 21.2937 72.7282 18.568 74.4488C15.7972 76.1981 13.0417 77.9718 10.2698 79.7189C7.90359 81.2103 5.52649 82.6855 3.1464 84.1553C2.60969 84.4868 2.09927 85.1682 1.51593 85.0378C0.909631 84.9022 0.576112 84.1347 0.135818 83.6346C-6.85432 75.6947 -13.838 67.7488 -20.8231 59.8042C-18.5813 57.0711 -16.3445 54.3333 -14.0961 51.6055C-10.3124 47.0154 -6.52074 42.4321 -2.73412 37.8451C-1.60817 36.4812 -0.497094 35.1049 0.640243 33.7511C1.47235 32.7604 2.49951 32.6 4.00016 33.1753C5.13625 34.4414 6.27248 35.7076 7.40856 36.9737C8.4405 38.148 9.47244 39.3222 10.5044 40.4965C10.8351 40.9819 11.3299 41.3376 11.5845 41.8847C12.1208 43.0369 11.6833 43.9911 11.0385 44.9468C9.62323 47.0449 9.01553 49.3383 9.49912 51.8668C9.713 54.2056 10.7349 56.1636 12.43 57.7413C13.3202 58.5701 14.3007 59.3297 15.5168 59.6736C15.9891 60.0083 16.5513 60.1071 17.0938 60.2105C19.2324 60.6173 21.3322 60.5806 23.3131 59.5214C23.5367 59.4412 23.7712 59.3819 23.983 59.2773C25.4865 58.5358 26.5032 58.7332 27.6133 59.9915C28.0381 60.4729 28.4669 60.951 28.8937 61.4306C29.4959 62.111 30.0981 62.7916 30.7005 63.4722C31.3329 64.2101 31.9652 64.9475 32.5974 65.6854Z" fill="#FFF6DF"/>
<path fill-rule="evenodd" clip-rule="evenodd" d="M9.49922 51.867C9.01546 49.3386 9.6232 47.0449 11.0386 44.947C11.6834 43.9913 12.1207 43.037 11.5846 41.885C11.3299 41.3377 10.8352 40.9821 10.5045 40.4967C10.9978 40.0006 11.5649 39.5992 12.1497 39.2208C14.1492 37.2903 16.4214 35.6822 18.4581 33.7826C21.2132 31.2127 23.9627 28.6414 26.5684 25.922C27.7402 24.6988 28.9456 23.4976 29.9389 22.1133C30.1557 21.9134 30.4167 21.7443 30.5816 21.5082C31.5348 20.1439 32.8352 19.6927 34.4415 19.953C35.5104 20.1262 36.6617 19.9834 37.5536 20.802C36.3223 22.4818 34.9416 24.0382 33.5529 25.5855C31.9323 27.3912 30.2959 29.1839 28.6257 30.9437C27.9093 31.6986 27.1437 32.4105 26.3977 33.1382C25.3467 34.1633 24.2025 35.0928 22.949 36.1944C23.7157 36.393 24.2272 36.4967 24.7189 36.6607C25.2239 36.8292 25.3618 37.0971 24.8841 37.5094C23.4035 38.7874 22.045 40.1966 20.6023 41.5173C18.7841 43.1816 16.9188 44.8007 15.1668 46.5292C13.9046 47.7745 12.55 48.9066 11.2643 50.1186C10.661 50.6868 10.1868 51.3846 9.49922 51.867Z" fill="#FECE5D"/>
<path fill-rule="evenodd" clip-rule="evenodd" d="M12.1498 39.2203C11.5649 39.5988 10.9979 40.0001 10.5046 40.4962C9.47282 39.3221 8.44073 38.1477 7.4088 36.9734C7.49768 36.8747 7.60279 36.7863 7.67281 36.6756C9.66761 33.525 11.6956 30.3963 13.4939 27.124C16.2877 22.0406 18.9307 16.8871 21.0412 11.4754C22.128 11.7757 22.5247 12.7456 23.0729 13.5685C23.1512 13.7371 23.1947 13.9363 23.3129 14.0692C24.4292 15.3215 24.3773 16.6857 23.71 18.1039C23.0383 19.5316 22.3701 20.9618 21.661 22.371C19.1359 27.3879 16.4172 32.2953 13.3379 36.9978C13.1526 37.2805 12.9061 37.5555 12.9223 37.9356C12.5425 38.2903 12.0283 38.5642 12.1498 39.2203Z" fill="#FE973B"/>
<path fill-rule="evenodd" clip-rule="evenodd" d="M21.0412 11.4755C18.9308 16.8874 16.2877 22.0407 13.4939 27.1242C11.6957 30.3965 9.66775 33.5253 7.67281 36.6757C7.60279 36.7864 7.49768 36.8748 7.4088 36.9735C6.27271 35.7074 5.13648 34.4412 4.0004 33.1751C8.07648 26.9753 11.6617 20.5027 14.7287 13.7468C15.3026 12.4827 16.2234 11.7622 17.581 11.5817C18.7297 11.4291 19.8701 10.9335 21.0412 11.4755Z" fill="#FECE5D"/>
<path fill-rule="evenodd" clip-rule="evenodd" d="M12.1496 39.2203C12.0281 38.5642 12.5422 38.2903 12.9223 37.9354C13.2809 37.5067 13.654 37.0896 13.9953 36.648C16.5091 33.3978 18.881 30.0455 21.1386 26.6136C23.4745 23.0626 25.6426 19.4111 27.6754 15.6763C29.0436 13.1625 30.2571 10.5742 31.5413 8.01975C32.7043 8.39865 32.9623 9.54827 33.5625 10.4035C34.6065 11.8912 34.6304 13.3687 33.7427 14.9946C32.5249 17.2249 31.3459 19.4772 30.099 21.6925C30.0262 21.8219 29.8526 21.9199 29.9387 22.1122C28.9452 23.4967 27.74 24.6978 26.5681 25.9209C23.9625 28.6404 21.2129 31.2117 18.4579 33.7815C16.4213 35.6819 14.1491 37.2898 12.1496 39.2203Z" fill="#FE983C"/>
<path fill-rule="evenodd" clip-rule="evenodd" d="M31.5416 8.02021C30.2576 10.5745 29.0439 13.163 27.6757 15.6768C25.6429 19.4116 23.475 23.0629 21.1389 26.6141C18.8813 30.0459 16.5095 33.3982 13.9957 36.6485C13.6543 37.0901 13.2812 37.5072 12.9226 37.9359C12.9063 37.5558 13.1529 37.2807 13.3381 36.9981C16.4172 32.2957 19.1359 27.3881 21.6612 22.3712C22.3704 20.962 23.0386 19.5319 23.7102 18.1042C24.3775 16.686 24.4293 15.3216 23.3132 14.0695C23.1949 13.9365 23.1513 13.7372 23.0731 13.5688C23.804 12.7311 24.2361 11.711 24.67 10.719C25.4596 8.91473 26.7343 7.92671 28.7212 7.84358C29.6719 7.80353 30.6316 7.46414 31.5416 8.02021Z" fill="#FECE5D"/>
<path fill-rule="evenodd" clip-rule="evenodd" d="M32.5974 65.6855C31.9654 64.9478 31.333 64.2102 30.701 63.4725C30.7858 63.4073 30.8635 63.3274 30.957 63.2789C35.1936 61.0803 39.3099 58.68 43.3365 56.1125C46.6862 53.9768 49.9113 51.6701 53.1272 49.3462C54.9292 48.0441 56.5816 46.5557 58.2489 45.0878C58.3762 45.2242 58.5245 45.3468 58.6276 45.4996C59.8376 47.2934 59.3014 50.9366 57.6121 52.243C54.5431 54.6168 51.4026 56.8964 48.1622 59.029C43.6978 61.9669 39.1063 64.6971 34.3625 67.1651C34.2691 67.2138 34.1916 67.2933 34.1071 67.3582C33.6037 66.8006 33.1005 66.2431 32.5974 65.6855Z" fill="#FE983C"/>
<path fill-rule="evenodd" clip-rule="evenodd" d="M58.2489 45.0878C56.5819 46.5556 54.9295 48.044 53.1272 49.3461C49.9115 51.6698 46.6862 53.9767 43.3365 56.1124C39.3098 58.6798 35.1936 61.0802 30.957 63.2788C30.8633 63.3274 30.7858 63.4072 30.7009 63.4724C30.0986 62.7919 29.4964 62.1112 28.8942 61.4308C29.2973 60.818 29.8698 60.372 30.4086 59.8928C31.3301 59.0735 32.2837 58.2868 33.1645 57.4258C34.7278 55.8981 36.2464 54.3252 37.784 52.771C37.8882 52.8899 37.9926 53.0087 38.0969 53.1273C37.5481 53.7133 36.8375 54.1044 36.2406 54.6376C36.5729 54.5138 36.8691 54.3424 37.1622 54.1657C39.5114 52.7506 41.83 51.287 44.0937 49.7388C45.4349 48.8213 46.766 47.8875 48.0753 46.9251C49.3859 45.9615 50.6417 44.922 51.9642 43.9752C52.8025 43.3752 53.7624 43.2236 54.7922 43.4873C55.3006 43.6177 55.7742 43.9612 56.3429 43.8078C56.605 44.2427 57.1383 44.1537 57.5034 44.4054C57.7887 44.6018 58.0689 44.7843 58.2489 45.0878Z" fill="#FECE5C"/>
<path fill-rule="evenodd" clip-rule="evenodd" d="M23.3138 59.5212C21.3327 60.5806 19.2329 60.6173 17.0945 60.2104C16.5522 60.1072 15.9898 60.0082 15.5175 59.6735C17.0365 58.1948 18.783 56.9886 20.3941 55.6189C22.5391 53.795 24.5707 51.8472 26.5856 49.8926C29.5868 46.9809 32.4929 43.966 35.1787 40.7473C35.8311 39.9655 36.793 39.6525 37.8467 39.6892C38.5339 39.7132 39.2148 39.9048 39.9075 39.7709C40.5106 40.1001 41.2903 40.0558 41.7672 40.6519C39.3805 43.376 37.1205 46.2121 34.5772 48.7978C32.6699 50.7371 30.7992 52.7157 28.8322 54.5927C27.049 56.2945 25.1573 57.8829 23.3138 59.5212Z" fill="#FECE5D"/>
<path fill-rule="evenodd" clip-rule="evenodd" d="M23.3135 59.5212C25.1572 57.883 27.0488 56.2945 28.832 54.5927C30.799 52.7153 32.6696 50.7371 34.577 48.7978C37.1201 46.2122 39.3804 43.3761 41.7669 40.6518C42.5856 41.1303 42.5965 42.0743 42.9996 42.7924C42.923 43.1546 43.0913 43.4689 43.2009 43.7931C43.6515 45.127 43.5349 46.3787 42.5795 47.4565C40.997 49.2422 39.384 51.0007 37.7838 52.7707C36.2464 54.3249 34.7276 55.8979 33.1644 57.4255C32.2835 58.2866 31.33 59.0733 30.4085 59.8926C29.8697 60.3718 29.297 60.8176 28.894 61.4306C28.4672 60.951 28.0384 60.4729 27.6137 59.9915C26.5034 58.733 25.4869 58.5358 23.9833 59.2773C23.7716 59.3818 23.5372 59.4411 23.3135 59.5212Z" fill="#FE983B"/>
<path fill-rule="evenodd" clip-rule="evenodd" d="M37.784 52.7709C39.3844 51.0009 40.9972 49.2423 42.5797 47.4567C43.535 46.3789 43.6515 45.127 43.2011 43.7932C43.0915 43.469 42.9232 43.1548 42.9998 42.7925C45.0165 40.8818 47.0454 38.9841 49.0444 37.055C50.0178 36.1157 51.1348 35.8271 52.4321 36.0978C53.0856 36.234 53.7424 36.3559 54.3963 36.49C54.907 36.5946 55.3617 36.802 55.686 37.2332C53.8763 39.3415 51.8979 41.2993 49.8574 43.1659C46.0675 46.6332 42.2769 50.114 38.0972 53.1272C37.9926 53.0086 37.8883 52.8898 37.784 52.7709Z" fill="#FECE5D"/>
<path fill-rule="evenodd" clip-rule="evenodd" d="M38.0966 53.1272C42.2763 50.1139 46.0668 46.633 49.8568 43.1659C51.8973 41.2993 53.8758 39.3415 55.6855 37.2331C55.776 37.2821 55.9109 37.308 55.9503 37.3834C56.865 39.1338 57.4257 40.951 56.8958 42.9435C56.8078 43.2751 56.591 43.56 56.3426 43.8075C55.7739 43.9611 55.3004 43.6176 54.792 43.4872C53.7622 43.2234 52.8021 43.375 51.964 43.9751C50.6415 44.9219 49.3857 45.9614 48.0751 46.925C46.766 47.8875 45.4347 48.8215 44.0935 49.7387C41.8298 51.2869 39.511 52.7503 37.162 54.1656C36.8691 54.3423 36.5728 54.5135 36.2404 54.6375C36.8371 54.1044 37.5479 53.7132 38.0966 53.1272Z" fill="#FE993C"/>
</svg>
