<svg width="87" height="84" viewBox="0 0 87 84" fill="none" xmlns="http://www.w3.org/2000/svg">
<g id="Group 3790">
<path id="Vector" fill-rule="evenodd" clip-rule="evenodd" d="M69.0085 17.5001C69.2035 18.2217 69.3845 18.9474 69.5966 19.664C69.9564 20.8808 69.6467 21.9081 68.8007 22.8268C67.4988 24.2407 66.2292 25.6845 64.9217 27.0931C64.6597 27.3752 64.6268 27.6161 64.751 27.9473C64.8634 28.2464 64.927 28.5635 65.0276 28.8676C65.4067 30.012 65.1943 31.0451 64.4147 31.9478C63.7567 32.7096 63.0638 33.4413 62.3863 34.1861C61.7929 34.3008 61.2096 34.1367 60.6208 34.1162C59.7181 34.0847 58.894 34.3529 58.3351 35.0227C56.0342 37.78 53.5446 40.3629 50.9735 42.8574C49.2474 44.532 47.5067 46.2007 45.6692 47.763C44.2892 48.9366 42.793 49.9697 41.4915 51.2366C40.4497 50.942 39.6097 50.2912 38.847 49.5812C37.3948 48.2296 36.5194 46.5522 36.3362 44.5486C36.9253 44.1354 37.3314 43.5374 37.848 43.0506C38.9495 42.0123 40.11 41.0425 41.1913 39.9756C42.6924 38.4947 44.2904 37.1076 45.8479 35.682C47.084 34.5504 48.2478 33.3431 49.5161 32.2484C49.9253 31.8951 49.8072 31.6657 49.3745 31.5213C48.9533 31.3808 48.515 31.2918 47.8583 31.1218C48.9322 30.1781 49.9124 29.3818 50.8128 28.5036C51.4519 27.8802 52.1078 27.2703 52.7215 26.6236C54.1525 25.1159 55.5542 23.5802 56.9426 22.0332C58.1323 20.7076 59.3153 19.3745 60.37 17.9352C60.6994 18.0611 60.8513 18.3508 61.0124 18.6316C61.2542 19.3967 61.5214 20.155 61.7322 20.9283C62.1401 22.4238 61.1749 24.6902 59.7265 25.1902C58.5432 25.5987 57.8167 26.4408 57.0828 27.2962C55.339 29.3283 53.47 31.2415 51.5832 33.1339C51.0717 33.6469 50.9586 34.0476 51.1857 34.68C51.588 35.8001 51.4194 36.8002 50.6254 37.7538C49.5131 39.0898 48.3559 40.3873 47.1508 41.6313C45.3992 43.4397 43.7111 45.3177 41.7831 46.9505C41.6616 47.0531 41.4617 47.1357 41.5164 47.3466C41.6477 47.4184 41.7169 47.348 41.7851 47.2943C43.1527 46.2171 44.5693 45.1955 45.8745 44.0475C48.0128 42.1671 50.1947 40.3389 52.2412 38.3485C54.3102 36.3363 56.3716 34.3233 58.346 32.2172C60.0039 30.4488 61.5941 28.6253 63.1103 26.7358C63.7334 25.9592 63.6476 25.7008 62.6907 25.4768C62.513 25.4352 62.3254 25.4367 62.1425 25.4182C61.6947 25.3731 61.2295 25.4117 60.7902 25.1531C63.433 22.4273 65.9479 19.6296 68.2793 16.6704C68.5226 16.9472 68.7656 17.2237 69.0085 17.5001Z" fill="#FE983B"/>
<path id="Vector_2" fill-rule="evenodd" clip-rule="evenodd" d="M57.4174 57.8199C58.1982 59.0223 57.9381 60.2644 56.7486 61.0147C50.4888 64.9634 44.2298 68.9132 37.9693 72.8603C35.527 74.4 33.0717 75.9191 30.6423 77.4787C29.7365 78.0603 28.8379 78.2043 27.8591 77.7341C21.3595 70.3381 14.8598 62.9419 8.36023 55.5459C7.83631 53.8882 9.0145 52.9268 9.88107 51.8406C10.0231 51.6626 10.1989 51.5119 10.3591 51.3485C16.3432 58.1546 22.3261 64.9618 28.3146 71.7639C28.6919 72.1924 28.9776 72.8499 29.4969 72.966C29.9966 73.0777 30.4341 72.4938 30.8937 72.2099C32.9327 70.9508 34.9692 69.687 36.9963 68.4093C39.3711 66.9124 41.7317 65.393 44.1053 63.8944C46.4402 62.4204 48.7824 60.9577 51.1242 59.4944C52.7886 58.4547 54.4573 57.4225 56.1243 56.3869C56.5553 56.8648 56.9863 57.3424 57.4174 57.8199Z" fill="#E3D6B5"/>
<path id="Vector_3" fill-rule="evenodd" clip-rule="evenodd" d="M68.2797 16.6707C65.9484 19.6297 63.4333 22.4275 60.7905 25.1533C61.2297 25.4119 61.695 25.3734 62.1429 25.4185C62.3257 25.4369 62.5134 25.4355 62.691 25.4771C63.648 25.701 63.7337 25.9595 63.1106 26.7361C61.5945 28.6254 60.0043 30.4491 58.3464 32.2175C56.3721 34.3235 54.3105 36.3366 52.2416 38.3488C50.195 40.3392 48.013 42.1675 45.8748 44.0478C44.5695 45.1959 43.153 46.2174 41.7854 47.2945C41.7173 47.3483 41.6481 47.4187 41.5168 47.3468C41.4619 47.1358 41.662 47.0534 41.7835 46.9507C43.7115 45.3179 45.3995 43.44 47.1512 41.6316C48.3563 40.3875 49.5136 39.09 50.6258 37.7541C51.4198 36.8005 51.5884 35.8003 51.186 34.6803C50.9588 34.0478 51.072 33.6471 51.5835 33.1342C53.4703 31.2418 55.3392 29.3284 57.0831 27.2965C57.8172 26.4412 58.5434 25.5991 59.7269 25.1905C61.1753 24.6905 62.1404 22.4241 61.7325 20.9286C61.5217 20.155 61.2545 19.3969 61.0127 18.6319C61.5561 18.2314 61.936 17.6775 62.3572 17.1671C63.0997 16.2677 64.0123 15.8097 65.1901 15.9442C66.2085 16.0605 67.2472 16.0808 68.1888 16.5673C68.2189 16.6016 68.2493 16.6361 68.2797 16.6707Z" fill="#FECE5C"/>
<path id="Vector_4" fill-rule="evenodd" clip-rule="evenodd" d="M56.1245 56.3871C54.4575 57.4228 52.7888 58.455 51.1244 59.4947C48.7826 60.958 46.4406 62.4207 44.1055 63.8947C41.7318 65.3934 39.3712 66.9128 36.9965 68.4096C34.9694 69.6873 32.9329 70.951 30.8939 72.2102C30.4341 72.4942 29.9968 73.0779 29.4971 72.9663C28.9777 72.8501 28.6919 72.1926 28.3147 71.7642C22.3263 64.9621 16.3434 58.1549 10.3593 51.3488C12.2798 49.0073 14.1961 46.6619 16.1223 44.3249C19.3638 40.3926 22.6121 36.4661 25.8561 32.5364C26.8207 31.368 27.7725 30.189 28.7469 29.0291C29.4598 28.1804 30.3397 28.043 31.6253 28.5358C32.5986 29.6205 33.572 30.7053 34.5453 31.7899C35.4293 32.7959 36.3134 33.8019 37.1975 34.8079C37.4808 35.2237 37.9047 35.5284 38.1228 35.9972C38.5822 36.9842 38.2075 37.8017 37.655 38.6204C36.4426 40.4178 35.922 42.3826 36.3363 44.5488C36.5195 46.5524 37.3949 48.2298 38.8471 49.5814C39.6098 50.2915 40.4497 50.9422 41.4916 51.2369C41.8962 51.5236 42.3779 51.6082 42.8426 51.6968C44.6747 52.0453 46.4736 52.0138 48.1706 51.1064C48.3622 51.0378 48.5631 50.987 48.7445 50.8973C50.0326 50.2621 50.9036 50.4312 51.8547 51.5092C52.2185 51.9216 52.5859 52.3312 52.9515 52.742C53.4674 53.3249 53.9833 53.9081 54.4994 54.4911C55.0412 55.1232 55.5829 55.755 56.1245 56.3871Z" fill="#FFF6DF"/>
<path id="Vector_5" fill-rule="evenodd" clip-rule="evenodd" d="M36.3364 44.5489C35.9219 42.3829 36.4426 40.4178 37.6551 38.6206C38.2076 37.8018 38.5822 36.9842 38.1229 35.9973C37.9047 35.5284 37.4809 35.2238 37.1976 34.808C37.6202 34.383 38.106 34.0391 38.607 33.715C40.32 32.0611 42.2666 30.6834 44.0114 29.056C46.3717 26.8544 48.7272 24.6516 50.9594 22.3219C51.9633 21.274 52.996 20.2449 53.847 19.059C54.0327 18.8877 54.2563 18.7429 54.3976 18.5406C55.2142 17.3718 56.3283 16.9853 57.7043 17.2083C58.6201 17.3567 59.6064 17.2343 60.3704 17.9356C59.3156 19.3747 58.1327 20.708 56.9431 22.0336C55.5547 23.5806 54.1528 25.1164 52.722 26.624C52.1082 27.2707 51.4524 27.8806 50.8132 28.504C49.9129 29.3822 48.9326 30.1785 47.8588 31.1222C48.5155 31.2924 48.9538 31.3812 49.375 31.5217C49.8077 31.6661 49.9258 31.8955 49.5165 32.2488C48.2481 33.3436 47.0843 34.5509 45.8483 35.6824C44.2907 37.1081 42.6927 38.4952 41.1917 39.976C40.1104 41.0429 38.95 42.0127 37.8485 43.051C37.3316 43.5378 36.9254 44.1357 36.3364 44.5489Z" fill="#FECE5D"/>
<path id="Vector_6" fill-rule="evenodd" clip-rule="evenodd" d="M38.6066 33.7146C38.1054 34.0388 37.6197 34.3826 37.1971 34.8076C36.3132 33.8018 35.429 32.7957 34.5449 31.7897C34.6211 31.7051 34.7111 31.6294 34.7711 31.5345C36.4801 28.8355 38.2174 26.1551 39.758 23.3518C42.1514 18.9968 44.4157 14.5818 46.2238 9.9456C47.1548 10.2029 47.4947 11.0338 47.9643 11.7388C48.0314 11.8832 48.0686 12.0538 48.1699 12.1677C49.1262 13.2406 49.0818 14.4093 48.5101 15.6242C47.9347 16.8474 47.3623 18.0725 46.7547 19.2798C44.5915 23.5778 42.2624 27.7819 39.6243 31.8106C39.4656 32.0527 39.2544 32.2883 39.2684 32.614C38.9429 32.9179 38.5025 33.1525 38.6066 33.7146Z" fill="#FE973B"/>
<path id="Vector_7" fill-rule="evenodd" clip-rule="evenodd" d="M46.2238 9.9456C44.4158 14.582 42.1515 18.9968 39.7581 23.3518C38.2175 26.1552 36.4802 28.8356 34.7711 31.5345C34.7112 31.6294 34.6211 31.7051 34.545 31.7897C33.5717 30.705 32.5983 29.6202 31.625 28.5356C35.117 23.2242 38.1884 17.6792 40.8159 11.8914C41.3075 10.8085 42.0964 10.1912 43.2594 10.0366C44.2435 9.90589 45.2206 9.48127 46.2238 9.9456Z" fill="#FECE5D"/>
<path id="Vector_8" fill-rule="evenodd" clip-rule="evenodd" d="M38.607 33.7146C38.5029 33.1525 38.9433 32.9179 39.2689 32.6138C39.5761 32.2466 39.8958 31.8892 40.1882 31.5109C42.3418 28.7265 44.3737 25.8545 46.3078 22.9145C48.309 19.8724 50.1664 16.7441 51.9079 13.5445C53.08 11.391 54.1196 9.17353 55.2198 6.98518C56.2161 7.30979 56.4372 8.29466 56.9514 9.02729C57.8458 10.3018 57.8662 11.5676 57.1057 12.9605C56.0625 14.8712 55.0524 16.8007 53.9842 18.6986C53.9218 18.8095 53.7731 18.8934 53.8468 19.0582C52.9957 20.2442 51.9632 21.2732 50.9593 22.3211C48.727 24.6508 46.3715 26.8536 44.0113 29.0552C42.2665 30.6833 40.3199 32.0607 38.607 33.7146Z" fill="#FE983C"/>
<path id="Vector_9" fill-rule="evenodd" clip-rule="evenodd" d="M55.2194 6.98545C54.1194 9.17367 53.0796 11.3912 51.9075 13.5448C50.166 16.7444 48.3088 19.8725 46.3074 22.9148C44.3734 25.8548 42.3414 28.7267 40.1878 31.5112C39.8954 31.8895 39.5758 32.2468 39.2685 32.6141C39.2546 32.2885 39.4658 32.0528 39.6245 31.8107C42.2624 27.7822 44.5915 23.5779 46.7549 19.2799C47.3624 18.0727 47.9349 16.8475 48.5103 15.6243C49.0819 14.4094 49.1263 13.2406 48.1701 12.1678C48.0688 12.054 48.0315 11.8832 47.9645 11.7389C48.5906 11.0213 48.9608 10.1473 49.3325 9.29748C50.009 7.75178 51.101 6.90535 52.8032 6.83413C53.6177 6.79982 54.4398 6.50907 55.2194 6.98545Z" fill="#FECE5D"/>
<path id="Vector_10" fill-rule="evenodd" clip-rule="evenodd" d="M56.1245 56.3872C55.5831 55.7552 55.0412 55.1233 54.4998 54.4913C54.5725 54.4354 54.639 54.3669 54.7192 54.3254C58.3487 52.4419 61.8751 50.3855 65.3246 48.186C68.1943 46.3564 70.9573 44.3801 73.7123 42.3893C75.2561 41.2738 76.6717 39.9986 78.1 38.7412C78.2091 38.858 78.3362 38.963 78.4245 39.0939C79.4611 40.6307 79.0017 43.7518 77.5545 44.871C74.9253 46.9046 72.2348 48.8575 69.4588 50.6845C65.6341 53.2014 61.7006 55.5403 57.6366 57.6547C57.5566 57.6964 57.4903 57.7645 57.4178 57.8201C56.9865 57.3424 56.5555 56.8648 56.1245 56.3872Z" fill="#FE983C"/>
<path id="Vector_11" fill-rule="evenodd" clip-rule="evenodd" d="M78.0999 38.7412C76.6718 39.9986 75.2562 41.2738 73.7121 42.3893C70.9573 44.38 68.1942 46.3563 65.3245 48.186C61.8748 50.3854 58.3485 52.4419 54.719 54.3254C54.6387 54.367 54.5724 54.4354 54.4996 54.4912C53.9836 53.9082 53.4677 53.3251 52.9518 52.7422C53.2971 52.2172 53.7876 51.8351 54.2492 51.4246C55.0387 50.7227 55.8556 50.0487 56.6102 49.3111C57.9494 48.0023 59.2504 46.6549 60.5677 45.3233C60.657 45.4252 60.7464 45.527 60.8357 45.6286C60.3656 46.1307 59.7568 46.4657 59.2454 46.9225C59.5301 46.8164 59.7838 46.6696 60.035 46.5182C62.0475 45.3059 64.0339 44.052 65.9732 42.7257C67.1222 41.9397 68.2626 41.1396 69.3842 40.3152C70.507 39.4897 71.5828 38.5992 72.7158 37.788C73.434 37.274 74.2563 37.1441 75.1385 37.37C75.5741 37.4817 75.9798 37.7761 76.467 37.6446C76.6916 38.0172 77.1484 37.9409 77.4612 38.1566C77.7056 38.3248 77.9457 38.4812 78.0999 38.7412Z" fill="#FECE5C"/>
<path id="Vector_12" fill-rule="evenodd" clip-rule="evenodd" d="M48.1707 51.1063C46.4735 52.0139 44.6746 52.0453 42.8426 51.6967C42.378 51.6083 41.8962 51.5235 41.4916 51.2368C42.793 49.9699 44.2892 48.9366 45.6694 47.7632C47.507 46.2007 49.2474 44.532 50.9736 42.8575C53.5448 40.363 56.0344 37.7802 58.3353 35.0228C58.8942 34.353 59.7183 34.0848 60.621 34.1163C61.2097 34.1368 61.793 34.3009 62.3864 34.1862C62.9031 34.4683 63.5711 34.4304 63.9796 34.941C61.935 37.2747 59.9988 39.7044 57.82 41.9196C56.186 43.581 54.5834 45.276 52.8983 46.8841C51.3706 48.342 49.75 49.7027 48.1707 51.1063Z" fill="#FECE5D"/>
<path id="Vector_13" fill-rule="evenodd" clip-rule="evenodd" d="M48.1708 51.1063C49.7502 49.7029 51.3707 48.342 52.8984 46.8841C54.5835 45.2758 56.1861 43.581 57.8201 41.9196C59.9988 39.7046 61.9352 37.2749 63.9797 34.941C64.6811 35.3509 64.6904 36.1596 65.0358 36.7748C64.9701 37.0852 65.1143 37.3544 65.2082 37.6321C65.5942 38.7749 65.4944 39.8472 64.6759 40.7706C63.3202 42.3004 61.9383 43.8068 60.5674 45.3232C59.2503 46.6547 57.9492 48.0022 56.6099 49.311C55.8553 50.0486 55.0384 50.7226 54.249 51.4245C53.7874 51.835 53.2967 52.217 52.9515 52.7421C52.5859 52.3313 52.2185 51.9216 51.8547 51.5092C50.9035 50.4311 50.0326 50.2621 48.7446 50.8974C48.5632 50.9869 48.3624 51.0377 48.1708 51.1063Z" fill="#FE983B"/>
<path id="Vector_14" fill-rule="evenodd" clip-rule="evenodd" d="M60.5676 45.3232C61.9386 43.807 63.3204 42.3004 64.6761 40.7706C65.4944 39.8473 65.5943 38.7748 65.2084 37.6321C65.1145 37.3544 64.9703 37.0852 65.036 36.7748C66.7636 35.138 68.5018 33.5122 70.2143 31.8595C71.0483 31.0548 72.0052 30.8076 73.1166 31.0395C73.6764 31.1562 74.2391 31.2606 74.7993 31.3755C75.2368 31.4651 75.6264 31.6427 75.9042 32.0121C74.3538 33.8184 72.6589 35.4956 70.9109 37.0947C67.6641 40.0651 64.4167 43.0471 60.8359 45.6285C60.7464 45.5269 60.6569 45.4251 60.5676 45.3232Z" fill="#FECE5D"/>
<path id="Vector_15" fill-rule="evenodd" clip-rule="evenodd" d="M60.8358 45.6285C64.4165 43.0471 67.6638 40.065 70.9107 37.0947C72.6588 35.4955 74.3537 33.8184 75.9041 32.0121C75.9816 32.054 76.0971 32.0762 76.1309 32.1409C76.9145 33.6404 77.3949 35.1972 76.941 36.9041C76.8655 37.1883 76.6798 37.4323 76.467 37.6444C75.9798 37.776 75.5742 37.4816 75.1386 37.3699C74.2564 37.144 73.4339 37.2738 72.7159 37.7879C71.5829 38.5991 70.5071 39.4896 69.3842 40.3151C68.2627 41.1397 67.1222 41.9398 65.9732 42.7256C64.034 44.0519 62.0475 45.3056 60.0351 46.5181C59.7842 46.6695 59.5303 46.8162 59.2455 46.9223C59.7568 46.4657 60.3657 46.1306 60.8358 45.6285Z" fill="#FE993C"/>
</g>
</svg>
