<svg width="48" height="49" viewBox="0 0 48 49" fill="none" xmlns="http://www.w3.org/2000/svg">
<circle cx="24" cy="24.4023" r="23.5" stroke="#51BE5F"/>
<path fill-rule="evenodd" clip-rule="evenodd" d="M30.2307 34.2266C30.2307 34.12 30.2307 34.0325 30.2307 33.945C30.2307 31.6431 30.2408 29.3413 30.2228 27.0395C30.2185 26.5293 30.1713 26.0058 30.0456 25.5136C29.6378 23.9156 27.8737 23.3014 26.5356 24.2805C25.8811 24.7594 25.4801 25.4065 25.4664 26.2391C25.4489 27.2686 25.4526 28.2981 25.451 29.3275C25.4489 30.872 25.4504 32.4164 25.4504 33.9604C25.4504 34.0463 25.4504 34.1327 25.4504 34.2293C23.9315 34.2293 22.4416 34.2293 20.9316 34.2293C20.9316 29.6866 20.9316 25.1471 20.9316 20.5912C22.4247 20.5912 23.9208 20.5912 25.4467 20.5912C25.4467 21.2181 25.4467 21.845 25.4467 22.4719C25.4626 22.4777 25.4786 22.4835 25.495 22.4894C25.5639 22.4088 25.6324 22.3276 25.7029 22.2481C26.4767 21.3825 27.3725 20.6925 28.5144 20.3949C30.9478 19.7606 33.4077 21.0664 34.2897 23.443C34.6106 24.3075 34.7575 25.206 34.7623 26.1219C34.7761 28.7765 34.7702 31.4315 34.7713 34.0866C34.7713 34.129 34.7644 34.172 34.7596 34.2271C33.2528 34.2266 31.7572 34.2266 30.2307 34.2266Z" fill="#51BE5F"/>
<path fill-rule="evenodd" clip-rule="evenodd" d="M13.8716 20.5859C15.3805 20.5859 16.8767 20.5859 18.3861 20.5859C18.3861 25.1329 18.3861 29.6676 18.3861 34.2214C16.8857 34.2214 15.3842 34.2214 13.8716 34.2214C13.8716 29.6771 13.8716 25.1366 13.8716 20.5859Z" fill="#51BE5F"/>
<path fill-rule="evenodd" clip-rule="evenodd" d="M18.6904 16.3957C18.6649 17.5785 17.8418 18.4992 16.6601 18.6684C15.8428 18.7856 15.0674 18.688 14.4145 18.1428C13.6704 17.5207 13.4498 16.698 13.6614 15.7768C13.8719 14.8587 14.4988 14.3182 15.3936 14.0854C15.9367 13.9443 16.4846 13.956 17.0256 14.1167C18.055 14.4217 18.7132 15.3233 18.6904 16.3957Z" fill="#51BE5F"/>
</svg>
