<svg width="74" height="78" viewBox="0 0 74 78" fill="none" xmlns="http://www.w3.org/2000/svg">
<g id="Group 3583" opacity="0.8">
<path id="Vector" fill-rule="evenodd" clip-rule="evenodd" d="M21.0959 68.9841C20.3356 68.474 19.4474 68.2958 18.6589 67.9083C12.117 64.7025 7.4229 59.8564 5.23023 52.7716C4.80078 51.3825 4.58438 49.965 4.49615 48.551C4.46166 48.0269 4.60637 47.6214 5.15299 47.4889C5.66946 47.3752 6.14488 47.665 6.26618 48.2607C6.64532 50.206 7.21298 52.1172 8.09534 53.8941C9.86767 57.5273 12.3728 60.5544 15.5749 63.019C18.1015 64.9413 20.8744 66.3524 23.9803 66.9882C28.691 67.941 33.07 67.1917 36.9167 64.1521C39.5672 62.0509 41.0499 59.1911 41.8477 55.9417C42.0974 54.9667 42.2679 53.9993 42.3649 53.0151C42.408 52.7153 42.3268 52.6192 42.0383 52.5271C33.8983 49.9867 28.1931 44.5987 24.2071 37.2311C22.9603 34.9058 22.6447 32.459 23.5602 29.9335C24.7841 26.6271 27.9385 25.0287 31.4198 25.8282C34.7539 26.5939 37.3597 28.5086 39.4722 31.11C43.3725 35.9287 45.1224 41.5698 45.6115 47.644C45.6745 48.3811 45.6829 49.1314 45.6968 49.8573C45.7085 50.1439 45.7651 50.2343 46.0951 50.2585C54.1216 50.7081 61.5226 46.2395 64.284 38.4857C66.5473 32.1145 65.5115 26.1729 61.635 20.6887C61.4972 20.5022 61.3594 20.3157 61.2216 20.1292C60.8194 19.5206 60.911 18.8965 61.5007 18.4641C62.0602 18.0506 62.6165 18.1009 63.0979 18.7018C64.9536 20.9604 66.4532 23.4212 67.4761 26.1595C68.8413 29.8798 69.1828 33.6747 68.165 37.5446C67.3181 40.7827 65.6205 43.5673 63.4097 46.0018C60.3024 49.4176 56.553 51.8085 52.0274 52.8597C50.0897 53.318 48.146 53.4652 46.1831 53.2467C45.6815 53.1831 45.5195 53.3266 45.4503 53.8527C45.05 56.832 44.214 59.6855 42.6896 62.2776C40.3974 66.1903 36.9326 68.4658 32.5709 69.4773C30.2562 70.0039 27.9335 70.1157 25.6029 69.8127C25.5048 69.7902 25.3822 69.762 25.3296 69.879C23.9153 69.6316 22.5179 69.3107 21.0959 68.9841ZM42.6178 49.6664C42.2734 43.1867 40.4158 37.3402 36.4794 32.2294C34.3327 29.4394 31.6393 28.3562 28.1956 29.1913C26.3069 29.6609 25.5596 30.7797 25.8708 32.6836C26.0664 33.9674 26.5108 35.1792 27.1247 36.3268C29.0988 39.9804 31.913 42.8979 35.087 45.485C37.3061 47.2851 39.7567 48.7512 42.6178 49.6664Z" fill="#F8BE3E"/>
<path id="Vector_2" fill-rule="evenodd" clip-rule="evenodd" d="M63.1266 11.9466C63.8191 12.4153 64.6695 12.5332 65.4447 12.8661C66.5953 13.3626 67.8288 13.7233 68.9513 14.3424C69.4323 14.6077 69.8663 14.9655 70.0837 15.4799C70.5883 16.654 69.9218 17.5333 68.6622 17.3989C67.9099 17.3035 67.2327 16.9931 66.5913 16.6394C64.8274 15.6665 62.902 15.1727 61.0348 14.5374C60.7217 14.4397 60.6633 14.5812 60.6127 14.8018C60.0079 16.9857 59.4276 19.1753 59.2151 21.4493C59.1741 21.8528 59.1576 22.2619 59.092 22.6598C58.9946 23.3085 58.4898 23.7087 57.9034 23.6773C57.3717 23.6326 57.0715 23.2539 57.0519 22.5526C56.9748 19.1797 57.5331 15.8496 58.2385 12.5532C58.4074 11.8177 58.9066 11.442 59.5606 11.1792C60.7241 11.3948 61.9253 11.6707 63.1266 11.9466Z" fill="#F8BE3E"/>
</g>
</svg>
