<svg width="209" height="31" viewBox="0 0 209 31" fill="none" xmlns="http://www.w3.org/2000/svg">
<path d="M14.2734 1.32812C5.73828 1.32812 0.347656 6.93359 0.347656 15.918C0.347656 24.9023 5.71875 30.4883 14.2734 30.4883C22.8086 30.4883 28.1797 24.9023 28.1797 15.918C28.1797 6.93359 22.8086 1.32812 14.2734 1.32812ZM14.2734 7.14844C18.2773 7.14844 20.8945 10.5469 20.8945 15.918C20.8945 21.2695 18.2773 24.668 14.2734 24.668C10.25 24.668 7.65234 21.2695 7.65234 15.918C7.65234 10.5469 10.2695 7.14844 14.2734 7.14844ZM31.207 30H38.1406V18.8086C38.1406 15.8398 39.7227 14.1992 42.6328 14.1992C43.4531 14.1992 44.2539 14.3555 44.8398 14.5898V8.69141C44.3711 8.51562 43.7852 8.41797 43.082 8.41797C40.582 8.41797 38.8633 9.88281 38.082 12.7539H37.9453V8.73047H31.207V30ZM54.2344 30.3125C57.3984 30.3125 59.8594 28.6133 60.7188 26.3477H60.8555V30H67.7305V1.81641H60.8164V12.4805H60.6797C59.7422 10.0977 57.3984 8.41797 54.3125 8.41797C49 8.41797 45.7578 12.5195 45.7578 19.3164C45.7578 26.1914 48.9414 30.3125 54.2344 30.3125ZM56.832 13.8281C59.3125 13.8281 60.8359 15.957 60.8359 19.375C60.8359 22.832 59.332 24.9023 56.832 24.9023C54.332 24.9023 52.8477 22.8125 52.8477 19.375C52.8477 15.957 54.3516 13.8281 56.832 13.8281ZM81.1875 13.1445C83.375 13.1445 84.918 14.668 85.0352 16.9336H77.3008C77.4766 14.7266 79.0586 13.1445 81.1875 13.1445ZM85.1914 23.2812C84.7031 24.7266 83.2578 25.6055 81.4023 25.6055C78.9023 25.6055 77.2031 23.8477 77.2031 21.3086V20.8789H91.5586V18.9258C91.5586 12.4219 87.4766 8.22266 81.0703 8.22266C74.5664 8.22266 70.4844 12.5977 70.4844 19.4727C70.4844 26.3477 74.5273 30.5078 81.3047 30.5078C86.8711 30.5078 90.7773 27.6758 91.4414 23.2812H85.1914ZM94.2539 30H101.188V18.8086C101.188 15.8398 102.77 14.1992 105.68 14.1992C106.5 14.1992 107.301 14.3555 107.887 14.5898V8.69141C107.418 8.51562 106.832 8.41797 106.129 8.41797C103.629 8.41797 101.91 9.88281 101.129 12.7539H100.992V8.73047H94.2539V30Z" fill="#51BE5F"/>
<path d="M125.406 30V19.4922H136.324V14.0039H125.406V7.59766H137.418V1.81641H118.238V30H125.406ZM140.113 30H147.047V18.8086C147.047 15.8398 148.629 14.1992 151.539 14.1992C152.359 14.1992 153.16 14.3555 153.746 14.5898V8.69141C153.277 8.51562 152.691 8.41797 151.988 8.41797C149.488 8.41797 147.77 9.88281 146.988 12.7539H146.852V8.73047H140.113V30ZM155.914 30H162.828V8.73047H155.914V30ZM159.371 7.01172C161.383 7.01172 162.906 5.52734 162.906 3.61328C162.906 1.69922 161.383 0.234375 159.371 0.234375C157.359 0.234375 155.816 1.69922 155.816 3.61328C155.816 5.52734 157.359 7.01172 159.371 7.01172ZM176.266 13.1445C178.453 13.1445 179.996 14.668 180.113 16.9336H172.379C172.555 14.7266 174.137 13.1445 176.266 13.1445ZM180.27 23.2812C179.781 24.7266 178.336 25.6055 176.48 25.6055C173.98 25.6055 172.281 23.8477 172.281 21.3086V20.8789H186.637V18.9258C186.637 12.4219 182.555 8.22266 176.148 8.22266C169.645 8.22266 165.562 12.5977 165.562 19.4727C165.562 26.3477 169.605 30.5078 176.383 30.5078C181.949 30.5078 185.855 27.6758 186.52 23.2812H180.27ZM188.98 15.1758C188.98 18.4375 191.168 20.625 195.328 21.5039L199.352 22.3438C201.012 22.6953 201.656 23.1836 201.656 24.043C201.656 25.1758 200.523 25.8398 198.688 25.8398C196.656 25.8398 195.387 24.9023 195.191 23.3203H188.473C188.766 27.6758 192.359 30.5078 198.57 30.5078C204.508 30.5078 208.512 27.6758 208.512 23.2617C208.512 20.0391 206.695 18.3008 202.457 17.4023L198.004 16.5039C196.402 16.1719 195.621 15.5664 195.621 14.7266C195.621 13.6328 196.715 12.8906 198.414 12.8906C200.328 12.8906 201.539 13.8477 201.598 15.3711H207.926C207.887 10.9766 204.273 8.22266 198.473 8.22266C192.613 8.22266 188.98 10.918 188.98 15.1758Z" fill="#0F0F0F"/>
</svg>
