<svg width="49" height="49" viewBox="0 0 49 49" fill="none" xmlns="http://www.w3.org/2000/svg">
<circle cx="24.5" cy="24.5" r="24.5" fill="#F8BE3E"/>
<path d="M32.2875 33.25C30.3778 33.25 28.491 32.8337 26.6271 32.001C24.7632 31.1684 23.0674 29.9882 21.5396 28.4604C20.0118 26.9326 18.8316 25.2368 17.999 23.3729C17.1663 21.509 16.75 19.6222 16.75 17.7125C16.75 17.4375 16.8417 17.2083 17.025 17.025C17.2083 16.8417 17.4375 16.75 17.7125 16.75H21.425C21.6389 16.75 21.8299 16.8226 21.9979 16.9677C22.166 17.1128 22.2653 17.2847 22.2958 17.4833L22.8917 20.6917C22.9222 20.9361 22.9146 21.1424 22.8688 21.3104C22.8229 21.4785 22.7389 21.6236 22.6167 21.7458L20.3938 23.9917C20.6993 24.5569 21.0622 25.1031 21.4823 25.6302C21.9024 26.1573 22.3646 26.6653 22.8688 27.1542C23.3424 27.6278 23.8389 28.067 24.3583 28.4719C24.8778 28.8767 25.4278 29.2472 26.0083 29.5833L28.1625 27.4292C28.3 27.2917 28.4795 27.1885 28.701 27.1198C28.9226 27.051 29.1403 27.0319 29.3542 27.0625L32.5167 27.7042C32.7306 27.7653 32.9063 27.876 33.0438 28.0365C33.1813 28.1969 33.25 28.3764 33.25 28.575V32.2875C33.25 32.5625 33.1583 32.7917 32.975 32.975C32.7917 33.1583 32.5625 33.25 32.2875 33.25ZM19.5229 22.25L21.0354 20.7375L20.6458 18.5833H18.6063C18.6826 19.2097 18.7896 19.8285 18.9271 20.4396C19.0646 21.0507 19.2632 21.6542 19.5229 22.25ZM27.7271 30.4542C28.3229 30.7139 28.9302 30.9201 29.549 31.0729C30.1677 31.2257 30.7903 31.325 31.4167 31.3708V29.3542L29.2625 28.9188L27.7271 30.4542Z" fill="#363636"/>
</svg>
