<svg width="586" height="317" viewBox="0 0 586 317" fill="none" xmlns="http://www.w3.org/2000/svg">
<path d="M38.6064 314.487C38.6064 314.487 -30.4967 239.559 26.9199 158.439C77.8638 86.4642 137.259 91.3844 180.837 120.592C199.397 133.032 252.908 122.125 298.453 48.888C360.564 -50.9878 575.862 9.58725 536.606 163.249C517.609 237.61 594.421 240.313 555.282 314.645L38.6064 314.487Z" fill="#FFF7E4"/>
<path opacity="0.5" d="M345.412 275.762C345.412 275.762 332.251 260.406 344.601 250.653C344.601 250.653 353.621 245.192 360.977 245.635C360.977 245.635 350.554 263.113 353.926 264.851C357.298 266.59 364.136 244.539 364.136 244.539C364.136 244.539 384.665 242.548 391.269 245.723C391.269 245.723 373.719 260.085 377.415 260.94C381.111 261.794 400.067 247.699 400.067 247.699C400.067 247.699 419.174 250.95 418.155 262.606C417.136 274.261 410.553 277.86 407.66 277.551C404.766 277.24 387.839 270.779 387.471 273.15C387.102 275.521 397.291 283.269 404.426 283.632C404.426 283.632 390.955 298.488 382.002 294.2C373.05 289.913 372.286 283.117 366.705 280.568C361.125 278.019 356.36 278.025 358.665 280.625C360.969 283.224 371.069 285.751 374.26 291.396C377.451 297.041 380.315 300.849 371.052 299.455C361.79 298.061 346.734 291.284 346.073 283.523C345.412 275.762 345.412 275.762 345.412 275.762Z" fill="#A8DFAF"/>
<g opacity="0.5">
<path d="M408.767 262.92C408.767 262.92 356.873 260.92 345.412 275.762C345.412 275.762 342.877 283.353 335.078 290.265L333.862 293.578C333.862 293.578 342.855 284.096 346.073 283.523C346.073 283.523 341.041 265.136 408.767 262.92Z" fill="#A0C8A5"/>
<path d="M335.079 290.265C335.079 290.265 323.94 298.502 323.166 313.221L325.187 313.402C325.187 313.402 328.745 298.182 335.175 292.231C341.605 286.28 335.079 290.265 335.079 290.265Z" fill="#A0C8A5"/>
</g>
<path opacity="0.3" d="M209.806 150.332C209.806 150.332 229.939 139.057 220.544 123.757C220.544 123.757 213.028 114.361 204.974 111.945C204.974 111.945 209.27 134.763 204.974 135.299C200.68 135.836 202.022 109.529 202.022 109.529C202.022 109.529 180.815 99.3289 172.493 100.134C172.493 100.134 185.647 122.415 181.352 121.878C177.057 121.341 162.292 98.7919 162.292 98.7919C162.292 98.7919 140.549 94.7654 137.06 107.65C133.57 120.535 139.207 126.978 142.428 127.783C145.649 128.589 166.319 128.32 165.782 131.005C165.245 133.689 151.287 137.984 143.502 135.568C143.502 135.568 152.092 156.775 163.366 155.701C174.641 154.627 178.13 147.648 185.11 147.111C192.089 146.574 197.19 148.453 193.7 150.332C190.21 152.212 178.399 150.948 172.762 155.741C167.124 160.533 162.561 163.486 173.03 165.633C183.499 167.781 202.29 166.439 206.048 158.385C209.806 150.332 209.806 150.332 209.806 150.332Z" fill="#51BE5F"/>
<g opacity="0.3">
<path d="M146.991 111.677C146.991 111.677 203.363 129.93 209.806 150.332C209.806 150.332 209.537 159.459 215.174 169.928V173.955C215.174 173.955 209.269 160.264 206.047 158.385C206.047 158.385 218.665 140.668 146.991 111.677Z" fill="#95B89A"/>
<path d="M215.175 169.928C215.175 169.928 223.868 183.129 218.912 199.199L216.676 198.599C216.676 198.599 218.847 180.898 214.298 171.996C209.75 163.094 215.175 169.928 215.175 169.928Z" fill="#95B89A"/>
</g>
<path opacity="0.7" d="M332.703 240.282C332.703 240.282 305.104 224.826 317.984 203.851C317.984 203.851 328.287 190.972 339.327 187.66C339.327 187.66 333.439 218.938 339.327 219.674C345.214 220.41 343.375 184.348 343.375 184.348C343.375 184.348 372.445 170.365 383.853 171.469C383.853 171.469 365.821 202.011 371.709 201.275C377.597 200.539 397.836 169.629 397.836 169.629C397.836 169.629 427.642 164.109 432.426 181.772C437.21 199.435 429.482 208.267 425.066 209.371C420.651 210.475 392.316 210.107 393.052 213.787C393.788 217.467 412.923 223.354 423.594 220.042C423.594 220.042 411.819 249.113 396.364 247.641C380.908 246.169 376.125 236.601 366.557 235.866C356.99 235.13 349.998 237.706 354.782 240.282C359.565 242.857 375.757 241.126 383.485 247.695C391.212 254.265 397.468 258.312 383.116 261.256C368.765 264.2 343.007 262.36 337.855 251.321C332.703 240.282 332.703 240.282 332.703 240.282Z" fill="#A8DFAF"/>
<g opacity="0.7">
<path d="M418.811 187.292C418.811 187.292 341.534 212.315 332.703 240.281C332.703 240.281 333.071 252.792 325.343 267.144V272.664C325.343 272.664 333.439 253.897 337.855 251.321C337.855 251.321 320.559 227.034 418.811 187.292Z" fill="#95B89A"/>
<path d="M325.343 267.144C325.343 267.144 313.426 285.241 320.22 307.27L323.286 306.446C323.286 306.446 320.31 282.183 326.545 269.979C332.78 257.776 325.343 267.144 325.343 267.144Z" fill="#95B89A"/>
</g>
<path d="M73.2156 164.511C73.2156 164.511 68.407 168.508 73.705 173.585C73.705 173.585 69.1591 175.172 67.6841 174.094C67.6841 174.094 67.993 174.642 68.2635 174.881C68.2635 174.881 63.6093 175.304 61.6045 173.954C59.6 172.605 59.5334 148.676 72.6231 150.637C72.6231 150.637 83.5492 149.209 83.2204 161.96C82.8915 174.71 87.034 174.485 87.034 174.485C87.034 174.485 85.9129 175.115 85.3566 175.145C85.3566 175.145 84.5267 174.88 84.3417 174.439C84.3417 174.439 84.5409 175.136 84.7615 175.349C84.7615 175.349 80.3134 176.017 77.9886 174.452C75.6639 172.886 72.7215 167.165 73.2156 164.511Z" fill="black"/>
<path d="M72.5136 171.028C72.5136 171.028 68.7787 167.469 67.2312 164.015C66.1263 161.548 60.7959 151.561 70.7566 150.532C70.7566 150.532 77.8681 150.197 80.9371 151.313C83.3779 152.2 87.153 154.49 85.8744 163.683L85.7054 166.723L72.5136 171.028Z" fill="black"/>
<path d="M61.1401 241.977C60.7138 231.488 59.7945 222.365 58.694 216.003C56.94 205.86 55.3609 200.025 55.3428 199.963C55.1117 199.071 51.7739 195.462 44.3529 195.573C36.9317 195.685 37.6356 200.418 37.6356 200.418C37.6349 200.578 37.6562 200.727 37.6888 200.839C37.7605 201.082 44.5725 225.782 44.2774 257.673C44.2732 258.121 44.223 258.895 44.2549 259.41C44.2549 259.413 61.4524 259.854 61.4563 259.41C62.0562 256.624 61.7636 248.9 61.1401 241.977Z" fill="black"/>
<path d="M63.3029 257.516C63.2977 257.961 63.0631 258.316 62.7771 258.316H62.7703C62.4844 258.31 62.2565 257.954 62.253 257.516H47.5149C47.5097 257.961 47.2751 258.316 46.9891 258.316H46.9823C46.6912 258.31 46.4601 257.942 46.4636 257.493C46.5492 248.364 46.0286 239.839 45.2408 232.315C43.2817 213.553 39.6595 201.013 39.6082 200.839C39.5754 200.727 39.555 200.578 39.555 200.418C39.555 200.418 38.8511 195.686 46.2716 195.573C53.6938 195.462 57.0316 199.071 57.2627 199.963C57.2765 200.01 58.1703 203.314 59.3589 209.255C59.7529 211.222 60.1774 213.479 60.6141 216.002C61.7134 222.364 62.6332 231.489 63.0596 241.976C63.6831 248.9 63.9022 254.73 63.3029 257.516Z" fill="#DDF0E0"/>
<path d="M45.3743 258.317H103.155C103.155 258.317 101.81 252.872 68.3466 253.682C44.6655 254.256 45.3743 258.317 45.3743 258.317Z" fill="#C5DCF8"/>
<path d="M40.6709 315.193C47.3704 281.278 45.6478 260.466 45.6391 260.203C45.6223 259.681 46.5847 259.207 47.1025 259.19C47.6266 259.181 49.9389 259.036 50.2066 259.483C50.5573 260.068 51.9062 285.71 41.9214 315.193H40.6709Z" fill="#92CF9A"/>
<path d="M94.6206 315.193C87.9208 281.278 89.6436 260.466 89.6523 260.203C89.6692 259.681 88.7068 259.207 88.189 259.19C87.6649 259.181 85.3523 259.036 85.0848 259.483C84.7342 260.068 83.3852 285.71 93.3701 315.193H94.6206Z" fill="#92CF9A"/>
<path d="M105.312 315.193C98.6127 281.278 100.336 260.466 100.344 260.203C100.361 259.681 99.3984 259.207 98.8809 259.19C98.3565 259.181 96.0442 259.036 95.7768 259.483C95.4261 260.068 94.0769 285.71 104.062 315.193H105.312Z" fill="#92CF9A"/>
<path d="M51.4346 315.193C58.1343 281.278 56.4115 260.466 56.403 260.203C56.3862 259.681 57.3486 259.207 57.8664 259.19C58.3905 259.181 60.7028 259.036 60.9705 259.483C61.3212 260.068 62.6701 285.71 52.6855 315.193H51.4346Z" fill="#92CF9A"/>
<path d="M104.32 260.055H44.2771C44.248 260.055 44.2246 260.031 44.2246 260.002V256.962C44.2246 256.933 44.2483 256.909 44.2771 256.909H104.32C104.349 256.909 104.373 256.933 104.373 256.962V260.002C104.373 260.031 104.349 260.055 104.32 260.055Z" fill="#51BE5F"/>
<path d="M133.767 316.662C131.656 316.659 127.304 317.209 125.393 314.882C123.479 312.554 119.347 311.41 118.82 310.667C118.536 310.265 118.914 308.482 119.322 306.918C120.352 305.501 118.692 303.568 118.692 303.568L124.223 303.941C124.223 303.941 126.859 307.439 128.801 310.254C129.538 311.322 131.76 312.925 133.099 313.403C134.828 314.021 136.549 314.403 137.181 315.019C138.303 316.112 135.877 316.664 133.767 316.662Z" fill="#FC9490"/>
<path d="M133.767 316.661C131.657 316.659 127.305 317.209 125.393 314.882C123.479 312.554 119.347 311.41 118.82 310.667C118.536 310.265 118.522 308.646 119.322 306.918L119.323 306.916C119.323 306.916 122.807 308.342 124.775 311.075C126.742 313.809 131.981 314.998 133.085 313.421C133.089 313.415 133.094 313.408 133.099 313.403C134.828 314.021 136.549 314.402 137.181 315.019C138.303 316.112 135.878 316.664 133.767 316.661Z" fill="black"/>
<path d="M118.82 310.667L120.942 315.194L122.354 315.348L122.144 311.316L118.82 310.667Z" fill="black"/>
<path d="M77.3862 230.453C77.3862 230.453 108.164 239.985 114.787 245.49C121.41 250.995 126.024 305.599 126.024 305.599C126.024 305.599 125.234 306.078 123.615 306.041C122.11 306.007 118.954 304.705 118.954 304.705C118.954 304.705 105.428 278.769 105.041 272.632C104.654 266.494 105.641 261.192 102.99 260.699C100.339 260.206 66.5114 260.027 62.6417 250.498C58.7718 240.97 64.0851 232.738 64.0851 232.738L77.3862 230.453Z" fill="#1D1D1D"/>
<path d="M126.628 316.662C124.518 316.659 120.166 317.209 118.254 314.882C116.341 312.554 112.209 311.41 111.682 310.667C111.398 310.265 111.776 308.482 112.184 306.918C113.214 305.501 111.554 303.568 111.554 303.568L117.085 303.941C117.085 303.941 119.721 307.439 121.663 310.254C122.399 311.322 124.622 312.925 125.96 313.403C127.69 314.021 129.41 314.403 130.042 315.019C131.164 316.112 128.739 316.664 126.628 316.662Z" fill="#FC9490"/>
<path d="M126.628 316.661C124.518 316.659 120.165 317.209 118.254 314.882C116.341 312.554 112.208 311.41 111.682 310.667C111.397 310.265 111.383 308.646 112.183 306.918L112.184 306.916C112.184 306.916 115.669 308.342 117.636 311.075C119.604 313.809 124.842 314.998 125.946 313.421C125.95 313.415 125.956 313.408 125.96 313.403C127.69 314.021 129.41 314.402 130.042 315.019C131.164 316.112 128.739 316.664 126.628 316.661Z" fill="black"/>
<path d="M111.682 310.667L113.804 315.194L115.215 315.348L115.005 311.316L111.682 310.667Z" fill="black"/>
<path d="M69.3303 233.335C69.3303 233.335 101.025 239.985 107.649 245.49C114.271 250.995 118.886 305.598 118.886 305.598C118.886 305.598 118.096 306.077 116.477 306.041C114.971 306.006 111.816 304.705 111.816 304.705C111.816 304.705 98.2891 278.769 97.9021 272.631C97.5151 266.494 98.5019 261.192 95.8511 260.699C93.2003 260.205 59.3729 260.027 55.503 250.498C51.6332 240.97 56.9464 232.738 56.9464 232.738L69.3303 233.335Z" fill="black"/>
<path d="M81.2395 182.202C81.278 182.219 77.5497 184.155 74.7453 183.388C72.1073 182.669 70.3839 179.249 70.42 179.241C71.5373 179.019 71.8591 177.484 71.8357 170.887L72.3405 170.987L80.8322 172.668C80.8322 172.668 80.639 175.34 80.6332 177.858C80.6276 179.972 80.7558 181.976 81.2395 182.202Z" fill="#FC9490"/>
<path d="M80.832 172.668C80.832 172.668 80.6389 175.34 80.633 177.858C75.8814 177.724 73.3695 173.389 72.3403 170.987L80.832 172.668Z" fill="#FF8585"/>
<path d="M82.4198 175.052C82.4198 175.052 71.1765 175.237 71.1688 168.234C71.161 161.23 69.7047 156.537 76.8829 156.123C84.0611 155.708 85.4588 158.379 86.03 160.716C86.6012 163.053 85.3441 174.823 82.4198 175.052Z" fill="#FC9490"/>
<path d="M56.2037 212.451C55.095 207.801 58.8671 198.777 62.805 191.307C66.3781 184.536 70.0867 179.044 70.42 179.241C79.8435 184.834 80.6948 180.184 80.6948 180.184L80.6953 180.185C80.699 180.186 89.2557 181.321 91.6791 185.493C94.6852 190.67 97.9337 205.135 101.16 207.873C100.664 209.389 100.877 210.197 101.402 212.075C101.515 212.478 101.638 212.861 101.775 213.224C102.261 214.546 102.87 215.618 103.395 216.549C101.755 217.546 98.5879 219.441 96.2547 218.078C92.6975 215.996 89.9225 209.659 88.3603 207.135C88.3544 207.125 88.3488 207.116 88.3427 207.107C84.9477 226.324 89.5641 230.701 87.2272 232.727C84.7595 234.867 81.2339 231.708 73.478 235.07C68.3906 237.277 61.3311 240.467 56.5789 241.023C54.0864 241.315 52.2267 240.881 51.6203 239.198C49.8579 234.307 58.3189 221.316 56.2037 212.451Z" fill="white"/>
<path d="M79.9204 170.806C79.9204 170.806 80.13 171.696 82.3432 171.558C82.3432 171.558 84.2014 171.443 84.1447 170.466C84.1447 170.466 82.3428 169.77 79.9204 170.806Z" fill="white"/>
<path d="M50.014 219.28C52.534 215.741 55.1593 213.87 56.8861 212.929C56.4885 211.905 67.4853 198.423 67.4853 196.334C67.4853 194.22 70.4194 179.24 70.4194 179.24C70.4194 179.24 61.2567 179.806 58.0841 184.23C54.1167 189.764 45.8765 211.059 50.014 219.28Z" fill="white"/>
<path d="M56.8863 212.929L75.1969 217.707L73.4783 220.792C73.4783 220.792 51.1951 220.636 50.0142 219.28C48.8334 217.923 56.8863 212.929 56.8863 212.929Z" fill="#FC9490"/>
<path d="M88.3604 207.135C89.9226 209.659 92.6977 215.997 96.2549 218.078C98.5881 219.441 101.755 217.546 103.395 216.55C102.87 215.618 102.262 214.545 101.775 213.224C100.467 213.523 98.869 213.906 97.8391 214.216C95.835 214.823 88.3604 207.135 88.3604 207.135Z" fill="#163560"/>
<path d="M86.4939 204.621L76.6909 226.363L99.9259 228.557L109.068 206.479L86.4939 204.621Z" fill="black"/>
<path d="M109.067 206.479L119.908 199.603L109.067 223.309L99.9258 228.558C100.414 227.379 109.067 206.479 109.067 206.479Z" fill="#1D1D1D"/>
<path d="M75.1968 217.707C75.1968 217.707 78.582 216.216 79.4398 215.453C79.9934 214.961 79.9508 215.664 79.8987 215.857C79.794 216.243 79.6543 217.019 78.6675 217.668C77.2471 218.602 75.1968 217.707 75.1968 217.707Z" fill="#FC9490"/>
<path d="M81.2768 153.607C81.2768 153.607 77.6894 163.666 72.5367 165.295C67.3839 166.924 65.7192 164.864 65.7192 164.864C65.7192 164.864 69.5539 161.46 70.082 155.856C70.082 155.856 78.4716 149.421 81.2768 153.607Z" fill="black"/>
<path d="M80.4731 154.39C80.4731 154.39 83.1268 156.28 83.8546 158.219C84.5823 160.158 85.0832 164.204 86.2591 164.001C86.2591 164.001 88.4872 157.683 85.413 154.346C82.1534 150.808 80.4731 154.39 80.4731 154.39Z" fill="black"/>
<path d="M80.9624 154.671C80.9624 154.671 79.056 164.322 72.6284 167.731C72.6284 167.731 78.9032 161.523 79.1198 155.209C79.3364 148.895 80.9624 154.671 80.9624 154.671Z" fill="black"/>
<path d="M61.6042 173.953C63.6083 175.304 68.2629 174.882 68.2629 174.882C67.9919 174.643 67.6844 174.094 67.6844 174.094C70.4311 175.456 75.8304 172.807 75.8304 172.807C71.0525 172.823 71.0515 165.923 72.5369 165.295C72.3269 160.138 72.7312 153.568 72.9471 150.61C72.7382 150.622 72.6215 150.637 72.6215 150.637C59.5335 148.676 59.6003 172.605 61.6042 173.953Z" fill="black"/>
<path d="M75.1969 217.707C75.1969 217.707 81.1421 216.572 82.4547 216.86C83.7671 217.148 86.702 218.408 86.9207 218.68C87.1394 218.951 86.0684 219.103 85.2984 218.789C84.3111 218.386 82.6734 218.554 82.6734 218.554C82.6734 218.554 85.8331 219.59 86.6056 220.031C86.6828 220.075 86.6858 220.186 86.6108 220.234C86.401 220.368 85.8938 220.412 85.1887 220.238C84.177 219.989 82.3724 219.828 82.3724 219.828L85.9646 221.008C86.0091 221.022 86.0393 221.067 86.033 221.113C86.0089 221.287 85.6959 221.443 84.8334 221.393C84.1686 221.355 81.9623 220.792 81.9623 220.792L83.8489 222.052C83.8489 222.052 83.3295 222.348 82.345 221.906C81.6697 221.603 79.6387 220.865 79.1464 220.916C78.6542 220.968 76.1382 221.66 75.0445 221.305C73.9508 220.949 73.478 220.792 73.478 220.792L75.1969 217.707Z" fill="#FC9490"/>
<path d="M68.4158 315.192C68.9404 315.192 69.3888 314.824 69.4788 314.321L74.688 284.794L82.181 242.328L84.276 230.453L78.939 230.301L78.0129 237.194L71.5112 285.637L67.6568 314.352C67.5977 314.797 67.9533 315.192 68.4158 315.192Z" fill="#51BE5F"/>
<path d="M78.0127 237.194C81.4701 238.72 82.1802 242.327 82.1802 242.327L84.2752 230.453L78.9385 230.301L78.0127 237.194Z" fill="#51BE5F"/>
<path d="M201.161 315.192C200.636 315.192 200.188 314.824 200.098 314.321L194.889 284.794L187.396 242.328L185.3 230.453L190.638 230.301L191.563 237.194L198.065 285.637L201.919 314.352C201.979 314.797 201.623 315.192 201.161 315.192Z" fill="#2E49D3"/>
<path d="M191.563 237.194C188.105 238.72 187.395 242.327 187.395 242.327L185.3 230.453L190.637 230.301L191.563 237.194Z" fill="#97BADD"/>
<path d="M61.6985 235.116H204.681C204.736 235.116 204.78 235.071 204.78 235.017V229.303C204.78 229.248 204.736 229.204 204.681 229.204H61.6985C61.6441 229.204 61.5996 229.248 61.5996 229.303V235.017C61.5996 235.071 61.6441 235.116 61.6985 235.116Z" fill="#51BE5F"/>
<path d="M350.639 241.15H324.54C323.818 241.15 323.228 240.559 323.228 239.837C323.228 239.115 323.818 238.525 324.54 238.525H350.639C351.361 238.525 351.951 239.115 351.951 239.837C351.951 240.559 351.361 241.15 350.639 241.15Z" fill="#D9E9FE"/>
<path d="M350.639 246.291H324.54C323.818 246.291 323.228 245.7 323.228 244.978C323.228 244.256 323.818 243.666 324.54 243.666H350.639C351.361 243.666 351.951 244.256 351.951 244.978C351.951 245.7 351.361 246.291 350.639 246.291Z" fill="#D9E9FE"/>
<path d="M356.134 24.398V306.976C356.134 311.337 352.621 314.918 348.285 315.03C348.215 315.032 348.148 315.032 348.078 315.032H206.774C202.344 315.032 198.717 311.407 198.717 306.976V24.398C198.717 19.9663 202.344 16.3418 206.774 16.3418H348.078C352.509 16.3418 356.134 19.9663 356.134 24.398Z" fill="black"/>
<path d="M364.455 24.398V306.978C364.455 311.405 360.828 315.03 356.396 315.03H215.092C210.66 315.03 207.038 311.405 207.038 306.978V24.398C207.038 19.9663 210.66 16.3418 215.092 16.3418H356.396C360.828 16.3418 364.455 19.9663 364.455 24.398Z" fill="#1D1D1D"/>
<path opacity="0.4" d="M308.814 27.6481H267.894C267.019 27.6481 266.302 26.9318 266.302 26.0561C266.302 25.1804 267.019 24.4641 267.894 24.4641H308.814C309.69 24.4641 310.407 25.1804 310.407 26.0561C310.407 26.9318 309.69 27.6481 308.814 27.6481Z" fill="white"/>
<path opacity="0.4" d="M260.626 27.648C259.751 27.648 259.034 26.9317 259.034 26.056C259.034 25.1804 259.751 24.4641 260.626 24.4641C261.502 24.4641 262.218 25.1804 262.218 26.056C262.218 26.9317 261.502 27.648 260.626 27.648Z" fill="white"/>
<path d="M297.964 298.527C297.964 301.345 296.826 303.9 294.986 305.756C293.125 307.635 290.544 308.796 287.694 308.796C282.023 308.796 277.425 304.198 277.425 298.527C277.425 294.881 279.324 291.681 282.19 289.86C283.779 288.847 285.669 288.26 287.694 288.26C293.365 288.26 297.964 292.856 297.964 298.527Z" fill="white"/>
<path d="M356.054 34.7422H216.464V283.211H356.054V34.7422Z" fill="#DDF0E0"/>
<path d="M294.986 305.756C293.125 307.635 290.544 308.796 287.694 308.796C282.023 308.796 277.425 304.198 277.425 298.527C277.425 294.881 279.324 291.681 282.19 289.86C283.198 294.231 286.181 301.544 294.986 305.756Z" fill="white"/>
<path d="M356.134 54.8647V152.61H223.179C221.691 152.61 220.471 151.316 220.471 149.734V57.7457C220.471 56.1598 221.691 54.8647 223.179 54.8647H356.134Z" fill="#B8DBBD"/>
<path d="M318.214 172.264V264.252C318.214 265.834 317.112 267.129 315.767 267.129H216.464V169.383H315.767C317.112 169.384 318.214 170.678 318.214 172.264Z" fill="#B8DBBD"/>
<path d="M417.22 49.6173V141.606C417.22 143.187 415.925 144.482 414.338 144.482H228.051C226.47 144.482 225.175 143.187 225.175 141.606V49.6173C225.175 48.0304 226.47 46.7356 228.051 46.7356H414.338C415.925 46.7354 417.22 48.0304 417.22 49.6173Z" fill="#FFFBF8"/>
<path d="M417.219 49.6168V141.605C417.219 143.187 415.714 144.482 413.871 144.482H321.197V46.7361H413.871C415.714 46.7361 417.219 48.0314 417.219 49.6168Z" fill="#FFF6DF"/>
<path d="M376.136 59.4581H341.262C340.688 59.4581 340.218 58.9884 340.218 58.4141C340.218 57.8398 340.688 57.3701 341.262 57.3701H376.136C376.71 57.3701 377.18 57.8398 377.18 58.4141C377.18 58.9884 376.71 59.4581 376.136 59.4581Z" fill="#1F1F1F"/>
<path d="M376.136 63.4813H341.262C340.688 63.4813 340.218 63.0116 340.218 62.4373C340.218 61.8633 340.688 61.3933 341.262 61.3933H376.136C376.71 61.3933 377.18 61.863 377.18 62.4373C377.18 63.0116 376.71 63.4813 376.136 63.4813Z" fill="#1F1F1F"/>
<path d="M336.136 59.6831H332.862C332.839 59.6831 332.82 59.6639 332.82 59.6407V57.1874C332.82 57.164 332.839 57.145 332.862 57.145H336.136C336.159 57.145 336.178 57.1642 336.178 57.1874V59.6407C336.178 59.6639 336.159 59.6831 336.136 59.6831Z" fill="#1F1F1F"/>
<path d="M376.136 74.2691H341.262C340.688 74.2691 340.218 73.7994 340.218 73.2251C340.218 72.6509 340.688 72.1812 341.262 72.1812H376.136C376.71 72.1812 377.18 72.6509 377.18 73.2251C377.18 73.7994 376.71 74.2691 376.136 74.2691Z" fill="#1F1F1F"/>
<path d="M376.136 78.2923H341.262C340.688 78.2923 340.218 77.8226 340.218 77.2483C340.218 76.6743 340.688 76.2043 341.262 76.2043H376.136C376.71 76.2043 377.18 76.6741 377.18 77.2483C377.18 77.8226 376.71 78.2923 376.136 78.2923Z" fill="#1F1F1F"/>
<path d="M336.136 74.4939H332.862C332.839 74.4939 332.82 74.4749 332.82 74.4515V71.9982C332.82 71.9748 332.839 71.9558 332.862 71.9558H336.136C336.159 71.9558 336.178 71.9748 336.178 71.9982V74.4515C336.178 74.4749 336.159 74.4939 336.136 74.4939Z" fill="#1F1F1F"/>
<path d="M376.136 88.9154H341.262C340.688 88.9154 340.218 88.4457 340.218 87.8714C340.218 87.2971 340.688 86.8274 341.262 86.8274H376.136C376.71 86.8274 377.18 87.2971 377.18 87.8714C377.18 88.4457 376.71 88.9154 376.136 88.9154Z" fill="#1F1F1F"/>
<path d="M376.136 92.9381H341.262C340.688 92.9381 340.218 92.4684 340.218 91.8943C340.218 91.3201 340.688 90.8501 341.262 90.8501H376.136C376.71 90.8501 377.18 91.3198 377.18 91.8943C377.18 92.4684 376.71 92.9381 376.136 92.9381Z" fill="#1F1F1F"/>
<path d="M336.136 89.1402H332.862C332.839 89.1402 332.82 89.1212 332.82 89.0978V86.6445C332.82 86.621 332.839 86.6021 332.862 86.6021H336.136C336.159 86.6021 336.178 86.621 336.178 86.6445V89.0978C336.178 89.1212 336.159 89.1402 336.136 89.1402Z" fill="#1F1F1F"/>
<path d="M325.235 162.593V254.582C325.235 256.166 323.939 257.461 322.356 257.461H136.072C134.485 257.461 133.19 256.166 133.19 254.582V162.593C133.19 161.012 134.485 159.717 136.072 159.717H322.356C323.939 159.717 325.235 161.012 325.235 162.593Z" fill="#FFFBF8"/>
<path d="M325.455 162.694V254.682C325.455 256.267 324.16 257.563 322.578 257.563H239.724V159.816H322.578C324.16 159.816 325.455 161.111 325.455 162.694Z" fill="#51BE5F"/>
<path d="M158.184 175.672C152.479 175.672 147.854 180.297 147.854 186.002C147.854 191.707 152.479 196.332 158.184 196.332C163.889 196.332 168.514 191.707 168.514 186.002C168.514 180.297 163.889 175.672 158.184 175.672ZM165.339 186.332H158.185C158.002 186.332 157.855 186.184 157.855 186.002V178.31C157.855 178.128 158.002 177.98 158.185 177.98C158.367 177.98 158.514 178.128 158.514 178.31V185.673H165.339C165.521 185.673 165.669 185.82 165.669 186.002C165.669 186.184 165.521 186.332 165.339 186.332Z" fill="#F8BE3E"/>
<path d="M157.153 215.654C152.018 215.654 147.854 219.817 147.854 224.952C147.854 230.087 157.153 241.504 157.153 241.504C157.153 241.504 166.451 230.087 166.451 224.952C166.451 219.817 162.288 215.654 157.153 215.654ZM157.153 229.204C154.753 229.204 152.807 227.258 152.807 224.857C152.807 222.457 154.753 220.511 157.153 220.511C159.553 220.511 161.499 222.457 161.499 224.857C161.499 227.258 159.553 229.204 157.153 229.204Z" fill="#F8BE3E"/>
<path d="M209.367 221.377H175.526C174.668 221.377 173.966 220.675 173.966 219.816C173.966 218.958 174.668 218.256 175.526 218.256H209.367C210.226 218.256 210.928 218.958 210.928 219.816C210.928 220.675 210.226 221.377 209.367 221.377Z" fill="#C3DFC7"/>
<path d="M201.874 227.351H174.018C173.989 227.351 173.966 227.328 173.966 227.299V224.283C173.966 224.254 173.989 224.23 174.018 224.23H201.874C201.902 224.23 201.926 224.254 201.926 224.283V227.299C201.926 227.328 201.902 227.351 201.874 227.351Z" fill="#C3DFC7"/>
<path d="M209.367 184.575H175.526C174.668 184.575 173.966 183.873 173.966 183.015C173.966 182.156 174.668 181.454 175.526 181.454H209.367C210.226 181.454 210.928 182.156 210.928 183.015C210.928 183.873 210.226 184.575 209.367 184.575Z" fill="#C3DFC7"/>
<path d="M201.874 190.55H174.018C173.989 190.55 173.966 190.526 173.966 190.497V187.481C173.966 187.452 173.989 187.429 174.018 187.429H201.874C201.902 187.429 201.926 187.452 201.926 187.481V190.497C201.926 190.526 201.902 190.55 201.874 190.55Z" fill="#C3DFC7"/>
<path d="M396.934 82.5288C396.742 82.4116 396.474 82.2597 396.154 82.0865H396.155L391.113 77.9709C391.113 77.9709 390.473 78.3357 391.113 79.0332C391.195 79.1225 391.307 79.239 391.439 79.3745L389.514 77.8708C389.514 77.8708 389.173 78.211 389.393 78.7508C389.551 79.1371 391.356 80.6777 392.37 81.5235C391.759 81.2295 390.9 80.5823 389.613 79.2908C388.811 78.4852 389.071 79.6989 389.193 80.2308C389.409 81.1704 391.915 84.3409 392.795 85.7681C393.676 87.1954 394.116 88.6043 393.5 87.9879C392.883 87.3714 389.537 85.3094 389.185 85.7681C388.833 86.2269 390.858 87.9879 391.827 89.3966C392.796 90.8056 393.852 93.1828 397.286 93.7111C400.72 94.2395 401.311 92.503 401.311 92.503C401.311 92.503 398.519 83.4975 396.934 82.5288Z" fill="#FC9490"/>
<path d="M503.068 168.332C503.068 168.332 502.231 176.467 501.313 178.006C500.395 179.545 496.127 184.014 494.821 185.427C494.731 185.524 493.883 184.775 494.525 183.692C497.115 179.323 496.394 180.371 495.498 177.499C495.055 176.079 494.779 180.166 494.045 180.263C493.311 180.359 493.572 175.953 493.545 174.613C493.519 173.272 497.225 172.643 497.662 167.809C497.943 164.699 503.068 168.332 503.068 168.332Z" fill="#FC9490"/>
<path d="M477.557 84.8635C477.557 84.8635 470.793 118.064 433.568 128.912C421.948 132.298 395.55 94.0422 395.55 94.0422C395.55 94.0422 396.478 90.5155 402.292 91.3254C402.292 91.3254 427.996 108.342 431.232 110.191C434.104 111.831 452.987 89.1054 461.595 85.4394C470.203 81.7737 477.557 84.8635 477.557 84.8635Z" fill="#6DD47A"/>
<path d="M521.999 293.573C521.999 293.573 526.617 297.788 525.716 300.782C524.814 303.777 520.647 305.773 520.084 309.433C519.521 313.092 517.268 315.089 515.241 315.089C513.214 315.089 505.575 315.089 505.575 315.089C505.575 315.089 504.083 312.513 507.687 311.737C511.291 310.961 512.65 306.66 512.425 302.668C512.2 298.675 512.763 293.352 512.763 293.352L520.422 291.577L521.999 293.573Z" fill="#51BE5F"/>
<path d="M465.345 304.473C465.345 304.473 466.174 314.064 464.146 315.063L438.201 315.009C438.201 315.009 438.201 312.015 442.368 311.35C446.535 310.684 453.856 308.244 455.095 302.81C456.334 297.375 465.345 304.473 465.345 304.473Z" fill="#51BE5F"/>
<path d="M443.439 168.992C443.439 168.992 444.807 185.804 446.416 206.013C448.602 233.465 451.231 267.185 451.491 273.573C451.941 284.666 453.745 302.41 453.745 302.41C453.745 302.41 458.023 306.625 466.585 304.848C466.585 304.848 474.215 279.519 476.394 252.719C476.428 252.28 476.462 251.837 476.495 251.395C478.523 224.112 481.676 166.663 481.676 166.663L443.439 168.992Z" fill="black"/>
<path d="M443.439 168.992C443.439 168.992 444.807 185.804 446.416 206.013L476.394 252.719C476.428 252.28 476.462 251.837 476.496 251.395C478.523 224.113 481.676 166.663 481.676 166.663L443.439 168.992Z" fill="#1D1D1D"/>
<path d="M449.688 170.989C449.688 170.989 474.355 231.875 490.574 260.488C506.793 289.102 511.862 297.087 511.862 297.087C511.862 297.087 521.154 293.427 521.999 290.931C521.999 290.931 515.797 235.692 504.935 222.227C498.797 214.618 491.588 191.783 491.25 183.798C490.912 175.813 489.054 160.009 489.054 160.009L449.688 170.989Z" fill="black"/>
<path d="M482.143 77.1583C482.143 77.1583 465.453 85.211 455.832 82.2232C455.832 82.2232 458.2 79.2355 462.345 77.0123C462.012 75.0811 461.753 73.4049 461.604 71.984C461.198 68.7043 461.198 66.846 461.198 66.846L467.636 61.7814L473.743 56.9348C473.261 70.5626 482.143 77.1583 482.143 77.1583Z" fill="#FC9490"/>
<path d="M490.938 163.127C490.975 164.15 488.793 165.315 487.828 165.75C480.688 168.886 474.026 171.071 466.476 171.8C457.559 172.711 447.011 170.706 443.384 170.78C443.014 170.78 442.681 170.635 442.385 170.378C442.127 170.196 441.942 159.448 442.127 145.928C442.127 145.384 442.127 144.837 442.164 144.29V144.108C442.237 138.825 442.422 133.285 442.681 127.746C443.199 115.576 444.163 103.843 445.791 97.3576C447.75 89.705 452.193 84.6411 456.227 80.959L459.556 78.0454C462.886 78.7004 466.402 78.5182 469.918 76.8064C473.767 74.9495 477.912 72.9445 478.577 73.4543C483.61 77.1341 487.014 85.4048 488.829 95.9735C488.837 96.0265 488.848 96.0766 488.856 96.1296C489.873 102.174 490.382 108.933 490.345 116.013C490.345 118.638 490.271 121.333 490.123 123.993C489.381 136.043 489.878 146.771 490.364 154.204C490.459 155.673 490.557 157.012 490.641 158.209C490.789 160.322 490.901 161.962 490.938 163.127Z" fill="#51BE5F"/>
<path d="M490.364 154.204C462.699 122.262 479.862 99.0478 479.862 99.0478L488.856 96.1289C489.873 102.173 490.383 108.933 490.346 116.012C490.346 118.638 490.272 121.332 490.124 123.992C489.382 136.043 489.878 146.77 490.364 154.204Z" fill="#4BB159"/>
<path d="M473.853 62.1457C473.853 62.1457 469.634 69.8337 461.604 71.9832C461.197 68.7037 461.197 66.8455 461.197 66.8455L467.636 61.7812L473.853 62.1457Z" fill="#F48484"/>
<path d="M458.261 66.6244C458.261 66.6244 474.183 69.2288 475.677 59.4408C477.172 49.6531 480.234 43.3973 470.131 41.3206C460.029 39.2438 457.479 42.6857 456.173 45.8332C454.867 48.9807 454.158 65.6945 458.261 66.6244Z" fill="#FC9490"/>
<path d="M481.464 40.1486C481.608 39.9829 481.942 39.8493 482.683 39.8088C482.683 39.8088 482.091 39.438 481.298 39.4183C481.142 38.3867 480.593 36.5607 478.818 36.1168C478.818 36.1168 479.772 36.6254 479.897 37.7222C477.841 35.6103 473.434 34.0728 461.232 35.036C445.152 36.3052 450.451 46.6013 452.533 47.8286C454.615 49.0559 459.855 45.6912 463.734 45.999C467.613 46.3067 468.351 51.9116 469.667 52.6809C470.982 53.4499 470.465 52.09 472.245 51.2853C474.026 50.4804 474.195 53.4307 473.681 55.3488C473.167 57.2671 475.613 59.7972 475.613 59.7972C475.613 59.7972 475.613 59.7972 478.085 57.1349C480.557 54.4726 482.887 43.196 481.763 40.7923C481.664 40.5797 481.565 40.3648 481.464 40.1486Z" fill="black"/>
<path d="M478.571 73.373C478.571 73.373 488.645 78.1433 493.475 85.4766C500.966 96.8519 509.651 138.309 509.811 142.149C509.972 145.988 503.473 173.091 503.473 173.091C503.473 173.091 496.881 172.657 495.181 169.33C495.181 169.33 496.498 141.482 495.664 139.692C494.829 137.902 468.185 102.337 471.181 94.7477C474.176 87.1584 478.571 73.373 478.571 73.373Z" fill="#6DD47A"/>
<path d="M501.313 178.006L496.545 185.981C496.545 185.981 495.975 185.742 496.065 185.172C496.155 184.602 497.534 180.282 497.534 180.282L501.313 178.006Z" fill="#FC9490"/>
<path d="M496.537 178.237C496.537 178.237 493.1 182.158 493.862 183.044L496.344 181.124L496.537 178.237Z" fill="#FC9490"/>
<path d="M273.303 248.099H249.853C249.326 248.099 248.896 247.668 248.896 247.142C248.896 246.616 249.326 246.185 249.853 246.185H273.303C273.829 246.185 274.26 246.616 274.26 247.142C274.26 247.668 273.829 248.099 273.303 248.099Z" fill="#51BE5F"/>
<path d="M260.334 91.8345H233.108C232.533 91.8345 232.062 91.3638 232.062 90.7888C232.062 90.2139 232.533 89.7434 233.108 89.7434H260.334C260.909 89.7434 261.379 90.2139 261.379 90.7888C261.379 91.364 260.909 91.8345 260.334 91.8345Z" fill="#A7A2A2"/>
<path d="M260.334 96.1072H233.108C232.533 96.1072 232.062 95.6367 232.062 95.0615C232.062 94.4866 232.533 94.0159 233.108 94.0159H260.334C260.909 94.0159 261.379 94.4866 261.379 95.0615C261.379 95.6367 260.909 96.1072 260.334 96.1072Z" fill="#A7A2A2"/>
<path d="M260.334 100.38H233.108C232.533 100.38 232.062 99.9094 232.062 99.3342C232.062 98.7592 232.533 98.2886 233.108 98.2886H260.334C260.909 98.2886 261.379 98.7592 261.379 99.3342C261.379 99.9094 260.909 100.38 260.334 100.38Z" fill="#A7A2A2"/>
<path d="M306.887 61.3379H279.661C279.086 61.3379 278.615 60.8674 278.615 60.2925C278.615 59.7173 279.086 59.2468 279.661 59.2468H306.887C307.462 59.2468 307.933 59.7173 307.933 60.2925C307.933 60.8674 307.462 61.3379 306.887 61.3379Z" fill="#A7A2A2"/>
<path d="M306.887 65.6106H279.661C279.086 65.6106 278.615 65.1401 278.615 64.5649C278.615 63.99 279.086 63.5193 279.661 63.5193H306.887C307.462 63.5193 307.933 63.99 307.933 64.5649C307.933 65.1401 307.462 65.6106 306.887 65.6106Z" fill="#A7A2A2"/>
<path d="M306.887 69.8833H279.661C279.086 69.8833 278.615 69.4128 278.615 68.8379C278.615 68.2629 279.086 67.7922 279.661 67.7922H306.887C307.462 67.7922 307.933 68.2629 307.933 68.8379C307.933 69.4128 307.462 69.8833 306.887 69.8833Z" fill="#A7A2A2"/>
<path d="M306.887 121.969H279.661C279.086 121.969 278.615 121.499 278.615 120.924C278.615 120.349 279.086 119.878 279.661 119.878H306.887C307.462 119.878 307.933 120.349 307.933 120.924C307.933 121.499 307.462 121.969 306.887 121.969Z" fill="#A7A2A2"/>
<path d="M306.887 126.241H279.661C279.086 126.241 278.615 125.771 278.615 125.196C278.615 124.621 279.086 124.15 279.661 124.15H306.887C307.462 124.15 307.933 124.621 307.933 125.196C307.933 125.771 307.462 126.241 306.887 126.241Z" fill="#A7A2A2"/>
<path d="M306.887 130.515H279.661C279.086 130.515 278.615 130.044 278.615 129.469C278.615 128.894 279.086 128.423 279.661 128.423H306.887C307.462 128.423 307.933 128.894 307.933 129.469C307.933 130.044 307.462 130.515 306.887 130.515Z" fill="#A7A2A2"/>
<path d="M381.35 125.196H355.279C350.989 125.196 347.48 121.686 347.48 117.398C347.48 113.109 350.989 109.599 355.279 109.599H381.35C385.639 109.599 389.149 113.108 389.149 117.398C389.149 121.687 385.639 125.196 381.35 125.196Z" fill="#51BE5F"/>
<path d="M363.329 115.154C363.329 115.154 368.279 122.081 368.264 121.822C368.249 121.563 373.299 111.982 373.299 111.982L367.47 117.631L363.329 115.154Z" fill="white"/>
<path d="M585.961 316.716H0.0300149C0.0136071 316.716 0 316.702 0 316.686V314.944C0 314.928 0.0136071 314.914 0.0300149 314.914H585.961C585.978 314.914 585.991 314.928 585.991 314.944V316.686C585.991 316.702 585.978 316.716 585.961 316.716Z" fill="#2E3552"/>
<path fill-rule="evenodd" clip-rule="evenodd" d="M247.88 52.384C248.116 52.5003 248.351 52.6211 248.59 52.7317C248.995 52.9195 249.195 53.2404 249.242 53.678C249.313 54.3515 249.4 55.0233 249.468 55.697C249.482 55.832 249.538 55.8967 249.655 55.9409C249.76 55.9807 249.859 56.0377 249.963 56.0818C250.354 56.2476 250.578 56.5441 250.635 56.9604C250.684 57.3118 250.717 57.6654 250.756 58.0179C250.648 58.2017 250.469 58.3179 250.327 58.4689C250.109 58.7005 249.988 58.981 250.035 59.2848C250.23 60.5351 250.334 61.7948 250.397 63.0556C250.438 63.902 250.475 64.7508 250.461 65.6006C250.451 66.2388 250.376 66.8751 250.409 67.5143C250.089 67.7215 249.721 67.7924 249.356 67.8292C248.66 67.8991 248.013 67.7407 247.44 67.3231C247.467 67.0711 247.403 66.8245 247.395 66.5746C247.376 66.0415 247.389 65.5088 247.359 64.9744C247.316 64.2327 247.32 63.4871 247.305 62.7432C247.293 62.1528 247.244 61.564 247.25 60.9737C247.251 60.7832 247.163 60.7611 247.024 60.842C246.889 60.9208 246.764 61.0162 246.566 61.1504C246.566 60.6467 246.583 60.202 246.56 59.7594C246.544 59.4453 246.535 59.1298 246.506 58.817C246.44 58.0875 246.36 57.3593 246.273 56.632C246.199 56.0088 246.121 55.3856 245.986 54.7717C246.096 54.7137 246.208 54.7409 246.32 54.7636C246.578 54.8776 246.841 54.9832 247.095 55.1073C247.586 55.3472 247.961 56.1298 247.756 56.6295C247.589 57.0377 247.643 57.4258 247.699 57.8191C247.831 58.7533 247.903 59.693 247.965 60.6325C247.982 60.8872 248.061 61.0104 248.282 61.0974C248.672 61.2514 248.897 61.5287 248.965 61.9606C249.06 62.5658 249.134 63.1739 249.183 63.7822C249.254 64.6664 249.359 65.55 249.342 66.4401C249.341 66.4962 249.317 66.5683 249.385 66.6028C249.435 66.5848 249.432 66.5501 249.434 66.5196C249.467 65.9071 249.526 65.2945 249.526 64.682C249.525 63.6787 249.549 62.6759 249.498 61.6713C249.447 60.6556 249.393 59.6418 249.295 58.6293C249.213 57.7792 249.1 56.9342 248.953 56.0934C248.892 55.7478 248.804 55.7104 248.522 55.9116C248.469 55.9489 248.426 55.9989 248.379 56.043C248.263 56.1511 248.165 56.2832 247.994 56.3393C247.887 55.0058 247.732 53.6894 247.491 52.384C247.621 52.384 247.75 52.384 247.88 52.384Z" fill="#FE983B"/>
<path fill-rule="evenodd" clip-rule="evenodd" d="M255.856 64.8303C256.356 64.9034 256.624 65.2611 256.546 65.7504C256.135 68.3258 255.725 70.9011 255.313 73.4762C255.153 74.4808 254.984 75.484 254.831 76.4898C254.774 76.8648 254.604 77.1361 254.251 77.2858C250.782 77.2858 247.313 77.2858 243.843 77.2858C243.283 77.0389 243.302 76.5035 243.216 76.0214C243.202 75.9424 243.203 75.8609 243.197 75.7804C246.391 75.7797 249.584 75.7795 252.777 75.7766C252.978 75.7764 253.219 75.8537 253.37 75.7433C253.516 75.637 253.463 75.3854 253.495 75.1977C253.636 74.3651 253.775 73.5322 253.909 72.6985C254.065 71.7217 254.212 70.7435 254.367 69.7667C254.52 68.8058 254.678 67.8457 254.835 66.8855C254.947 66.2031 255.062 65.5214 255.176 64.8393C255.402 64.8364 255.629 64.8334 255.856 64.8303Z" fill="#E3D6B5"/>
<path fill-rule="evenodd" clip-rule="evenodd" d="M247.491 52.384C247.732 53.6893 247.887 55.0058 247.994 56.3393C248.165 56.2832 248.263 56.1511 248.379 56.043C248.426 55.9989 248.469 55.9489 248.522 55.9116C248.804 55.7104 248.892 55.7478 248.953 56.0934C249.1 56.9341 249.213 57.7792 249.295 58.6293C249.393 59.6417 249.447 60.6556 249.498 61.6713C249.549 62.6759 249.525 63.6787 249.526 64.682C249.526 65.2946 249.467 65.9071 249.434 66.5196C249.432 66.5501 249.435 66.5848 249.385 66.6028C249.316 66.5683 249.341 66.4962 249.342 66.4401C249.359 65.55 249.254 64.6664 249.183 63.7822C249.134 63.1738 249.06 62.5657 248.965 61.9606C248.897 61.5287 248.672 61.2514 248.282 61.0974C248.061 61.0104 247.982 60.8872 247.965 60.6325C247.903 59.693 247.831 58.7533 247.699 57.8191C247.643 57.4258 247.589 57.0377 247.756 56.6295C247.961 56.1298 247.586 55.3472 247.095 55.1073C246.841 54.9832 246.578 54.8776 246.32 54.7636C246.34 54.5266 246.282 54.2972 246.245 54.0671C246.179 53.6613 246.27 53.3132 246.58 53.0328C246.847 52.7903 247.094 52.5201 247.442 52.384C247.458 52.384 247.475 52.384 247.491 52.384Z" fill="#FECE5C"/>
<path fill-rule="evenodd" clip-rule="evenodd" d="M255.176 64.8393C255.062 65.5214 254.947 66.2031 254.835 66.8855C254.678 67.8457 254.52 68.8058 254.367 69.7667C254.212 70.7435 254.065 71.7218 253.909 72.6984C253.775 73.5322 253.636 74.3651 253.495 75.1977C253.463 75.3854 253.516 75.637 253.37 75.7433C253.219 75.8537 252.978 75.7764 252.777 75.7766C249.584 75.7794 246.39 75.7796 243.197 75.7804C243.024 74.7275 242.849 73.6747 242.679 72.6213C242.392 70.8487 242.108 69.0757 241.822 67.303C241.738 66.7759 241.647 66.2498 241.567 65.7221C241.508 65.336 241.676 65.0711 242.105 64.8455C242.619 64.8402 243.132 64.8349 243.646 64.8295C244.118 64.8295 244.59 64.8295 245.062 64.8295C245.238 64.8513 245.417 64.8099 245.592 64.8613C245.96 64.9692 246.089 65.2586 246.177 65.5952C246.371 66.3342 246.77 66.929 247.44 67.3232C248.012 67.7407 248.66 67.8992 249.356 67.8292C249.721 67.7925 250.089 67.7216 250.409 67.5143C250.579 67.4739 250.713 67.3661 250.845 67.2637C251.363 66.8599 251.773 66.3764 251.928 65.7162C251.954 65.6495 251.988 65.5845 252.006 65.5157C252.137 65.027 252.385 64.8358 252.891 64.8348C253.085 64.8344 253.279 64.8325 253.473 64.8312C253.747 64.8303 254.021 64.8293 254.296 64.8284C254.589 64.832 254.882 64.8356 255.176 64.8393Z" fill="#FFF6DF"/>
<path fill-rule="evenodd" clip-rule="evenodd" d="M247.439 67.3233C246.77 66.9291 246.371 66.3343 246.177 65.5953C246.089 65.2586 245.96 64.9693 245.592 64.8613C245.417 64.81 245.237 64.8513 245.062 64.8296C245.047 64.6189 245.069 64.4103 245.1 64.2023C245.061 63.3642 245.149 62.5286 245.124 61.6882C245.09 60.5514 245.055 59.4156 244.958 58.2829C244.914 57.7734 244.882 57.2607 244.766 56.7596C244.764 56.6707 244.777 56.5778 244.757 56.4933C244.637 56.0054 244.794 55.6206 245.173 55.3082C245.425 55.1004 245.622 54.8108 245.986 54.7717C246.121 55.3857 246.199 56.0089 246.273 56.6321C246.36 57.3594 246.44 58.0876 246.506 58.817C246.535 59.1299 246.544 59.4454 246.56 59.7595C246.583 60.2021 246.566 60.6468 246.566 61.1505C246.764 61.0162 246.889 60.9209 247.024 60.8421C247.163 60.7612 247.251 60.7833 247.25 60.9738C247.244 61.5641 247.293 62.153 247.305 62.7433C247.32 63.4872 247.316 64.2328 247.358 64.9745C247.389 65.5088 247.376 66.0416 247.395 66.5746C247.403 66.8247 247.467 67.0712 247.439 67.3233Z" fill="#FECE5D"/>
<path fill-rule="evenodd" clip-rule="evenodd" d="M245.1 64.2024C245.069 64.4104 245.047 64.6189 245.061 64.8296C244.59 64.8296 244.118 64.8296 243.646 64.8296C243.641 64.7898 243.642 64.7484 243.631 64.7104C243.314 63.6303 243.009 62.547 242.625 61.4872C242.029 59.8408 241.387 58.2145 240.581 56.6576C240.865 56.471 241.164 56.5743 241.46 56.614C241.514 56.6298 241.568 56.6597 241.621 56.6594C242.128 56.6558 242.427 56.9394 242.615 57.3733C242.805 57.8101 242.996 58.2466 243.175 58.6882C243.809 60.2604 244.38 61.8548 244.833 63.4901C244.86 63.5884 244.873 63.6991 244.963 63.7712C244.967 63.928 244.927 64.0992 245.1 64.2024Z" fill="#FE973B"/>
<path fill-rule="evenodd" clip-rule="evenodd" d="M240.581 56.6575C241.387 58.2144 242.029 59.8406 242.625 61.4871C243.009 62.5469 243.314 63.6302 243.631 64.7103C243.642 64.7483 243.641 64.7897 243.646 64.8295C243.132 64.8348 242.619 64.8402 242.105 64.8455C241.512 62.6858 240.759 60.5831 239.838 58.5414C239.666 58.1594 239.686 57.8071 239.915 57.4632C240.11 57.1724 240.224 56.815 240.581 56.6575Z" fill="#FECE5D"/>
<path fill-rule="evenodd" clip-rule="evenodd" d="M245.1 64.2023C244.927 64.0991 244.968 63.9279 244.963 63.771C244.937 63.6043 244.917 63.4366 244.885 63.2712C244.649 62.0535 244.361 60.8477 244.033 59.6519C243.693 58.4147 243.297 57.1954 242.855 55.9903C242.558 55.1791 242.213 54.3882 241.89 53.588C242.207 53.3998 242.519 53.5704 242.833 53.6047C243.378 53.6644 243.718 53.9534 243.91 54.4787C244.173 55.1992 244.449 55.9154 244.703 56.6396C244.717 56.6818 244.705 56.7407 244.766 56.7595C244.882 57.2607 244.914 57.7733 244.958 58.2828C245.055 59.4155 245.09 60.5513 245.124 61.6881C245.149 62.5286 245.061 63.3642 245.1 64.2023Z" fill="#FE983C"/>
<path fill-rule="evenodd" clip-rule="evenodd" d="M241.889 53.5881C242.213 54.3883 242.558 55.1793 242.855 55.9904C243.297 57.1956 243.693 58.4148 244.033 59.6521C244.361 60.8478 244.648 62.0537 244.885 63.2713C244.917 63.4367 244.937 63.6044 244.963 63.7712C244.873 63.6991 244.86 63.5884 244.833 63.4901C244.38 61.8549 243.809 60.2605 243.175 58.6882C242.996 58.2466 242.805 57.8101 242.615 57.3733C242.427 56.9394 242.128 56.6558 241.621 56.6593C241.568 56.6597 241.514 56.6298 241.46 56.614C241.416 56.2814 241.271 55.9801 241.132 55.684C240.88 55.1455 240.91 54.6596 241.287 54.1925C241.468 53.9689 241.582 53.6837 241.889 53.5881Z" fill="#FECE5D"/>
<path fill-rule="evenodd" clip-rule="evenodd" d="M255.176 64.8392C254.882 64.8355 254.589 64.832 254.296 64.8283C254.298 64.796 254.295 64.7625 254.303 64.7316C254.649 63.3329 254.925 61.9212 255.145 60.4966C255.328 59.3114 255.448 58.1205 255.562 56.9282C255.625 56.2601 255.617 55.5889 255.617 54.9183C255.673 54.9166 255.73 54.9074 255.785 54.9145C256.433 54.9976 257.153 55.8451 257.112 56.4885C257.039 57.6574 256.93 58.8238 256.768 59.9835C256.544 61.5812 256.248 63.1664 255.863 64.7338C255.855 64.7647 255.858 64.7981 255.856 64.8302C255.629 64.8333 255.402 64.8362 255.176 64.8392Z" fill="#FE983C"/>
<path fill-rule="evenodd" clip-rule="evenodd" d="M255.617 54.9183C255.617 55.5888 255.625 56.2601 255.562 56.9282C255.448 58.1204 255.328 59.3115 255.145 60.4966C254.925 61.9212 254.649 63.3329 254.303 64.7317C254.295 64.7626 254.298 64.7961 254.296 64.8283C254.022 64.8293 253.747 64.8302 253.473 64.8311C253.414 64.6176 253.427 64.3989 253.426 64.1813C253.424 63.8091 253.435 63.4361 253.416 63.0648C253.381 62.4059 253.327 61.7481 253.281 61.0898C253.328 61.0898 253.376 61.0898 253.424 61.0898C253.447 61.331 253.395 61.5701 253.396 61.8117C253.435 61.7117 253.455 61.6104 253.473 61.5087C253.62 60.694 253.751 59.8766 253.851 59.0548C253.91 58.5679 253.963 58.08 254.006 57.5913C254.049 57.1021 254.063 56.6103 254.112 56.1217C254.143 55.8121 254.3 55.5642 254.565 55.3832C254.696 55.2939 254.868 55.255 254.947 55.0955C255.097 55.1227 255.183 54.984 255.313 54.9514C255.415 54.9259 255.512 54.8987 255.617 54.9183Z" fill="#FECE5C"/>
<path fill-rule="evenodd" clip-rule="evenodd" d="M251.928 65.716C251.773 66.3763 251.363 66.8598 250.845 67.2636C250.713 67.366 250.579 67.4738 250.409 67.5142C250.376 66.8751 250.451 66.2387 250.461 65.6004C250.475 64.7506 250.438 63.9018 250.396 63.0555C250.334 61.7947 250.23 60.535 250.035 59.2847C249.988 58.9809 250.109 58.7004 250.327 58.4688C250.469 58.3178 250.648 58.2015 250.756 58.0178C250.951 57.9467 251.096 57.761 251.326 57.7717C251.468 58.8557 251.661 59.9333 251.741 61.0252C251.8 61.8441 251.876 62.6626 251.91 63.4826C251.94 64.2261 251.924 64.9715 251.928 65.716Z" fill="#FECE5D"/>
<path fill-rule="evenodd" clip-rule="evenodd" d="M251.928 65.716C251.924 64.9716 251.941 64.2261 251.91 63.4826C251.877 62.6625 251.801 61.8442 251.741 61.0252C251.662 59.9334 251.469 58.8557 251.327 57.7717C251.598 57.6814 251.815 57.867 252.058 57.9187C252.125 58.0083 252.229 58.0328 252.325 58.0725C252.717 58.2361 252.978 58.512 253.032 58.9434C253.121 59.6581 253.198 60.3742 253.281 61.0898C253.327 61.7481 253.381 62.4059 253.416 63.0648C253.436 63.4361 253.424 63.8091 253.426 64.1813C253.427 64.3989 253.414 64.6176 253.473 64.8311C253.279 64.8324 253.085 64.8343 252.892 64.8347C252.385 64.8357 252.138 65.0269 252.006 65.5156C251.988 65.5844 251.955 65.6494 251.928 65.716Z" fill="#FE983B"/>
<path fill-rule="evenodd" clip-rule="evenodd" d="M253.281 61.0899C253.198 60.3743 253.121 59.6582 253.031 58.9435C252.977 58.5121 252.717 58.2362 252.325 58.0726C252.229 58.0328 252.124 58.0084 252.058 57.9188C252.026 57.0808 252 56.2426 251.961 55.4049C251.942 54.997 252.099 54.6863 252.419 54.446C252.58 54.325 252.739 54.2003 252.899 54.0788C253.025 53.9839 253.162 53.922 253.325 53.9344C253.442 54.7649 253.492 55.6036 253.509 56.4383C253.54 57.9886 253.574 59.5417 253.424 61.0899C253.376 61.0899 253.329 61.0899 253.281 61.0899Z" fill="#FECE5D"/>
<path fill-rule="evenodd" clip-rule="evenodd" d="M253.424 61.09C253.573 59.5418 253.539 57.9887 253.509 56.4384C253.492 55.6038 253.442 54.7651 253.325 53.9346C253.354 53.9238 253.387 53.8984 253.412 53.9045C253.991 54.0459 254.515 54.2809 254.861 54.798C254.918 54.8841 254.94 54.99 254.946 55.0957C254.868 55.2552 254.696 55.2941 254.565 55.3834C254.3 55.5644 254.143 55.8123 254.112 56.1219C254.063 56.6104 254.049 57.1023 254.006 57.5915C253.963 58.0802 253.91 58.5681 253.85 59.055C253.75 59.8768 253.62 60.6942 253.473 61.5089C253.455 61.6105 253.435 61.7118 253.396 61.8119C253.394 61.5703 253.447 61.3312 253.424 61.09Z" fill="#FE993C"/>
<path fill-rule="evenodd" clip-rule="evenodd" d="M290.498 79.908C290.734 80.0242 290.968 80.1451 291.207 80.2556C291.613 80.4434 291.813 80.7643 291.859 81.2019C291.931 81.8754 292.017 82.5472 292.086 83.221C292.1 83.3559 292.156 83.4207 292.273 83.4648C292.378 83.5046 292.477 83.5616 292.58 83.6057C292.972 83.7715 293.196 84.068 293.253 84.4844C293.302 84.8357 293.334 85.1893 293.374 85.5418C293.266 85.7256 293.087 85.8418 292.945 85.9929C292.726 86.2245 292.606 86.505 292.653 86.8087C292.848 88.0591 292.952 89.3188 293.014 90.5795C293.056 91.4259 293.093 92.2747 293.079 93.1245C293.069 93.7627 292.994 94.399 293.027 95.0382C292.706 95.2454 292.339 95.3164 291.973 95.3531C291.278 95.4231 290.63 95.2646 290.057 94.8471C290.085 94.595 290.021 94.3485 290.012 94.0985C289.994 93.5654 290.007 93.0327 289.976 92.4984C289.933 91.7566 289.938 91.011 289.923 90.2672C289.911 89.6768 289.862 89.0879 289.867 88.4976C289.869 88.3071 289.781 88.285 289.642 88.366C289.507 88.4448 289.381 88.5401 289.184 88.6743C289.184 88.1706 289.201 87.726 289.178 87.2834C289.161 86.9692 289.153 86.6537 289.124 86.3409C289.058 85.6114 288.977 84.8832 288.891 84.1559C288.817 83.5327 288.739 82.9095 288.604 82.2956C288.713 82.2377 288.825 82.2648 288.937 82.2875C289.196 82.4015 289.459 82.5071 289.713 82.6312C290.203 82.8711 290.579 83.6537 290.374 84.1534C290.207 84.5616 290.261 84.9498 290.317 85.343C290.449 86.2772 290.52 87.2169 290.582 88.1565C290.599 88.4112 290.679 88.5343 290.899 88.6213C291.289 88.7753 291.515 89.0526 291.583 89.4845C291.677 90.0897 291.752 90.6978 291.801 91.3061C291.872 92.1903 291.976 93.074 291.96 93.964C291.959 94.0201 291.934 94.0922 292.003 94.1268C292.052 94.1087 292.05 94.074 292.051 94.0435C292.084 93.431 292.144 92.8184 292.143 92.2059C292.143 91.2026 292.167 90.1998 292.116 89.1952C292.064 88.1796 292.011 87.1657 291.913 86.1532C291.83 85.3031 291.718 84.4581 291.57 83.6173C291.51 83.2717 291.421 83.2343 291.139 83.4355C291.087 83.4729 291.044 83.5229 290.996 83.567C290.88 83.675 290.782 83.8071 290.612 83.8632C290.505 82.5297 290.349 81.2133 290.108 79.908C290.238 79.908 290.368 79.908 290.498 79.908Z" fill="#FE983B"/>
<path fill-rule="evenodd" clip-rule="evenodd" d="M298.474 92.3542C298.973 92.4273 299.242 92.785 299.164 93.2744C298.753 95.8497 298.342 98.425 297.931 101C297.77 102.005 297.601 103.008 297.449 104.014C297.392 104.389 297.221 104.66 296.869 104.81C293.4 104.81 289.93 104.81 286.461 104.81C285.9 104.563 285.92 104.027 285.834 103.545C285.82 103.466 285.821 103.385 285.815 103.304C289.008 103.304 292.202 103.303 295.395 103.301C295.596 103.3 295.837 103.378 295.988 103.267C296.134 103.161 296.081 102.909 296.113 102.722C296.254 101.889 296.393 101.056 296.526 100.222C296.683 99.2456 296.829 98.2674 296.985 97.2906C297.138 96.3298 297.296 95.3696 297.453 94.4094C297.565 93.7271 297.68 93.0453 297.793 92.3632C298.02 92.3603 298.247 92.3573 298.474 92.3542Z" fill="#E3D6B5"/>
<path fill-rule="evenodd" clip-rule="evenodd" d="M290.108 79.908C290.349 81.2133 290.505 82.5297 290.612 83.8632C290.782 83.8071 290.88 83.675 290.996 83.567C291.044 83.5229 291.087 83.4729 291.139 83.4355C291.421 83.2343 291.51 83.2717 291.57 83.6173C291.718 84.458 291.83 85.3031 291.913 86.1532C292.011 87.1657 292.064 88.1796 292.116 89.1952C292.166 90.1998 292.143 91.2027 292.143 92.2059C292.143 92.8185 292.084 93.431 292.051 94.0435C292.05 94.074 292.052 94.1087 292.003 94.1268C291.934 94.0922 291.959 94.0201 291.96 93.964C291.976 93.074 291.872 92.1903 291.801 91.3061C291.752 90.6977 291.677 90.0896 291.582 89.4845C291.515 89.0526 291.289 88.7753 290.899 88.6213C290.679 88.5343 290.599 88.4112 290.582 88.1565C290.52 87.2169 290.449 86.2772 290.317 85.343C290.261 84.9498 290.207 84.5617 290.374 84.1534C290.579 83.6537 290.203 82.8711 289.713 82.6312C289.459 82.5071 289.196 82.4015 288.937 82.2875C288.958 82.0506 288.899 81.8212 288.862 81.591C288.797 81.1852 288.888 80.8372 289.197 80.5567C289.465 80.3142 289.712 80.044 290.06 79.908C290.076 79.908 290.092 79.908 290.108 79.908Z" fill="#FECE5C"/>
<path fill-rule="evenodd" clip-rule="evenodd" d="M297.793 92.3632C297.68 93.0453 297.565 93.7271 297.453 94.4094C297.295 95.3696 297.138 96.3297 296.985 97.2906C296.829 98.2675 296.682 99.2457 296.526 100.222C296.393 101.056 296.254 101.889 296.113 102.722C296.081 102.909 296.134 103.161 295.988 103.267C295.836 103.378 295.596 103.3 295.395 103.301C292.202 103.303 289.008 103.304 285.815 103.304C285.642 102.251 285.467 101.199 285.296 100.145C285.009 98.3727 284.726 96.5996 284.44 94.827C284.355 94.2999 284.265 93.7737 284.184 93.246C284.125 92.8599 284.294 92.5951 284.723 92.3694C285.237 92.3641 285.75 92.3588 286.264 92.3535C286.736 92.3535 287.207 92.3535 287.679 92.3535C287.855 92.3752 288.035 92.3339 288.209 92.3852C288.577 92.4932 288.707 92.7825 288.795 93.1192C288.989 93.8581 289.388 94.4529 290.057 94.8471C290.63 95.2647 291.278 95.4231 291.973 95.3531C292.339 95.3164 292.706 95.2455 293.027 95.0383C293.197 94.9979 293.331 94.8901 293.463 94.7877C293.981 94.3838 294.391 93.9004 294.546 93.2401C294.572 93.1734 294.605 93.1085 294.624 93.0396C294.755 92.5509 295.003 92.3597 295.509 92.3587C295.703 92.3583 295.897 92.3564 296.09 92.3551C296.365 92.3542 296.639 92.3533 296.913 92.3523C297.207 92.3559 297.5 92.3595 297.793 92.3632Z" fill="#FFF6DF"/>
<path fill-rule="evenodd" clip-rule="evenodd" d="M290.057 94.8472C289.387 94.4531 288.988 93.8582 288.795 93.1192C288.707 92.7826 288.577 92.4932 288.209 92.3852C288.034 92.3339 287.855 92.3753 287.679 92.3535C287.665 92.1428 287.687 91.9342 287.718 91.7262C287.678 90.8882 287.767 90.0525 287.742 89.2121C287.708 88.0753 287.673 86.9395 287.575 85.8068C287.532 85.2973 287.499 84.7847 287.383 84.2836C287.381 84.1946 287.395 84.1017 287.374 84.0173C287.255 83.5293 287.412 83.1445 287.791 82.8321C288.043 82.6243 288.24 82.3348 288.603 82.2957C288.739 82.9096 288.817 83.5328 288.891 84.156C288.977 84.8833 289.058 85.6116 289.124 86.3409C289.152 86.6538 289.161 86.9693 289.178 87.2834C289.201 87.726 289.183 88.1707 289.183 88.6744C289.381 88.5402 289.507 88.4448 289.642 88.366C289.781 88.2851 289.869 88.3072 289.867 88.4977C289.862 89.0881 289.911 89.6769 289.923 90.2672C289.938 91.0111 289.933 91.7567 289.976 92.4984C290.007 93.0328 289.994 93.5655 290.012 94.0986C290.021 94.3486 290.085 94.5952 290.057 94.8472Z" fill="#FECE5D"/>
<path fill-rule="evenodd" clip-rule="evenodd" d="M287.718 91.7263C287.687 91.9343 287.665 92.1429 287.679 92.3536C287.207 92.3536 286.735 92.3536 286.263 92.3536C286.259 92.3138 286.26 92.2723 286.249 92.2344C285.932 91.1542 285.626 90.0709 285.243 89.0111C284.647 87.3647 284.005 85.7385 283.198 84.1815C283.483 83.9949 283.782 84.0982 284.078 84.1379C284.132 84.1538 284.185 84.1836 284.239 84.1833C284.745 84.1797 285.044 84.4633 285.233 84.8972C285.423 85.334 285.614 85.7705 285.792 86.2121C286.427 87.7844 286.998 89.3787 287.45 91.014C287.478 91.1123 287.491 91.2231 287.58 91.2951C287.585 91.4519 287.545 91.6231 287.718 91.7263Z" fill="#FE973B"/>
<path fill-rule="evenodd" clip-rule="evenodd" d="M283.198 84.1814C284.005 85.7383 284.647 87.3646 285.243 89.011C285.626 90.0708 285.932 91.1541 286.249 92.2342C286.26 92.2722 286.259 92.3136 286.264 92.3534C285.75 92.3588 285.237 92.3641 284.723 92.3694C284.13 90.2097 283.376 88.107 282.456 86.0653C282.283 85.6833 282.303 85.331 282.533 84.9872C282.727 84.6963 282.842 84.3389 283.198 84.1814Z" fill="#FECE5D"/>
<path fill-rule="evenodd" clip-rule="evenodd" d="M287.718 91.7262C287.545 91.623 287.585 91.4519 287.581 91.295C287.555 91.1282 287.535 90.9605 287.502 90.7951C287.266 89.5774 286.979 88.3716 286.651 87.1759C286.311 85.9386 285.915 84.7194 285.473 83.5142C285.176 82.703 284.831 81.9121 284.507 81.1119C284.825 80.9237 285.137 81.0943 285.451 81.1286C285.996 81.1883 286.336 81.4773 286.528 82.0026C286.791 82.7231 287.066 83.4393 287.32 84.1635C287.335 84.2058 287.323 84.2647 287.383 84.2835C287.499 84.7846 287.532 85.2972 287.575 85.8067C287.673 86.9394 287.708 88.0752 287.742 89.212C287.767 90.0525 287.679 90.8881 287.718 91.7262Z" fill="#FE983C"/>
<path fill-rule="evenodd" clip-rule="evenodd" d="M284.507 81.1121C284.83 81.9122 285.175 82.7032 285.473 83.5143C285.915 84.7195 286.311 85.9387 286.65 87.176C286.979 88.3718 287.266 89.5776 287.502 90.7953C287.534 90.9606 287.555 91.1284 287.58 91.2951C287.491 91.2231 287.478 91.1123 287.45 91.014C286.998 89.3788 286.427 87.7844 285.792 86.2121C285.614 85.7705 285.423 85.334 285.233 84.8972C285.044 84.4633 284.745 84.1797 284.239 84.1833C284.185 84.1836 284.131 84.1538 284.078 84.1379C284.033 83.8053 283.888 83.504 283.75 83.208C283.498 82.6694 283.528 82.1835 283.905 81.7164C284.085 81.4928 284.2 81.2076 284.507 81.1121Z" fill="#FECE5D"/>
<path fill-rule="evenodd" clip-rule="evenodd" d="M297.793 92.3632C297.5 92.3595 297.207 92.3559 296.914 92.3522C296.916 92.32 296.913 92.2864 296.921 92.2556C297.266 90.8568 297.542 89.4451 297.763 88.0205C297.946 86.8354 298.065 85.6444 298.179 84.4522C298.243 83.7841 298.235 83.1128 298.234 82.4423C298.291 82.4406 298.348 82.4314 298.403 82.4384C299.051 82.5215 299.77 83.3691 299.73 84.0124C299.656 85.1813 299.548 86.3477 299.385 87.5074C299.162 89.1052 298.866 90.6903 298.481 92.2578C298.473 92.2886 298.476 92.322 298.473 92.3541C298.247 92.3572 298.02 92.3602 297.793 92.3632Z" fill="#FE983C"/>
<path fill-rule="evenodd" clip-rule="evenodd" d="M298.234 82.4423C298.235 83.1128 298.243 83.784 298.179 84.4522C298.065 85.6444 297.946 86.8354 297.763 88.0205C297.542 89.4452 297.266 90.8568 296.921 92.2556C296.913 92.2865 296.916 92.32 296.914 92.3522C296.639 92.3532 296.365 92.3541 296.091 92.3551C296.032 92.1416 296.045 91.9229 296.044 91.7052C296.042 91.333 296.053 90.96 296.033 90.5887C295.999 89.9298 295.944 89.272 295.898 88.6137C295.946 88.6138 295.994 88.6138 296.042 88.6138C296.065 88.855 296.012 89.094 296.014 89.3356C296.052 89.2356 296.072 89.1343 296.091 89.0326C296.238 88.2179 296.368 87.4006 296.468 86.5788C296.527 86.0918 296.581 85.6039 296.624 85.1153C296.666 84.6261 296.681 84.1342 296.73 83.6456C296.761 83.336 296.918 83.0881 297.183 82.9072C297.313 82.8179 297.486 82.7789 297.564 82.6194C297.715 82.6466 297.801 82.508 297.931 82.4754C298.032 82.4498 298.13 82.4226 298.234 82.4423Z" fill="#FECE5C"/>
<path fill-rule="evenodd" clip-rule="evenodd" d="M294.545 93.2402C294.391 93.9005 293.981 94.3839 293.462 94.7877C293.331 94.8901 293.196 94.9979 293.026 95.0383C292.994 94.3992 293.068 93.7629 293.079 93.1246C293.093 92.2748 293.056 91.426 293.014 90.5796C292.952 89.3189 292.847 88.0592 292.653 86.8088C292.605 86.5051 292.726 86.2246 292.944 85.993C293.087 85.8419 293.266 85.7257 293.374 85.542C293.568 85.4708 293.714 85.2852 293.944 85.2958C294.086 86.3799 294.279 87.4575 294.358 88.5494C294.418 89.3683 294.494 90.1867 294.528 91.0068C294.558 91.7502 294.541 92.4957 294.545 93.2402Z" fill="#FECE5D"/>
<path fill-rule="evenodd" clip-rule="evenodd" d="M294.546 93.24C294.542 92.4955 294.558 91.75 294.528 91.0066C294.494 90.1865 294.418 89.3681 294.359 88.5492C294.279 87.4573 294.087 86.3796 293.944 85.2956C294.216 85.2054 294.432 85.391 294.675 85.4427C294.742 85.5322 294.847 85.5567 294.942 85.5964C295.335 85.7601 295.595 86.0359 295.649 86.4673C295.739 87.182 295.816 87.8981 295.899 88.6137C295.945 89.272 295.999 89.9298 296.034 90.5887C296.053 90.96 296.042 91.333 296.044 91.7052C296.045 91.9229 296.032 92.1416 296.091 92.3551C295.897 92.3563 295.703 92.3582 295.509 92.3586C295.003 92.3596 294.755 92.5508 294.624 93.0395C294.605 93.1083 294.572 93.1733 294.546 93.24Z" fill="#FE983B"/>
<path fill-rule="evenodd" clip-rule="evenodd" d="M295.898 88.6138C295.816 87.8982 295.739 87.1821 295.649 86.4674C295.595 86.0361 295.334 85.7602 294.942 85.5965C294.847 85.5568 294.742 85.5323 294.675 85.4428C294.644 84.6047 294.618 83.7665 294.579 82.9289C294.56 82.521 294.717 82.2102 295.037 81.97C295.198 81.8489 295.356 81.7243 295.517 81.6027C295.643 81.5078 295.78 81.446 295.943 81.4584C296.06 82.2889 296.11 83.1276 296.126 83.9622C296.157 85.5125 296.191 87.0656 296.042 88.6138C295.994 88.6138 295.946 88.6138 295.898 88.6138Z" fill="#FECE5D"/>
<path fill-rule="evenodd" clip-rule="evenodd" d="M296.041 88.6139C296.191 87.0657 296.157 85.5126 296.126 83.9624C296.11 83.1277 296.06 82.289 295.942 81.4585C295.972 81.4478 296.004 81.4223 296.029 81.4284C296.608 81.5698 297.132 81.8048 297.478 82.3219C297.536 82.408 297.557 82.5139 297.564 82.6196C297.486 82.7791 297.313 82.818 297.182 82.9073C296.917 83.0883 296.76 83.3362 296.73 83.6458C296.681 84.1344 296.666 84.6262 296.624 85.1154C296.581 85.6041 296.527 86.0921 296.468 86.5789C296.368 87.4007 296.238 88.2181 296.091 89.0328C296.072 89.1344 296.052 89.2357 296.014 89.3358C296.012 89.0943 296.065 88.8551 296.041 88.6139Z" fill="#FE993C"/>
<path fill-rule="evenodd" clip-rule="evenodd" d="M247.88 109.208C248.116 109.324 248.351 109.445 248.59 109.555C248.995 109.743 249.195 110.064 249.242 110.501C249.313 111.175 249.4 111.847 249.468 112.521C249.482 112.655 249.538 112.72 249.655 112.764C249.76 112.804 249.859 112.861 249.963 112.905C250.354 113.071 250.578 113.368 250.635 113.784C250.684 114.135 250.717 114.489 250.756 114.841C250.648 115.025 250.469 115.141 250.327 115.292C250.109 115.524 249.988 115.805 250.035 116.108C250.23 117.359 250.334 118.618 250.397 119.879C250.438 120.725 250.475 121.574 250.461 122.424C250.451 123.062 250.376 123.699 250.409 124.338C250.089 124.545 249.721 124.616 249.356 124.653C248.66 124.723 248.013 124.564 247.44 124.147C247.467 123.895 247.403 123.648 247.395 123.398C247.376 122.865 247.389 122.332 247.359 121.798C247.316 121.056 247.32 120.311 247.305 119.567C247.293 118.976 247.244 118.388 247.25 117.797C247.251 117.607 247.163 117.585 247.024 117.666C246.889 117.744 246.764 117.84 246.566 117.974C246.566 117.47 246.583 117.026 246.56 116.583C246.544 116.269 246.535 115.953 246.506 115.64C246.44 114.911 246.36 114.183 246.273 113.455C246.199 112.832 246.121 112.209 245.986 111.595C246.096 111.537 246.208 111.564 246.32 111.587C246.578 111.701 246.841 111.807 247.095 111.931C247.586 112.171 247.961 112.953 247.756 113.453C247.589 113.861 247.643 114.249 247.699 114.643C247.831 115.577 247.903 116.516 247.965 117.456C247.982 117.711 248.061 117.834 248.282 117.921C248.672 118.075 248.897 118.352 248.965 118.784C249.06 119.389 249.134 119.997 249.183 120.606C249.254 121.49 249.359 122.374 249.342 123.264C249.341 123.32 249.317 123.392 249.385 123.426C249.435 123.408 249.432 123.374 249.434 123.343C249.467 122.731 249.526 122.118 249.526 121.505C249.525 120.502 249.549 119.499 249.498 118.495C249.447 117.479 249.393 116.465 249.295 115.453C249.213 114.603 249.1 113.758 248.953 112.917C248.892 112.571 248.804 112.534 248.522 112.735C248.469 112.772 248.426 112.822 248.379 112.867C248.263 112.975 248.165 113.107 247.994 113.163C247.887 111.829 247.732 110.513 247.491 109.208C247.621 109.208 247.75 109.208 247.88 109.208Z" fill="#FE983B"/>
<path fill-rule="evenodd" clip-rule="evenodd" d="M255.856 121.654C256.356 121.727 256.624 122.085 256.546 122.574C256.135 125.149 255.725 127.725 255.313 130.3C255.153 131.304 254.984 132.307 254.831 133.313C254.774 133.688 254.604 133.96 254.251 134.109C250.782 134.109 247.313 134.109 243.843 134.109C243.283 133.862 243.302 133.327 243.216 132.845C243.202 132.766 243.203 132.684 243.197 132.604C246.391 132.603 249.584 132.603 252.777 132.6C252.978 132.6 253.219 132.677 253.37 132.567C253.516 132.46 253.463 132.209 253.495 132.021C253.636 131.189 253.775 130.356 253.909 129.522C254.065 128.545 254.212 127.567 254.367 126.59C254.52 125.629 254.678 124.669 254.835 123.709C254.947 123.027 255.062 122.345 255.176 121.663C255.402 121.66 255.629 121.657 255.856 121.654Z" fill="#E3D6B5"/>
<path fill-rule="evenodd" clip-rule="evenodd" d="M247.491 109.208C247.732 110.513 247.887 111.829 247.994 113.163C248.165 113.107 248.263 112.975 248.379 112.867C248.426 112.822 248.469 112.772 248.522 112.735C248.804 112.534 248.892 112.571 248.953 112.917C249.1 113.758 249.213 114.603 249.295 115.453C249.393 116.465 249.447 117.479 249.498 118.495C249.549 119.499 249.525 120.502 249.526 121.505C249.526 122.118 249.467 122.731 249.434 123.343C249.432 123.374 249.435 123.408 249.385 123.426C249.316 123.392 249.341 123.32 249.342 123.264C249.359 122.374 249.254 121.49 249.183 120.606C249.134 119.997 249.06 119.389 248.965 118.784C248.897 118.352 248.672 118.075 248.282 117.921C248.061 117.834 247.982 117.711 247.965 117.456C247.903 116.516 247.831 115.577 247.699 114.643C247.643 114.249 247.589 113.861 247.756 113.453C247.961 112.953 247.586 112.171 247.095 111.931C246.841 111.807 246.578 111.701 246.32 111.587C246.34 111.35 246.282 111.121 246.245 110.891C246.179 110.485 246.27 110.137 246.58 109.856C246.847 109.614 247.094 109.344 247.442 109.208C247.458 109.208 247.475 109.208 247.491 109.208Z" fill="#FECE5C"/>
<path fill-rule="evenodd" clip-rule="evenodd" d="M255.176 121.663C255.062 122.345 254.947 123.027 254.835 123.709C254.678 124.669 254.52 125.629 254.367 126.59C254.212 127.567 254.065 128.545 253.909 129.522C253.775 130.356 253.636 131.189 253.495 132.021C253.463 132.209 253.516 132.46 253.37 132.567C253.219 132.677 252.978 132.6 252.777 132.6C249.584 132.603 246.39 132.603 243.197 132.604C243.024 131.551 242.849 130.498 242.679 129.445C242.392 127.672 242.108 125.899 241.822 124.127C241.738 123.599 241.647 123.073 241.567 122.546C241.508 122.159 241.676 121.895 242.105 121.669C242.619 121.664 243.132 121.658 243.646 121.653C244.118 121.653 244.59 121.653 245.062 121.653C245.238 121.675 245.417 121.633 245.592 121.685C245.96 121.793 246.089 122.082 246.177 122.419C246.371 123.158 246.77 123.752 247.44 124.147C248.012 124.564 248.66 124.723 249.356 124.653C249.721 124.616 250.089 124.545 250.409 124.338C250.579 124.297 250.713 124.19 250.845 124.087C251.363 123.683 251.773 123.2 251.928 122.54C251.954 122.473 251.988 122.408 252.006 122.339C252.137 121.85 252.385 121.659 252.891 121.658C253.085 121.658 253.279 121.656 253.473 121.655C253.747 121.654 254.021 121.653 254.296 121.652C254.589 121.655 254.882 121.659 255.176 121.663Z" fill="#FFF6DF"/>
<path fill-rule="evenodd" clip-rule="evenodd" d="M247.439 124.147C246.77 123.753 246.371 123.158 246.177 122.419C246.089 122.082 245.96 121.793 245.592 121.685C245.417 121.634 245.237 121.675 245.062 121.653C245.047 121.442 245.069 121.234 245.1 121.026C245.061 120.188 245.149 119.352 245.124 118.512C245.09 117.375 245.055 116.239 244.958 115.106C244.914 114.597 244.882 114.084 244.766 113.583C244.764 113.494 244.777 113.401 244.757 113.317C244.637 112.829 244.794 112.444 245.173 112.132C245.425 111.924 245.622 111.634 245.986 111.595C246.121 112.209 246.199 112.832 246.273 113.456C246.36 114.183 246.44 114.911 246.506 115.641C246.535 115.953 246.544 116.269 246.56 116.583C246.583 117.026 246.566 117.47 246.566 117.974C246.764 117.84 246.889 117.744 247.024 117.666C247.163 117.585 247.251 117.607 247.25 117.797C247.244 118.388 247.293 118.976 247.305 119.567C247.32 120.311 247.316 121.056 247.358 121.798C247.389 122.332 247.376 122.865 247.395 123.398C247.403 123.648 247.467 123.895 247.439 124.147Z" fill="#FECE5D"/>
<path fill-rule="evenodd" clip-rule="evenodd" d="M245.1 121.026C245.069 121.234 245.047 121.442 245.061 121.653C244.59 121.653 244.118 121.653 243.646 121.653C243.641 121.613 243.642 121.572 243.631 121.534C243.314 120.454 243.009 119.371 242.625 118.311C242.029 116.664 241.387 115.038 240.581 113.481C240.865 113.294 241.164 113.398 241.46 113.438C241.514 113.453 241.568 113.483 241.621 113.483C242.128 113.479 242.427 113.763 242.615 114.197C242.805 114.634 242.996 115.07 243.175 115.512C243.809 117.084 244.38 118.678 244.833 120.314C244.86 120.412 244.873 120.523 244.963 120.595C244.967 120.751 244.927 120.923 245.1 121.026Z" fill="#FE973B"/>
<path fill-rule="evenodd" clip-rule="evenodd" d="M240.581 113.481C241.387 115.038 242.029 116.664 242.625 118.311C243.009 119.37 243.314 120.454 243.631 121.534C243.642 121.572 243.641 121.613 243.646 121.653C243.132 121.658 242.619 121.664 242.105 121.669C241.512 119.509 240.759 117.407 239.838 115.365C239.666 114.983 239.686 114.631 239.915 114.287C240.11 113.996 240.224 113.638 240.581 113.481Z" fill="#FECE5D"/>
<path fill-rule="evenodd" clip-rule="evenodd" d="M245.1 121.026C244.927 120.923 244.968 120.751 244.963 120.595C244.937 120.428 244.917 120.26 244.885 120.095C244.649 118.877 244.361 117.671 244.033 116.475C243.693 115.238 243.297 114.019 242.855 112.814C242.558 112.003 242.213 111.212 241.89 110.411C242.207 110.223 242.519 110.394 242.833 110.428C243.378 110.488 243.718 110.777 243.91 111.302C244.173 112.023 244.449 112.739 244.703 113.463C244.717 113.505 244.705 113.564 244.766 113.583C244.882 114.084 244.914 114.597 244.958 115.106C245.055 116.239 245.09 117.375 245.124 118.512C245.149 119.352 245.061 120.188 245.1 121.026Z" fill="#FE983C"/>
<path fill-rule="evenodd" clip-rule="evenodd" d="M241.889 110.412C242.213 111.212 242.558 112.003 242.855 112.814C243.297 114.019 243.693 115.238 244.033 116.476C244.361 117.671 244.648 118.877 244.885 120.095C244.917 120.26 244.937 120.428 244.963 120.595C244.873 120.523 244.86 120.412 244.833 120.314C244.38 118.678 243.809 117.084 243.175 115.512C242.996 115.07 242.805 114.634 242.615 114.197C242.427 113.763 242.128 113.479 241.621 113.483C241.568 113.483 241.514 113.453 241.46 113.438C241.416 113.105 241.271 112.804 241.132 112.508C240.88 111.969 240.91 111.483 241.287 111.016C241.468 110.792 241.582 110.507 241.889 110.412Z" fill="#FECE5D"/>
<path fill-rule="evenodd" clip-rule="evenodd" d="M255.176 121.663C254.882 121.659 254.589 121.655 254.296 121.652C254.298 121.62 254.295 121.586 254.303 121.555C254.649 120.156 254.925 118.745 255.145 117.32C255.328 116.135 255.448 114.944 255.562 113.752C255.625 113.084 255.617 112.412 255.617 111.742C255.673 111.74 255.73 111.731 255.785 111.738C256.433 111.821 257.153 112.669 257.112 113.312C257.039 114.481 256.93 115.647 256.768 116.807C256.544 118.405 256.248 119.99 255.863 121.557C255.855 121.588 255.858 121.622 255.856 121.654C255.629 121.657 255.402 121.66 255.176 121.663Z" fill="#FE983C"/>
<path fill-rule="evenodd" clip-rule="evenodd" d="M255.617 111.742C255.617 112.412 255.625 113.084 255.562 113.752C255.448 114.944 255.328 116.135 255.145 117.32C254.925 118.745 254.649 120.156 254.303 121.555C254.295 121.586 254.298 121.62 254.296 121.652C254.022 121.653 253.747 121.654 253.473 121.655C253.414 121.441 253.427 121.222 253.426 121.005C253.424 120.633 253.435 120.26 253.416 119.888C253.381 119.229 253.327 118.572 253.281 117.913C253.328 117.913 253.376 117.913 253.424 117.913C253.447 118.155 253.395 118.394 253.396 118.635C253.435 118.535 253.455 118.434 253.473 118.332C253.62 117.517 253.751 116.7 253.851 115.878C253.91 115.391 253.963 114.903 254.006 114.415C254.049 113.926 254.063 113.434 254.112 112.945C254.143 112.636 254.3 112.388 254.565 112.207C254.696 112.117 254.868 112.079 254.947 111.919C255.097 111.946 255.183 111.808 255.313 111.775C255.415 111.749 255.512 111.722 255.617 111.742Z" fill="#FECE5C"/>
<path fill-rule="evenodd" clip-rule="evenodd" d="M251.928 122.54C251.773 123.2 251.363 123.683 250.845 124.087C250.713 124.189 250.579 124.297 250.409 124.338C250.376 123.699 250.451 123.062 250.461 122.424C250.475 121.574 250.438 120.725 250.396 119.879C250.334 118.618 250.23 117.359 250.035 116.108C249.988 115.804 250.109 115.524 250.327 115.292C250.469 115.141 250.648 115.025 250.756 114.841C250.951 114.77 251.096 114.585 251.326 114.595C251.468 115.679 251.661 116.757 251.741 117.849C251.8 118.668 251.876 119.486 251.91 120.306C251.94 121.05 251.924 121.795 251.928 122.54Z" fill="#FECE5D"/>
<path fill-rule="evenodd" clip-rule="evenodd" d="M251.928 122.54C251.924 121.795 251.941 121.05 251.91 120.306C251.877 119.486 251.801 118.668 251.741 117.849C251.662 116.757 251.469 115.679 251.327 114.595C251.598 114.505 251.815 114.691 252.058 114.742C252.125 114.832 252.229 114.856 252.325 114.896C252.717 115.06 252.978 115.335 253.032 115.767C253.121 116.482 253.198 117.198 253.281 117.913C253.327 118.572 253.381 119.229 253.416 119.888C253.436 120.26 253.424 120.633 253.426 121.005C253.427 121.222 253.414 121.441 253.473 121.655C253.279 121.656 253.085 121.658 252.892 121.658C252.385 121.659 252.138 121.85 252.006 122.339C251.988 122.408 251.955 122.473 251.928 122.54Z" fill="#FE983B"/>
<path fill-rule="evenodd" clip-rule="evenodd" d="M253.281 117.913C253.198 117.198 253.121 116.482 253.031 115.767C252.977 115.336 252.717 115.06 252.325 114.896C252.229 114.856 252.124 114.832 252.058 114.742C252.026 113.904 252 113.066 251.961 112.228C251.942 111.821 252.099 111.51 252.419 111.27C252.58 111.148 252.739 111.024 252.899 110.902C253.025 110.807 253.162 110.746 253.325 110.758C253.442 111.588 253.492 112.427 253.509 113.262C253.54 114.812 253.574 116.365 253.424 117.913C253.376 117.913 253.329 117.913 253.281 117.913Z" fill="#FECE5D"/>
<path fill-rule="evenodd" clip-rule="evenodd" d="M253.424 117.913C253.573 116.365 253.539 114.812 253.509 113.262C253.492 112.427 253.442 111.589 253.325 110.758C253.354 110.747 253.387 110.722 253.412 110.728C253.991 110.869 254.515 111.104 254.861 111.622C254.918 111.708 254.94 111.813 254.946 111.919C254.868 112.079 254.696 112.118 254.565 112.207C254.3 112.388 254.143 112.636 254.112 112.945C254.063 113.434 254.049 113.926 254.006 114.415C253.963 114.904 253.91 115.392 253.85 115.878C253.75 116.7 253.62 117.518 253.473 118.332C253.455 118.434 253.435 118.535 253.396 118.635C253.394 118.394 253.447 118.155 253.424 117.913Z" fill="#FE993C"/>
<path fill-rule="evenodd" clip-rule="evenodd" d="M280.628 173.134C281.299 173.464 281.964 173.807 282.642 174.12C283.794 174.653 284.361 175.564 284.493 176.806C284.695 178.717 284.942 180.624 285.137 182.536C285.176 182.919 285.335 183.103 285.666 183.228C285.964 183.341 286.245 183.503 286.54 183.628C287.649 184.099 288.285 184.94 288.449 186.122C288.586 187.119 288.679 188.122 288.791 189.123C288.485 189.644 287.977 189.974 287.573 190.403C286.953 191.06 286.611 191.856 286.745 192.718C287.297 196.267 287.594 199.842 287.771 203.42C287.889 205.822 287.994 208.231 287.954 210.642C287.925 212.454 287.713 214.26 287.806 216.074C286.897 216.662 285.853 216.863 284.816 216.967C282.843 217.166 281.005 216.716 279.379 215.531C279.457 214.816 279.276 214.116 279.252 213.407C279.199 211.894 279.236 210.382 279.149 208.865C279.027 206.76 279.04 204.644 278.997 202.533C278.963 200.858 278.825 199.187 278.84 197.511C278.844 196.971 278.594 196.908 278.2 197.138C277.816 197.361 277.46 197.632 276.899 198.013C276.899 196.583 276.948 195.321 276.883 194.065C276.836 193.174 276.811 192.278 276.73 191.39C276.542 189.32 276.314 187.254 276.069 185.19C275.858 183.421 275.638 181.652 275.253 179.91C275.565 179.746 275.883 179.823 276.2 179.887C276.934 180.21 277.68 180.51 278.4 180.862C279.793 181.543 280.858 183.764 280.278 185.182C279.804 186.341 279.956 187.443 280.115 188.558C280.49 191.21 280.693 193.877 280.869 196.543C280.917 197.266 281.143 197.616 281.768 197.862C282.875 198.299 283.515 199.086 283.707 200.312C283.977 202.03 284.187 203.755 284.326 205.482C284.528 207.991 284.825 210.499 284.779 213.025C284.775 213.184 284.706 213.389 284.9 213.487C285.041 213.436 285.034 213.337 285.038 213.251C285.132 211.512 285.299 209.774 285.299 208.036C285.298 205.188 285.365 202.342 285.221 199.491C285.075 196.609 284.924 193.731 284.645 190.858C284.411 188.445 284.091 186.047 283.673 183.661C283.5 182.68 283.25 182.574 282.45 183.145C282.301 183.251 282.178 183.393 282.044 183.518C281.714 183.825 281.436 184.2 280.952 184.359C280.649 180.574 280.208 176.838 279.524 173.134C279.892 173.134 280.261 173.134 280.628 173.134Z" fill="#FE983B"/>
<path fill-rule="evenodd" clip-rule="evenodd" d="M303.264 208.456C304.682 208.664 305.443 209.679 305.222 211.068C304.056 218.376 302.891 225.685 301.723 232.993C301.268 235.844 300.788 238.691 300.356 241.546C300.195 242.61 299.71 243.38 298.71 243.805C288.864 243.805 279.018 243.805 269.172 243.805C267.581 243.104 267.636 241.585 267.392 240.217C267.353 239.993 267.355 239.761 267.338 239.533C276.401 239.531 285.464 239.53 294.526 239.522C295.097 239.521 295.78 239.741 296.21 239.427C296.624 239.126 296.474 238.412 296.564 237.879C296.964 235.516 297.359 233.152 297.738 230.786C298.181 228.014 298.598 225.238 299.039 222.466C299.473 219.739 299.92 217.014 300.367 214.289C300.685 212.352 301.011 210.417 301.333 208.482C301.977 208.473 302.62 208.465 303.264 208.456Z" fill="#E3D6B5"/>
<path fill-rule="evenodd" clip-rule="evenodd" d="M279.524 173.134C280.208 176.838 280.65 180.574 280.953 184.359C281.437 184.2 281.715 183.825 282.044 183.518C282.179 183.393 282.302 183.251 282.45 183.145C283.25 182.574 283.501 182.68 283.673 183.661C284.091 186.047 284.411 188.445 284.645 190.858C284.924 193.731 285.075 196.609 285.221 199.491C285.365 202.342 285.298 205.188 285.299 208.036C285.3 209.774 285.132 211.512 285.039 213.251C285.034 213.337 285.041 213.436 284.901 213.487C284.706 213.389 284.776 213.184 284.779 213.025C284.825 210.499 284.529 207.991 284.327 205.482C284.188 203.755 283.977 202.03 283.708 200.312C283.516 199.086 282.876 198.299 281.769 197.862C281.144 197.616 280.917 197.266 280.87 196.543C280.694 193.877 280.49 191.21 280.115 188.558C279.957 187.443 279.804 186.341 280.278 185.182C280.859 183.764 279.793 181.543 278.401 180.862C277.681 180.51 276.935 180.21 276.201 179.887C276.258 179.215 276.093 178.563 275.988 177.91C275.802 176.759 276.061 175.771 276.939 174.975C277.699 174.287 278.4 173.52 279.387 173.134C279.432 173.134 279.478 173.134 279.524 173.134Z" fill="#FECE5C"/>
<path fill-rule="evenodd" clip-rule="evenodd" d="M301.334 208.482C301.011 210.418 300.685 212.353 300.367 214.289C299.921 217.014 299.473 219.739 299.039 222.466C298.598 225.238 298.181 228.015 297.738 230.787C297.359 233.153 296.964 235.517 296.564 237.879C296.474 238.412 296.624 239.126 296.21 239.428C295.78 239.741 295.097 239.522 294.527 239.522C285.464 239.53 276.401 239.531 267.339 239.533C266.848 236.545 266.351 233.557 265.867 230.568C265.053 225.537 264.248 220.505 263.437 215.474C263.196 213.978 262.939 212.485 262.711 210.988C262.544 209.892 263.022 209.14 264.24 208.5C265.698 208.485 267.155 208.47 268.612 208.454C269.952 208.454 271.291 208.454 272.63 208.454C273.129 208.516 273.638 208.399 274.134 208.544C275.179 208.851 275.546 209.672 275.796 210.628C276.346 212.725 277.478 214.413 279.379 215.532C281.005 216.717 282.843 217.166 284.816 216.968C285.853 216.863 286.896 216.662 287.806 216.074C288.288 215.959 288.67 215.653 289.043 215.363C290.514 214.217 291.678 212.845 292.117 210.971C292.191 210.782 292.286 210.597 292.338 210.402C292.711 209.015 293.413 208.472 294.851 208.469C295.401 208.468 295.951 208.463 296.501 208.459C297.28 208.457 298.058 208.454 298.837 208.451C299.669 208.461 300.501 208.472 301.334 208.482Z" fill="#FFF6DF"/>
<path fill-rule="evenodd" clip-rule="evenodd" d="M279.379 215.531C277.478 214.413 276.346 212.725 275.796 210.627C275.546 209.672 275.179 208.851 274.134 208.544C273.638 208.399 273.13 208.516 272.63 208.454C272.59 207.856 272.652 207.264 272.74 206.674C272.628 204.296 272.878 201.924 272.807 199.539C272.712 196.313 272.612 193.089 272.336 189.875C272.211 188.429 272.12 186.974 271.791 185.552C271.785 185.299 271.823 185.036 271.765 184.796C271.426 183.411 271.871 182.319 272.947 181.432C273.663 180.843 274.222 180.021 275.253 179.91C275.638 181.652 275.859 183.421 276.069 185.19C276.314 187.254 276.543 189.321 276.731 191.39C276.811 192.278 276.836 193.174 276.883 194.065C276.948 195.321 276.899 196.583 276.899 198.013C277.461 197.632 277.817 197.361 278.2 197.138C278.594 196.908 278.845 196.971 278.84 197.511C278.825 199.187 278.963 200.858 278.998 202.533C279.04 204.645 279.027 206.761 279.149 208.865C279.236 210.382 279.199 211.894 279.252 213.407C279.276 214.116 279.457 214.816 279.379 215.531Z" fill="#FECE5D"/>
<path fill-rule="evenodd" clip-rule="evenodd" d="M272.739 206.674C272.652 207.265 272.59 207.856 272.63 208.454C271.291 208.454 269.951 208.454 268.612 208.454C268.599 208.341 268.601 208.224 268.57 208.116C267.67 205.051 266.804 201.976 265.715 198.968C264.024 194.296 262.202 189.681 259.913 185.262C260.721 184.732 261.569 185.026 262.409 185.138C262.562 185.183 262.715 185.268 262.867 185.267C264.304 185.257 265.153 186.062 265.688 187.293C266.227 188.533 266.769 189.771 267.275 191.025C269.076 195.487 270.696 200.012 271.981 204.653C272.058 204.932 272.095 205.246 272.349 205.45C272.363 205.895 272.248 206.381 272.739 206.674Z" fill="#FE973B"/>
<path fill-rule="evenodd" clip-rule="evenodd" d="M259.913 185.262C262.203 189.681 264.024 194.296 265.715 198.968C266.804 201.976 267.671 205.051 268.57 208.116C268.602 208.224 268.599 208.341 268.612 208.454C267.155 208.469 265.698 208.485 264.24 208.5C262.556 202.37 260.418 196.403 257.805 190.609C257.316 189.525 257.373 188.524 258.025 187.549C258.576 186.723 258.902 185.709 259.913 185.262Z" fill="#FECE5D"/>
<path fill-rule="evenodd" clip-rule="evenodd" d="M272.74 206.674C272.249 206.381 272.363 205.895 272.35 205.45C272.277 204.977 272.219 204.501 272.128 204.031C271.458 200.576 270.642 197.154 269.71 193.76C268.746 190.249 267.623 186.788 266.369 183.368C265.525 181.066 264.545 178.821 263.628 176.55C264.529 176.016 265.415 176.5 266.305 176.598C267.853 176.767 268.817 177.587 269.361 179.078C270.108 181.123 270.891 183.156 271.611 185.211C271.653 185.331 271.618 185.498 271.79 185.551C272.12 186.974 272.211 188.428 272.335 189.874C272.612 193.089 272.711 196.312 272.807 199.539C272.878 201.924 272.628 204.295 272.74 206.674Z" fill="#FE983C"/>
<path fill-rule="evenodd" clip-rule="evenodd" d="M263.628 176.551C264.546 178.822 265.525 181.066 266.369 183.368C267.623 186.789 268.746 190.249 269.711 193.76C270.642 197.154 271.458 200.576 272.128 204.032C272.219 204.501 272.277 204.977 272.35 205.45C272.096 205.246 272.058 204.932 271.981 204.653C270.697 200.012 269.076 195.487 267.276 191.025C266.77 189.772 266.227 188.533 265.688 187.293C265.153 186.062 264.304 185.257 262.867 185.267C262.715 185.268 262.562 185.183 262.409 185.138C262.284 184.194 261.872 183.339 261.479 182.499C260.764 180.971 260.849 179.592 261.919 178.266C262.431 177.631 262.756 176.822 263.628 176.551Z" fill="#FECE5D"/>
<path fill-rule="evenodd" clip-rule="evenodd" d="M301.334 208.482C300.502 208.472 299.67 208.461 298.837 208.451C298.843 208.359 298.836 208.264 298.858 208.177C299.839 204.207 300.622 200.201 301.247 196.158C301.767 192.794 302.106 189.414 302.429 186.031C302.611 184.135 302.587 182.229 302.585 180.326C302.745 180.322 302.908 180.296 303.065 180.316C304.903 180.551 306.944 182.957 306.83 184.783C306.622 188.1 306.313 191.41 305.853 194.701C305.219 199.236 304.379 203.735 303.284 208.183C303.263 208.271 303.27 208.365 303.264 208.456C302.621 208.465 301.977 208.474 301.334 208.482Z" fill="#FE983C"/>
<path fill-rule="evenodd" clip-rule="evenodd" d="M302.585 180.326C302.587 182.229 302.61 184.134 302.429 186.031C302.106 189.414 301.766 192.794 301.246 196.158C300.621 200.201 299.838 204.207 298.857 208.177C298.836 208.265 298.843 208.36 298.837 208.451C298.058 208.454 297.28 208.456 296.501 208.459C296.335 207.853 296.372 207.232 296.368 206.615C296.362 205.558 296.395 204.5 296.339 203.446C296.24 201.576 296.087 199.709 295.956 197.841C296.092 197.841 296.227 197.841 296.362 197.841C296.429 198.526 296.279 199.204 296.284 199.89C296.393 199.606 296.45 199.318 296.502 199.03C296.92 196.718 297.289 194.398 297.573 192.066C297.741 190.684 297.893 189.299 298.014 187.912C298.135 186.524 298.176 185.128 298.315 183.742C298.403 182.863 298.848 182.159 299.6 181.646C299.972 181.392 300.461 181.282 300.684 180.829C301.112 180.906 301.356 180.513 301.724 180.42C302.012 180.348 302.288 180.271 302.585 180.326Z" fill="#FECE5C"/>
<path fill-rule="evenodd" clip-rule="evenodd" d="M292.117 210.97C291.678 212.844 290.514 214.216 289.043 215.362C288.67 215.653 288.288 215.959 287.806 216.074C287.713 214.26 287.925 212.454 287.954 210.642C287.994 208.231 287.889 205.822 287.771 203.42C287.594 199.842 287.298 196.267 286.745 192.718C286.611 191.856 286.954 191.06 287.573 190.403C287.977 189.974 288.486 189.644 288.791 189.123C289.344 188.921 289.756 188.394 290.41 188.424C290.813 191.501 291.36 194.559 291.586 197.658C291.755 199.982 291.97 202.305 292.066 204.632C292.153 206.742 292.105 208.858 292.117 210.97Z" fill="#FECE5D"/>
<path fill-rule="evenodd" clip-rule="evenodd" d="M292.117 210.97C292.105 208.857 292.153 206.742 292.066 204.632C291.97 202.304 291.755 199.982 291.586 197.658C291.36 194.559 290.813 191.501 290.41 188.424C291.181 188.168 291.794 188.695 292.484 188.841C292.674 189.096 292.971 189.165 293.242 189.278C294.355 189.742 295.095 190.525 295.248 191.749C295.502 193.778 295.722 195.81 295.956 197.841C296.087 199.709 296.24 201.576 296.339 203.446C296.395 204.5 296.362 205.558 296.368 206.615C296.372 207.232 296.335 207.853 296.501 208.459C295.951 208.462 295.401 208.468 294.851 208.469C293.413 208.472 292.712 209.014 292.338 210.401C292.286 210.597 292.192 210.781 292.117 210.97Z" fill="#FE983B"/>
<path fill-rule="evenodd" clip-rule="evenodd" d="M295.956 197.841C295.722 195.81 295.502 193.778 295.248 191.75C295.095 190.525 294.355 189.742 293.242 189.278C292.972 189.165 292.674 189.096 292.484 188.842C292.395 186.463 292.321 184.084 292.21 181.707C292.156 180.549 292.602 179.667 293.51 178.986C293.967 178.642 294.417 178.288 294.873 177.943C295.23 177.674 295.62 177.499 296.081 177.534C296.414 179.891 296.555 182.271 296.603 184.64C296.691 189.039 296.787 193.447 296.362 197.841C296.227 197.841 296.091 197.841 295.956 197.841Z" fill="#FECE5D"/>
<path fill-rule="evenodd" clip-rule="evenodd" d="M296.362 197.841C296.787 193.447 296.69 189.039 296.603 184.64C296.555 182.271 296.414 179.891 296.081 177.534C296.164 177.503 296.257 177.431 296.328 177.448C297.971 177.85 299.458 178.517 300.44 179.984C300.604 180.229 300.665 180.529 300.683 180.829C300.461 181.282 299.972 181.392 299.6 181.646C298.848 182.159 298.403 182.863 298.315 183.741C298.176 185.128 298.135 186.524 298.014 187.912C297.893 189.299 297.741 190.684 297.573 192.066C297.289 194.398 296.92 196.718 296.502 199.03C296.45 199.318 296.393 199.606 296.284 199.89C296.279 199.204 296.429 198.526 296.362 197.841Z" fill="#FE993C"/>
</svg>
