<svg width="566" height="339" viewBox="0 0 566 339" fill="none" xmlns="http://www.w3.org/2000/svg">
<path opacity="0.1" d="M64.3756 13.1285C149.506 -18.4748 236.028 9.46496 294.709 70.3206C353.39 131.176 476.543 28.3177 541.856 89.0742C586.43 130.537 566.014 237.14 504.896 283.314C421.822 346.073 112.337 347.957 60.9877 326.421C-26.7593 289.621 60.428 221.471 19.4685 156.143C-28.8528 79.0709 26.756 27.0943 64.3756 13.1285Z" fill="#51BE5F"/>
<path opacity="0.1" d="M543.565 308.278C500.951 306.195 355.989 309.725 311.901 311.1C267.813 312.475 216.637 309.284 190.054 304.592C163.471 299.9 9.81001 304.991 16.7838 317.608C23.7576 330.225 85.2456 323.253 154.977 328.323C224.707 333.395 381.533 327.689 416.907 328.323C452.281 328.957 484.72 327.055 530.307 324.519C575.895 321.983 568.265 309.485 543.565 308.278Z" fill="#51BE5F"/>
<path d="M347.792 62.5523C359.238 51.6557 378.802 51.9033 378.389 68.4958C377.977 85.0883 379.347 86.6485 384.057 95.3526C400.402 125.554 364.575 123.778 349.634 124.768C334.692 125.759 335.931 97.6095 338.572 82.0076C341.214 66.4057 344.442 65.742 347.792 62.5523Z" fill="black"/>
<path d="M353.128 157.689C349.458 188.508 342.789 211.292 342.046 225.901C341.303 240.513 338.332 298.04 338.332 298.04C338.332 298.04 346.504 297.469 347.247 296.23C347.99 294.992 362.601 262.552 361.858 242.494C361.115 222.436 376.451 191.937 376.451 191.937L372.755 162.013L353.128 157.689Z" fill="black"/>
<path d="M356.652 171.105L350.914 173.507C349.353 183.279 347.623 192.066 346.103 199.86C355.236 205.766 359.954 225.438 361.975 237.465C363.005 224.008 369.355 207.746 373.294 198.753L356.652 171.105Z" fill="black"/>
<path d="M383.154 154.582C383.154 154.582 395.524 170.361 395.136 188.261C394.545 215.51 391.573 223.29 396.744 251.862C398.763 263.021 392.286 299.526 392.286 299.526C392.286 299.526 386.754 299.96 383.782 298.481C384.029 295.798 380.206 252.167 372.76 232.109C369.154 222.397 364.085 195.195 361.361 179.595C358.637 163.993 358.142 160.775 359.132 160.775C360.123 160.775 383.154 154.582 383.154 154.582Z" fill="black"/>
<path d="M312.682 110.761C312.682 110.761 313.231 102.597 312.351 100.074C311.471 97.553 303.877 95.3506 303.877 95.3506C303.877 95.3506 303.547 107.018 304.318 108.448C305.089 109.878 309.601 113.951 309.601 113.951L312.682 110.761Z" fill="#F09959"/>
<path d="M355.385 104.813C337.995 123.53 332.32 131.406 330.999 131.406C326.872 124.12 313.162 108.711 313.162 108.711L307.316 112.469C307.316 112.469 320.824 147.762 329.41 148.127C337.995 148.492 355.444 135.956 355.667 134.516C355.89 133.076 355.385 104.813 355.385 104.813Z" fill="#6DD47A"/>
<path d="M337.249 146.297C345.754 142.834 355.502 135.591 355.667 134.517C355.888 133.078 355.385 104.814 355.385 104.814C351.594 108.894 348.284 112.513 345.413 115.678C342.297 127.278 342.502 139.91 337.249 146.297Z" fill="#51BE5F"/>
<path d="M373.052 92.4912C373.052 92.4912 389.692 100.832 393.325 115.597C396.957 130.362 386.209 148.602 384.888 158.336C383.567 168.07 353.191 169.783 353.191 159.363C353.191 149.375 345.579 128.169 346.009 122.769C347.016 110.096 365.542 94.5715 365.542 94.5715L373.052 92.4912Z" fill="#51BE5F"/>
<path d="M368.216 73.3647L375.36 95.394C375.36 95.394 367.733 101.28 354.678 115.44C355.185 106.018 363.08 95.7456 363.08 95.7456L357.676 74.9431L368.216 73.3647Z" fill="#F09959"/>
<path d="M371.548 83.6386L368.216 73.3628L357.675 74.9411L363.079 95.7437C363.079 95.7437 362.552 96.584 361.773 97.9065C366.864 94.129 369.988 89.427 371.548 83.6386Z" fill="#E38540"/>
<path d="M364.28 78.3357C362.353 85.3458 354.893 89.2059 349.59 87.748C344.287 86.2902 343.154 80.0693 345.081 73.0591C347.007 66.049 352.867 61.5468 358.17 63.0046C363.471 64.4608 366.207 71.3256 364.28 78.3357Z" fill="#F09959"/>
<path d="M351.863 149.485C354.176 164.145 345.588 195.505 345.588 195.505C345.588 195.505 350.709 196.669 366.064 195.183C381.418 193.697 388.187 178.373 390.498 177.945C392.81 177.518 393.997 192.207 395.138 193.367C396.277 194.528 396.452 174.818 393.47 167.07C388.187 153.336 389.222 147.509 391.197 139.187C394.707 124.389 351.863 149.485 351.863 149.485Z" fill="#51BE5F"/>
<path d="M338.705 290.826C340.087 296.444 337.358 300.902 333.704 304.149C330.732 306.791 321.597 307.913 322.036 309.234C322.477 310.555 333.263 310.974 336.895 310.423C340.527 309.873 341.518 308.112 346.038 308.113C349.002 308.115 349.552 305.704 348.231 302.724C346.91 299.744 346.448 298.098 347.642 295.427C348.837 292.757 338.705 290.826 338.705 290.826Z" fill="#F09959"/>
<path d="M392.607 290.825C392.387 296.658 391.708 301.005 393.14 303.708C398.666 308.331 403.259 313.581 401.505 313.944C393.14 315.671 389.948 310.659 385.215 309.232C379.407 307.484 385.765 300.185 383.49 290.824C382.225 285.62 392.26 286.866 392.26 286.866L392.607 290.825Z" fill="#F09959"/>
<path d="M394.718 171.851C394.385 170.022 393.972 168.376 393.47 167.07C388.187 153.335 389.222 147.509 391.196 139.186C391.352 138.531 391.414 137.955 391.396 137.449C391.842 135.965 392.256 134.461 392.621 132.949L390.828 116.762L377.899 101.408C368.21 115.607 374.749 133.272 373.295 143.013C371.842 152.754 355.606 165.175 355.606 165.175L356.134 168.63C356.859 173.372 361.254 176.664 366.004 176.005C372.695 175.077 381.474 173.21 385.38 169.586C389.159 166.076 392.507 168.79 394.718 171.851Z" fill="#51BE5F"/>
<path d="M359.401 164.615C359.401 164.615 352.234 166.621 351.378 167.069C350.521 167.516 350.047 169.887 350.047 169.887C350.047 169.887 345.944 173.45 347.516 174.711C349.088 175.972 351.894 179.167 355.606 177.681C357.884 176.77 359.649 168.401 361.142 168.333C362.636 168.266 359.401 164.615 359.401 164.615Z" fill="#F09959"/>
<path d="M379.7 99.5346C387.371 99.7525 394.326 113.568 396.75 125.554C399.174 137.54 401.725 154.58 401.725 154.58C401.725 154.58 389.012 164.614 376.451 167.546C365.494 170.103 359.9 171.104 359.9 171.104L357.678 164.848L383.896 149.449C383.896 149.449 374.255 131.288 373.296 117.585C372.337 103.883 373.871 99.3695 379.7 99.5346Z" fill="#6DD57A"/>
<path d="M305.92 92.6198L286.797 96.4561L289.233 108.6L308.356 104.764L305.92 92.6198Z" fill="#F8BE3E"/>
<path d="M308.082 109.77C308.346 104.748 305.858 97.8964 304.427 97.9063C302.995 97.9162 304.867 102.395 304.096 105.367C303.679 106.978 308.082 109.77 308.082 109.77Z" fill="#F09959"/>
<path d="M346.486 65.1935C346.91 78.9513 362.981 77.8963 367.382 77.0493C371.784 76.2024 362.023 106.075 370.409 107.799C376.567 109.065 375.18 99.4318 382.02 100.076C385.046 100.361 388.089 105.039 388.089 105.039C388.089 105.039 387.634 102.156 385.322 100.076C383.011 97.9938 376.952 85.2267 375.358 76.0917C373.765 66.9568 362.979 61.0479 359.788 60.8646C356.597 60.6814 348.781 64.3135 348.781 64.3135L346.486 65.1935Z" fill="black"/>
<path d="M370.268 110.913C370.05 110.913 369.831 110.89 369.606 110.842C366.922 110.271 365.621 107.449 365.51 101.965C365.416 97.2627 366.192 91.2283 367.016 84.8406C367.348 82.2601 367.693 79.5904 367.975 77.0066C368 76.7854 368.196 76.6252 368.419 76.65C368.641 76.6748 368.799 76.8729 368.776 77.0941C368.492 79.6862 368.147 82.3591 367.815 84.9446C366.223 97.3056 364.719 108.98 369.775 110.056C369.932 110.089 370.088 110.106 370.245 110.106C373.149 110.106 375.765 104.446 377.29 98.9335C377.35 98.7188 377.571 98.5934 377.785 98.6528C378 98.7122 378.125 98.9335 378.066 99.1481C377.056 102.785 374.35 110.913 370.268 110.913Z" fill="black"/>
<path d="M369.194 114.111C368.279 114.111 367.482 113.756 366.816 113.054C361.338 107.264 366.755 78.2086 366.988 76.9753C367.029 76.7574 367.241 76.6137 367.459 76.655C367.677 76.6963 367.82 76.906 367.779 77.1256C367.723 77.4244 362.203 107.009 367.401 112.503C368.005 113.142 368.72 113.396 369.587 113.282C372.431 112.906 374.074 109.048 375.522 105.642C376.927 102.338 378.25 99.2192 380.604 99.3001C380.825 99.3083 381 99.4949 380.992 99.7161C380.984 99.939 380.797 100.117 380.576 100.104C380.556 100.104 380.536 100.102 380.518 100.102C378.753 100.102 377.543 102.947 376.262 105.955C374.728 109.559 372.991 113.642 369.691 114.078C369.524 114.1 369.357 114.111 369.194 114.111Z" fill="black"/>
<path d="M364.035 80.8441C365.092 81.664 366.867 81.1455 367.999 79.6859C369.132 78.2264 369.193 76.3784 368.136 75.5584C367.079 74.7385 365.305 75.257 364.172 76.7165C363.04 78.1761 362.979 80.0241 364.035 80.8441Z" fill="#F09959"/>
<path d="M243.12 130.64C247.043 138.485 243.796 147.519 236.08 150.711C228.314 153.924 219.821 152.099 215.899 144.254C211.976 136.408 214.89 127.001 222.407 123.242C229.924 119.482 239.196 122.796 243.12 130.64Z" fill="black"/>
<path d="M221.971 151.654C221.105 151.654 219.399 151.348 217.228 149.421C215.448 147.841 214.169 145.419 213.629 142.603C212.947 139.047 213.391 134.957 214.95 130.448C215.022 130.239 215.25 130.126 215.461 130.199C215.671 130.272 215.783 130.501 215.711 130.711C214.198 135.084 213.764 139.033 214.42 142.451C214.927 145.096 216.114 147.358 217.763 148.82C220.515 151.262 222.359 150.818 222.379 150.813C222.592 150.757 222.813 150.884 222.871 151.096C222.929 151.309 222.807 151.528 222.595 151.588C222.567 151.596 222.349 151.654 221.971 151.654Z" fill="#303C60"/>
<path d="M233.969 161.168C238.435 162.169 244.071 174.576 246.832 182.526C249.615 190.543 254.335 200.489 257.426 203.579C260.517 206.67 280.822 213.834 280.822 213.834C280.822 213.834 230.65 213.931 231.677 213.832C232.706 213.731 233.969 161.168 233.969 161.168Z" fill="#6DD47A"/>
<path d="M260.605 209.847C257.857 209.454 247.95 210.73 252.168 208.963C256.386 207.197 255.799 204.941 255.799 204.941C255.799 204.941 249.814 209.944 248.736 205.569C247.804 201.796 247.449 188.478 243.918 175.128C241.001 168.509 237.182 161.887 233.971 161.167C233.971 161.167 233.858 165.867 233.672 172.458C234.904 187.043 236.995 208.47 237.525 213.87C244.175 213.88 255.305 213.87 264.616 213.858L270.809 213.563C270.808 213.563 263.352 210.239 260.605 209.847Z" fill="#51BE5F"/>
<path d="M217.553 158.419C217.553 158.419 203.349 166.356 200.039 168.043C196.729 169.73 209.314 219.268 212.115 221.392C214.913 223.515 239.557 221.757 242.364 219.082C245.171 216.407 240.211 208.199 242.64 191.763C245.068 175.327 235.233 161.137 233.97 161.168C232.707 161.2 224.462 158.419 224.462 158.419H217.553Z" fill="#51BE5F"/>
<path d="M212.115 221.392C214.913 223.515 232.549 223.563 240.054 221.226C240.901 220.962 244.748 219.43 244.839 217.989C243.933 217.819 240.337 218.251 238.876 217.915C233.799 216.747 231.004 210.459 231.004 210.459C231.004 210.459 228.209 209.453 221.955 206.805C215.701 204.157 218.276 196.136 218.129 192.605C217.982 189.073 211.95 177.521 200.619 168.766L199.579 169.232C198.768 177.282 209.524 219.427 212.115 221.392Z" fill="#51BE5F"/>
<path d="M309.693 182.525H275.493L259.917 215.672H297.588L311.688 185.667C312.376 184.204 311.31 182.525 309.693 182.525Z" fill="#F8BE3E"/>
<path d="M261.956 216.141H241.377C240.101 216.141 239.065 215.106 239.065 213.83C239.065 212.554 240.101 211.519 241.377 211.519H260.48L273.398 183.719C273.936 182.562 275.31 182.06 276.469 182.596C277.626 183.135 278.128 184.508 277.591 185.667L264.053 214.804C263.674 215.62 262.856 216.141 261.956 216.141Z" fill="#F8BE3E"/>
<path d="M226.269 209.062C235.196 210.73 237.391 212.78 242.257 213.564C247.773 214.454 247.117 215.673 243.02 215.673C238.922 215.673 228.626 215.831 225.093 215.047C221.56 214.261 226.269 209.062 226.269 209.062Z" fill="#F09959"/>
<path d="M198.923 168.972C192.082 190.848 182.382 215.671 183.927 215.671C185.473 215.671 224.76 217.259 226.305 215.936C227.85 214.614 227.41 209.537 227.188 208.875C226.967 208.213 204.852 204.289 204.852 204.289C204.852 204.289 207.764 198.613 208.867 187.521C209.972 176.43 200.221 164.823 198.923 168.972Z" fill="#6DD47A"/>
<path d="M222.756 139.41L217.245 159.55C217.245 159.55 226.558 174.087 229.119 172.796C231.679 171.505 227.687 160.98 227.687 159.55C227.687 158.12 231.679 143.364 231.679 143.364L222.756 139.41Z" fill="#F09959"/>
<path d="M227.877 160.577C227.758 160.1 227.685 159.743 227.685 159.55C227.685 158.12 231.677 143.364 231.677 143.364L222.756 139.41L220.931 146.075C222.524 152.959 225.399 157.544 227.877 160.577Z" fill="#E38540"/>
<path d="M243.378 139.076C244.428 144.916 243.736 152.674 238.55 154.645C233.365 156.618 227.117 152.844 224.598 146.218C222.078 139.591 224.24 132.621 229.425 130.65C234.611 128.677 242.123 132.099 243.378 139.076Z" fill="#F09959"/>
<path d="M224.423 147.035C225.928 146.498 226.56 144.409 225.833 142.367C225.106 140.325 223.296 139.104 221.79 139.64C220.284 140.176 219.653 142.266 220.38 144.308C221.107 146.35 222.917 147.571 224.423 147.035Z" fill="#F09959"/>
<path d="M243.439 131.739C241.674 145.444 225.022 143.679 225.022 143.679C225.022 143.679 221.588 139.165 220.043 141.533C218.498 143.9 222.186 127.638 231.74 127.126C234.88 126.956 243.439 131.739 243.439 131.739Z" fill="black"/>
<path d="M217.495 134.406C222.477 134.406 226.515 130.617 226.515 125.944C226.515 121.271 222.477 117.483 217.495 117.483C212.514 117.483 208.476 121.271 208.476 125.944C208.476 130.617 212.514 134.406 217.495 134.406Z" fill="black"/>
<path d="M199.533 315.058H201.595L214.912 253.359H210.375L199.533 315.058Z" fill="black"/>
<path d="M263.649 315.058H261.587L246.089 251.178H250.626L263.649 315.058Z" fill="black"/>
<path d="M223.063 255.671C214.801 255.671 209.568 254.186 206.228 250.934C202.087 246.901 201.23 240.653 201.219 232.514C201.209 226.108 201.057 221.936 200.709 218.563C200.578 217.293 201.501 216.157 202.771 216.027C204.04 215.897 205.176 216.819 205.307 218.089C205.67 221.624 205.83 225.936 205.84 232.506C205.853 240.756 206.9 245.134 209.452 247.622C212.071 250.173 216.807 251.226 224.803 251.026C232.525 250.836 237.839 249.755 242.111 248.887C247.727 247.746 251.787 246.92 256.6 249.22C257.752 249.77 258.239 251.15 257.689 252.303C257.14 253.455 255.759 253.942 254.607 253.392C251.191 251.759 248.294 252.349 243.032 253.419C238.582 254.323 233.047 255.448 224.917 255.649C224.285 255.662 223.666 255.671 223.063 255.671Z" fill="black"/>
<path d="M204.294 215.937L216.939 216.463L213.573 251.377C213.573 251.377 204.147 245.361 204.294 238.885C204.443 232.41 204.294 215.937 204.294 215.937Z" fill="black"/>
<path d="M266.719 219.189C277.412 217.566 281.044 218.078 287.589 230.258C294.132 242.435 302.844 264.364 307.853 267.195C315.396 271.46 317.896 281.917 320.993 281.447C324.091 280.976 326.083 282.346 322.714 285.146C319.344 287.948 313.901 290.332 312.04 289.835C310.179 289.338 308.736 281.296 303.874 278.686C299.014 276.074 300.473 273.93 300.793 271.62C301.112 269.31 286.605 258.678 275.667 245.453C268.984 237.373 265.543 232.039 265.033 227.205C264.521 222.371 266.719 219.189 266.719 219.189Z" fill="#F09959"/>
<path d="M293.225 263.35C290.742 257.049 288.25 246.651 285.909 237.119C282.579 223.562 279.089 220.343 276.878 218.897C274.205 218.226 271.037 218.533 266.718 219.189C266.718 219.189 264.522 222.37 265.032 227.204C265.543 232.039 268.983 237.371 275.667 245.453C281.424 252.415 288.171 258.659 293.225 263.35Z" fill="#E38540"/>
<path d="M267.707 241.524L241.377 245.949L256.243 224.633L267.555 222.33L274.339 223.89L267.707 241.524Z" fill="#F09959"/>
<path d="M300.791 271.62C299.938 275.06 300.04 277.603 301.524 278.877C303.007 280.152 308.612 289.62 308.612 289.62L310.357 289.356L306.316 280.692L300.791 271.62Z" fill="black"/>
<path d="M312.038 289.835C313.899 290.332 319.342 287.948 322.712 285.146C326.081 282.344 324.089 280.976 320.991 281.446C320.816 281.473 320.645 281.461 320.473 281.42C318.926 284.875 313.838 287.468 312.197 283.817C310.57 280.2 303.598 273 300.79 271.459C300.796 271.516 300.798 271.57 300.792 271.62C300.473 273.929 299.012 276.074 303.872 278.686C308.733 281.296 310.177 289.338 312.038 289.835Z" fill="black"/>
<path d="M212.977 220.049C203.636 236.814 210.017 247.469 221.371 248.554C232.724 249.64 250.648 247.566 261.097 238.884C271.544 230.201 280.121 221.022 278.923 219.651C277.724 218.281 212.977 220.049 212.977 220.049Z" fill="#E38540"/>
<path d="M265.952 232.557C267.866 226.819 270.07 222.415 274.339 222.336C278.828 222.252 281.589 224.588 281.782 231.932C282.01 240.677 282.318 269.639 281.914 282.517C281.609 292.264 284.45 295.386 284.209 305.548C284.029 313.202 292.188 309.335 289.036 313.304C286.869 316.033 280.417 315.142 276.454 314.637C272.923 314.188 278.282 303.605 273.395 300.775C269.201 298.346 269.119 294.405 271.767 291.42C274.415 288.437 272.061 279.608 270.296 273.426C268.529 267.247 265.792 260.56 263.992 245.945C263.479 241.782 264.783 236.063 265.952 232.557Z" fill="#F09959"/>
<path d="M286.245 310.178C284.892 310.591 283.227 311.045 281.774 311.093C278.83 311.191 277.948 307.955 277.752 303.556C277.58 299.716 274.792 293.67 271.932 291.217C271.879 291.286 271.825 291.355 271.769 291.42C269.121 294.403 269.203 298.346 273.397 300.774C278.284 303.604 272.924 314.187 276.456 314.636C280.418 315.14 286.87 316.033 289.038 313.304C291.085 310.723 288.543 310.519 286.245 310.178Z" fill="black"/>
<path d="M272.429 290.327C272.429 290.327 268.136 294.81 268.529 296.674C268.922 298.538 270.245 303.246 270.466 306.877C270.687 310.507 270.884 314.673 270.884 314.673C270.884 314.673 272.429 314.673 272.551 314.234C272.673 313.794 273.532 299.48 273.532 299.48L272.429 290.327Z" fill="black"/>
<path d="M208.478 218.521C208.478 218.521 202.937 242.036 209.937 248.554C216.937 255.072 246.008 249.209 252.855 248.818C257.491 248.554 261.978 254.212 261.978 254.212C261.978 254.212 258.74 241.093 260.948 230.497C263.155 219.902 266.716 219.189 266.716 219.189L261.976 218.522H208.478V218.521Z" fill="#F8BE3E"/>
<path d="M207.223 212.372C209.592 217.399 204.672 226.082 206.398 228.583C208.121 231.084 217.993 228.933 224.461 223.728C230.93 218.52 243.174 217.376 243.174 217.376L207.223 212.372Z" fill="#51BE5F"/>
<path d="M217.245 255.219C236.817 255.955 257.418 255.607 257.418 252.691C257.418 249.775 256.535 247.715 241.379 248.892C226.223 250.069 215.922 251.689 211.361 250.659C206.799 249.628 217.245 255.219 217.245 255.219Z" fill="black"/>
<path d="M425.953 220.998H150.201C149.024 220.998 148.069 220.044 148.069 218.867V217.802C148.069 216.625 149.024 215.67 150.201 215.67H425.952C427.129 215.67 428.083 216.625 428.083 217.802V218.867C428.085 220.044 427.13 220.998 425.953 220.998Z" fill="#51BE5F"/>
<path d="M462.594 144.265C464.491 150.95 459.86 157.838 454.759 159.286C449.657 160.732 446.017 156.19 444.121 149.507C442.226 142.822 444.823 136.231 449.925 134.783C455.026 133.335 460.697 137.58 462.594 144.265Z" fill="#F09959"/>
<path d="M433.992 273.794C433.992 273.794 447.066 294.1 448.831 294.983C450.596 295.866 455.011 296.086 453.356 299.398C451.7 302.708 451.038 315.731 449.493 316.393C447.948 317.055 434.705 318.6 436.691 316.393C438.677 314.186 439.899 315.29 440.901 311.316C441.904 307.344 443.312 299.838 441.436 298.293C439.561 296.748 428.083 282.843 428.083 282.843L433.992 273.794Z" fill="#F09959"/>
<path d="M368.19 282.514C368.19 282.514 352.298 308.707 349.354 311.062C346.41 313.416 336.699 316.947 344.645 317.537C352.592 318.126 356.417 314.889 361.421 313.416C366.425 311.943 372.605 311.061 370.251 307.236C367.896 303.411 368.874 295.058 373.951 289.76C379.026 284.462 368.19 282.514 368.19 282.514Z" fill="#F09959"/>
<path d="M449.292 221.776C449.292 221.776 409.95 220.748 394.352 233.548C385.228 247.38 363.156 288.192 361.441 292.69C362.618 293.867 369.24 295.992 372.184 295.696C380.867 285.344 392.341 276.394 396.906 268.275C402.531 258.268 404.263 253.265 413.388 252.382C422.513 251.499 443.112 248.557 449.294 248.557C455.475 248.557 449.292 221.776 449.292 221.776Z" fill="#51BE5F"/>
<path d="M483.6 317.608H481.537L466.75 255.908H471.286L483.6 317.608Z" fill="black"/>
<path d="M421.823 317.608H423.886L440.855 253.728H436.318L421.823 317.608Z" fill="black"/>
<path d="M471.704 219.082L448.831 223.029C448.831 223.029 418.437 223.308 404.542 225.897C391.902 228.251 390.04 242.613 404.542 262.39C412.78 273.625 419.746 282.587 433.991 292.691C437.615 290.031 439 289.024 440.002 282.623C438.97 281.21 436.302 272.362 435.473 270.631C427.595 254.16 417.078 248.17 416.931 246.551C418.697 243.681 463.704 261.507 472.652 251.022C481.199 241.01 471.704 219.082 471.704 219.082Z" fill="#51BE5F"/>
<path d="M472.655 167.3C466.631 166.455 460.496 167.599 454.759 171.754C449.745 176.866 444.072 185.294 444.418 199.197C444.859 216.854 441.686 217.989 444.996 222.844C458.805 228.547 482.421 253.046 476.86 226.78C472.834 207.762 485.693 193.585 475.318 172.491C474.473 170.772 473.418 169.106 472.655 167.3Z" fill="#F8BE3E"/>
<path d="M444.413 205.84C444.144 215.046 442.845 217.757 443.839 220.643C449.469 221.218 459.766 223.471 462.338 227.074C465.282 231.195 468.224 231.782 466.85 228.741C465.477 225.7 461.848 221.385 467.44 206.57C473.032 191.757 475.68 181.751 470.187 171.45L444.413 205.84Z" fill="#F8BE3E"/>
<path d="M472.655 167.299C468.945 158.518 468.034 148.651 468.034 148.651L458.323 151.521C458.323 151.521 463.84 163.88 458.544 168.295C457.418 169.233 456.112 170.372 454.758 171.752C460.496 167.598 466.631 166.452 472.655 167.299Z" fill="#F09959"/>
<path d="M468.326 150.989C467.752 150.478 467.032 149.839 466.276 149.17L458.354 151.511C458.349 151.526 458.343 151.539 458.338 151.554C458.529 151.991 460.547 156.7 460.813 161.229C463.174 159.797 465.757 157.461 468.713 153.382C468.553 152.477 468.425 151.67 468.326 150.989Z" fill="#E38540"/>
<path d="M465.827 170.06C455.823 173.559 456.933 184.095 447.729 199.636C442.964 207.678 438.539 207.559 438.539 207.559C438.539 207.559 427.365 207.649 413.852 205.996C405.389 204.961 404.852 207.48 410.738 209.585C422.609 213.83 434.927 218.398 444.859 217.294C454.792 216.191 471.779 190.848 472.655 184.251C473.867 175.129 470.864 168.299 465.827 170.06Z" fill="#F09959"/>
<path d="M460.679 258.221C460.058 258.221 459.424 258.213 458.771 258.197C450.641 257.995 445.105 256.871 440.656 255.966C435.396 254.896 432.497 254.309 429.081 255.94C427.928 256.49 426.55 256.003 425.998 254.85C425.447 253.698 425.936 252.319 427.088 251.768C431.901 249.468 435.959 250.293 441.577 251.434C445.848 252.303 451.163 253.382 458.884 253.574C467.58 253.789 472.9 252.486 475.617 249.471C478.044 246.78 478.759 242.293 477.866 235.352C477.564 233.001 477.262 231.046 476.994 229.321C476.246 224.482 475.751 221.285 476.362 216.357C476.932 211.763 478.455 205.634 481.987 193.742C482.35 192.519 483.636 191.822 484.861 192.183C486.085 192.547 486.783 193.833 486.42 195.058C479.816 217.302 480.151 219.473 481.564 228.614C481.835 230.366 482.142 232.352 482.452 234.761C483.531 243.14 482.449 248.798 479.051 252.565C475.548 256.452 469.839 258.221 460.679 258.221Z" fill="black"/>
<path d="M369.27 304.591C358.725 309.749 353.049 312.704 349.669 312.422C348.872 312.356 348.21 312.273 347.655 312.188C343.894 314.41 337.891 317.036 344.645 317.537C352.592 318.126 356.417 314.889 361.421 313.416C366.424 311.945 372.605 311.062 370.251 307.236C369.8 306.503 369.471 305.603 369.27 304.591Z" fill="black"/>
<path d="M449.982 295.413C449.724 303.762 448.577 312.035 443.47 313.599C442.117 314.013 440.883 314.073 439.792 313.927C438.99 314.92 438.009 314.931 436.693 316.392C434.707 318.6 447.95 317.054 449.495 316.392C451.04 315.73 451.702 302.707 453.358 299.397C454.717 296.678 451.98 296.042 449.982 295.413Z" fill="black"/>
<path d="M409.363 216.141H375.862C374.963 216.141 374.145 215.619 373.766 214.804L360.227 185.667C359.689 184.51 360.193 183.134 361.35 182.596C362.508 182.058 363.883 182.561 364.421 183.719L377.338 211.518H409.364C410.641 211.518 411.676 212.553 411.676 213.83C411.676 215.106 410.641 216.141 409.363 216.141Z" fill="#B4B8BD"/>
<path d="M416.371 206.288C409.602 206.191 402.889 202.156 399.554 202.744C396.219 203.333 385.329 210.886 386.703 211.18C388.076 211.474 396.709 207 397.003 206.932C397.297 206.864 399.161 210.031 403.772 211.195C408.383 212.359 403.805 207.739 418.098 212.055C427.391 214.863 416.371 206.288 416.371 206.288Z" fill="#F09959"/>
<path d="M471.66 159.286L472.655 167.3C472.655 167.3 463.897 167.821 459.536 170.273C455.178 172.726 448.746 179.811 448.746 179.811L454.001 170.763L454.757 164.975L471.66 159.286Z" fill="#F8BE3E"/>
<path d="M467.932 169.096C461.425 167.878 458.416 173.707 454.197 183.222C449.979 192.738 442.777 204.295 441.346 205.786C439.915 207.277 417.213 205.786 417.213 205.786C417.213 205.786 416.527 212.359 417.213 213.143C417.9 213.927 421.825 213.83 421.825 213.83C421.825 213.83 423.395 215.083 424.866 216.075C426.337 217.068 438.797 218.932 444.584 218.638C450.372 218.344 455.668 217.853 456.454 216.97C457.238 216.087 473.034 191.758 474.014 183.027C474.995 174.295 471.252 169.719 467.932 169.096Z" fill="#FED272"/>
<path d="M448.746 129.069C436.441 129.659 438.371 148.17 438.371 148.17C438.371 148.17 441.567 149.157 448.262 148.052C447.747 146.066 447.968 140.989 447.968 140.989C447.968 140.989 448.746 145.11 449.735 147.612C451.149 148.26 452.751 147.686 455.473 147.027C456.872 152.91 460.821 155.394 463.527 156.245C466.515 157.184 469.679 158.305 473.21 156.538C476.742 154.772 474.8 136.722 472.924 133.093C470.11 127.644 465.431 122.767 457.337 125.343C453.278 126.634 448.746 129.069 448.746 129.069Z" fill="black"/>
<path d="M470.144 151.054L475.175 158.403C475.175 158.403 469.599 172.334 485.815 178.644C498.515 183.587 497.019 192.296 491.28 201.054C485.541 209.813 494.714 217.462 494.714 217.462C494.714 217.462 496.113 207.759 508.452 205.928C525.276 203.432 530.04 180.843 517.473 169.549C507.075 160.202 503.91 167.942 496.872 159.555C489.834 151.168 476.545 156.833 476.545 156.833L471.675 149.73L470.144 151.054Z" fill="black"/>
<path d="M523.26 192.258C523.194 192.258 523.128 192.241 523.067 192.208C522.872 192.101 522.801 191.856 522.907 191.662C527.146 183.912 523.688 174.523 521.946 171.98C521.763 171.711 521.588 171.438 521.403 171.151C519.692 168.482 517.562 165.158 506.215 163.116C503.498 162.627 501.292 161.008 498.957 159.294C494.117 155.739 488.63 151.712 476.71 157.199C476.509 157.291 476.269 157.204 476.177 157.002C476.085 156.801 476.172 156.561 476.373 156.469C488.725 150.785 494.414 154.962 499.433 158.647C501.69 160.304 503.821 161.869 506.357 162.325C518.049 164.43 520.285 167.917 522.08 170.719C522.261 171.001 522.431 171.268 522.61 171.528C523.658 173.06 524.954 176.235 525.484 179.872C525.945 183.027 525.992 187.699 523.612 192.049C523.541 192.182 523.402 192.258 523.26 192.258Z" fill="black"/>
<path d="M467.456 158.538C466.654 158.538 465.786 158.469 464.85 158.328C460.56 157.686 454.807 155.246 454.354 141.543C454.348 141.321 454.521 141.135 454.742 141.128C454.97 141.118 455.15 141.295 455.157 141.516C455.343 147.189 456.471 151.388 458.505 153.996C460.053 155.982 462.107 157.105 464.967 157.534C468.972 158.134 471.627 157.391 472.86 155.327C472.974 155.137 473.222 155.074 473.412 155.188C473.601 155.302 473.664 155.55 473.55 155.74C472.441 157.6 470.395 158.538 467.456 158.538Z" fill="black"/>
<path d="M83.4346 168.263C69.1535 176.429 49.2887 210.376 53.4822 215.915C57.6757 221.456 80.1887 206.888 80.1887 206.888L83.4346 168.263Z" fill="#FED272"/>
<path d="M110.116 128.896C104.663 128.748 106.687 124.694 100.415 126.312C97.1177 127.163 99.5513 128.52 95.2686 128.079C90.9859 127.638 88.8776 127.196 88.3377 129.992C87.7979 132.789 87.537 133.671 85.4766 134.113C83.4161 134.556 82.4866 138.234 85.4766 140.735C88.4665 143.237 87.0137 144.267 86.3516 146.327C85.6896 148.388 87.9465 148.535 89.1731 150.448C90.3998 152.362 88.0439 152.723 89.8104 154.381C91.577 156.04 94.0535 155.892 94.0535 155.892L101.488 141.639L110.116 128.896Z" fill="black"/>
<path d="M221.225 299.974C221.225 299.974 229.171 300.195 235.351 297.767C241.53 295.338 245.724 291.587 244.621 296C243.518 300.415 238.441 307.988 234.027 308.726C229.612 309.464 228.066 314.32 225.64 314.32C223.213 314.32 219.679 308.726 213.5 305.929C207.867 303.383 221.225 299.974 221.225 299.974Z" fill="#F09959"/>
<path d="M158.606 299.229C158.606 299.229 161.948 303.837 167.764 307.044C173.77 310.354 180.701 311.949 176.404 313.446C172.106 314.944 165.824 316.108 159.696 314.328C155.398 313.08 150.359 312.819 149.027 310.788C147.696 308.757 150.594 303.657 149.388 296.036C148.424 289.928 158.606 299.229 158.606 299.229Z" fill="#F09959"/>
<path d="M121.399 225.156C121.399 225.156 167.429 242.391 171.137 247.208C174.845 252.026 223.229 295.916 223.229 299.153C223.229 302.391 214.989 308.277 214.989 308.277C214.989 308.277 173.491 282.82 163.191 269.87C152.89 256.921 127.751 250.677 114.386 249.478C101.021 248.28 121.399 225.156 121.399 225.156Z" fill="black"/>
<path d="M123.164 225.156C123.164 225.156 154.655 223.979 161.424 225.156C168.193 226.333 183.041 226.32 173.33 253.728C165.718 275.211 163.206 302.409 163.206 302.409L148.071 306.127C148.071 306.127 148.672 257.22 155.893 244.197C150.633 245.064 140.98 246.756 127.602 250.581C102.783 257.679 89.1734 254.124 89.1734 254.124L85.4785 241.176L123.164 225.156Z" fill="black"/>
<path d="M96.867 143.851L89.1733 166.585L98.8927 172.986L104.402 153.343L96.867 143.851Z" fill="#F09959"/>
<path d="M99.763 169.886L104.402 153.341L96.8672 143.85L94.0522 152.166C95.0247 159.678 97.3707 165.89 99.763 169.886Z" fill="#F09959"/>
<path d="M116.494 147.7C116.743 154.614 113.347 160.599 107.949 161.131C102.55 161.662 97.6232 156.513 96.9447 149.627C96.2661 142.74 100.091 136.727 105.49 136.196C110.889 135.664 116.1 136.788 116.494 147.7Z" fill="#F09959"/>
<path d="M85.477 165.923C61.8579 181.874 76.5484 207.649 81.7342 226.485C86.1523 242.528 86.007 252.224 86.669 252.224C87.3311 252.224 103.575 249.796 112.844 241.408C122.114 233.021 128.381 224.897 128.381 224.897C128.381 224.897 116.504 222.782 112.623 207.418C110.651 199.617 111.548 195.382 107.056 183.023C102.566 170.663 85.477 165.923 85.477 165.923Z" fill="#F8BE3E"/>
<path d="M85.4766 165.923L88.0059 159.733C88.0059 159.733 96.0264 165.031 99.226 167.533C102.427 170.034 104.4 170.623 104.4 170.623C104.4 170.623 105.558 179.496 104.806 178.69C95.3413 168.545 85.4766 165.923 85.4766 165.923Z" fill="#F8BE3E"/>
<path d="M75.0098 317.608H77.0719L91.8598 255.909H87.3229L75.0098 317.608Z" fill="black"/>
<path d="M136.785 317.608H134.723L117.754 253.728H122.291L136.785 317.608Z" fill="black"/>
<path d="M97.9832 258.22C89.7216 258.22 84.488 256.736 81.148 253.484C77.0073 249.45 76.1505 243.203 76.1389 235.064C76.1125 217.951 75.1665 214.413 70.3489 203.964C69.8139 202.805 70.3208 201.431 71.4798 200.896C72.6388 200.361 74.0124 200.868 74.5473 202.027C79.639 213.072 80.7353 217.132 80.7617 235.055C80.7749 243.305 81.8216 247.684 84.3741 250.172C86.9925 252.723 91.7276 253.774 99.725 253.576C107.447 253.386 112.761 252.305 117.032 251.436C122.649 250.294 126.709 249.47 131.522 251.77C132.674 252.32 133.161 253.7 132.611 254.852C132.061 256.005 130.681 256.492 129.529 255.942C126.113 254.309 123.215 254.899 117.954 255.968C113.504 256.873 107.968 257.998 99.8389 258.199C99.2049 258.214 98.5842 258.22 97.9832 258.22Z" fill="black"/>
<path d="M200.036 215.874H166.534C165.258 215.874 164.223 214.839 164.223 213.562C164.223 212.286 165.258 211.251 166.534 211.251H198.56L211.477 183.452C212.016 182.294 213.389 181.792 214.548 182.329C215.706 182.867 216.208 184.241 215.671 185.4L202.133 214.536C201.753 215.352 200.934 215.874 200.036 215.874Z" fill="#0A0A0A"/>
<path d="M86.3521 189.146C86.3521 189.146 92.2378 207.099 99.522 214.53C106.806 221.961 121.465 224.458 126.055 224.165C122.397 222.694 115.428 218.509 112.626 207.416C110.655 199.615 111.551 195.38 107.059 183.021C103.724 173.846 93.4497 168.87 88.3745 166.916C94.7077 171.464 102.628 178.956 105.061 184.657C107.762 190.987 86.3521 189.146 86.3521 189.146Z" fill="#F8BE3E"/>
<path d="M167.594 204.901C167.594 204.901 177.747 200.267 178.85 200.708C179.953 201.149 191.211 207.946 191.211 209.072C191.211 210.198 181.279 204.875 181.279 204.875C181.279 204.875 182.382 207.817 181.72 209.229C181.058 210.64 173.422 210.64 166.535 210.198C159.649 209.755 167.594 204.901 167.594 204.901Z" fill="#F09959"/>
<path d="M86.6771 175.276C77.3176 194.459 109.423 213.905 128.469 215.633C147.516 217.362 170.145 211.129 170.145 211.129L167.594 204.902C167.594 204.902 129.436 199.921 128.469 199.224C127.503 198.527 90.1045 168.251 86.6771 175.276Z" fill="#FED272"/>
<path d="M97.4179 149.771C99.0696 149.143 99.7053 146.784 98.8378 144.502C97.9703 142.221 95.928 140.88 94.2763 141.508C92.6246 142.136 91.9889 144.495 92.8564 146.777C93.7239 149.058 95.7661 150.399 97.4179 149.771Z" fill="#F09959"/>
<path d="M116.507 129.893C119.093 128.814 122.005 127.658 121.103 132.051C120.711 133.965 121.103 133.425 121.79 135.19C122.477 136.956 120.06 138.342 119.274 139.324C118.49 140.305 120.417 141.371 118.847 142.548C117.276 143.725 115.208 142.112 113.745 142.548C109.38 143.851 109.92 140.417 107.466 139.704C105.015 138.989 103.811 139.099 103.345 140.67C102.88 142.24 105.062 147.404 103.198 146.914C101.334 146.423 100.915 150.592 100.413 152.946C99.9113 155.301 98.6334 151.322 98.716 148.627C98.8431 144.497 97.8178 142.761 96.2956 141.606C94.7734 140.45 94.1262 129.941 101.483 129.548C108.84 129.155 108.888 128.446 112.026 127.782C115.17 127.12 115.328 130.385 116.507 129.893Z" fill="black"/>
<path d="M529.008 249.9C533.7 254.183 531.659 258.467 528.192 266.422C524.725 274.376 524.113 303.749 524.113 303.749L526.969 303.341C526.969 303.341 526.561 273.153 530.436 264.995C534.311 256.836 535.944 252.757 539.411 255.408C542.878 258.06 529.008 249.9 529.008 249.9Z" fill="#74B570"/>
<path d="M526.431 244.355C527 241.816 530.385 239.07 534.908 236.739C534.236 240.483 532.079 246.605 534.311 247.86C537.321 249.554 534.605 241.007 535.765 236.308C540.013 234.233 545.125 232.537 549.832 231.694C549.825 231.712 549.82 231.728 549.812 231.745C547.16 238.476 543.693 241.127 545.122 242.148C546.196 242.915 549.695 235.139 554.314 231.154C557.781 230.969 560.715 231.439 562.452 232.813C565.135 234.936 566.934 236.822 564.237 243.288C562.695 244.39 560.699 245.179 558.379 245.412C552.26 246.024 549.404 246.227 553.687 248.268C555.785 249.267 559.3 248.212 562.152 247.568C561.227 249.272 560.089 251.2 558.709 253.398C557.832 254.791 556.868 255.999 555.843 257.046C553.87 257.424 552.151 257.428 551.242 257.038C548.386 255.815 541.044 251.938 539.208 253.571C537.411 255.167 552.807 256.179 551.74 260.238C544.278 264.537 535.739 262.491 534.23 258.544C532.199 253.244 524.715 251.996 526.431 244.355Z" fill="#9CD499"/>
<path d="M541.858 273.358C533.699 267.239 525.336 272.95 521.052 279.476C516.769 286.003 519.829 300.69 519.829 300.69C519.829 300.69 521.46 300.69 521.46 300.077C521.46 299.465 516.972 282.74 527.578 275.194C534.214 270.472 539 272.745 539.613 274.989C540.225 277.233 536.961 281.312 536.961 281.312L541.858 273.358Z" fill="#74B570"/>
<path d="M523.092 260.779C531.252 260.779 533.903 273.426 531.659 280.768C529.416 288.112 526.356 301.777 526.356 301.777L524.318 299.738C524.318 299.738 532.069 280.565 530.233 271.998C528.397 263.431 523.91 262.003 523.094 262.003C522.277 262.003 523.092 260.779 523.092 260.779Z" fill="#9CD499"/>
<path d="M529.936 280.826C530.51 280.066 531.219 279.437 532.084 279.021C531.97 279.629 531.83 280.215 531.66 280.769C530.638 284.114 529.446 288.773 528.452 292.853C528.361 292.33 528.222 291.526 528.008 290.282C527.956 289.989 527.917 289.67 527.889 289.333C528.686 286.616 529.442 283.654 529.936 280.826Z" fill="#74B570"/>
<path d="M532.166 280.886C547.668 274.36 539.502 265.402 553.167 271.317C554.13 271.733 555.303 272.785 556.477 274.233C555.261 274.578 553.786 274.825 552.147 274.579C548.067 273.967 549.495 277.231 556.226 278.047C557.494 278.2 558.525 278.411 559.38 278.712C562.586 284.87 564.032 292.975 557.245 295.791C555.908 296.346 554.255 296.665 552.416 296.782C550.322 295.118 552.926 285.488 549.698 286.817C546.599 288.093 550.669 295.073 550.111 296.832C547.052 296.775 543.664 296.277 540.428 295.474C539.147 294.756 538.169 293.794 537.867 292.529C536.847 288.246 543.578 285.595 543.783 281.923C543.971 278.548 541.316 289.349 534.283 290.937C527.925 287.969 524.92 283.937 532.166 280.886Z" fill="#9CD499"/>
<path d="M521.12 269.346C522.751 265.879 518.468 265.063 518.671 267.715C518.853 270.064 518.873 275.776 516.462 277.33C512.307 276.879 506.652 275.205 502.378 272.653C502.323 272.308 502.376 271.953 502.558 271.589C504.393 267.918 516.224 264.858 512.553 263.635C509.629 262.661 504.506 268.413 500.377 271.312C497.897 269.43 496.236 267.188 496.236 264.685C496.236 261.297 500.353 257.46 505.678 255.628C508.073 255.869 510.301 257.18 513.778 259.149C518.914 262.06 517.727 257.355 512.87 254.561C517.061 254.777 521.242 256.569 524.324 260.848C524.324 260.848 524.032 262.677 525.969 265.507C531.25 273.226 525.155 277.733 517.869 277.439C518.282 275.403 519.994 271.741 521.12 269.346Z" fill="#9CD499"/>
<path d="M541.368 273.011C545.356 276.093 549.788 279.698 555.228 282.144C560.668 284.593 559.58 292.57 559.58 292.57C559.58 292.57 560.395 285.681 555.863 283.323C551.33 280.966 548.338 278.156 544.894 277.612C541.449 277.069 539.545 276.524 539.545 276.524C539.545 276.524 540.633 274.348 539.999 273.533C539.362 272.717 541.368 273.011 541.368 273.011Z" fill="#74B570"/>
<path d="M561.028 236.816C546.431 240.714 535.734 250.052 533.74 252.319C531.746 254.586 531.746 255.22 531.746 255.22L533.286 258.121L534.011 257.758C534.011 257.758 532.832 255.309 535.914 252.138C541.231 246.666 547.699 242.347 552.142 240.444C556.585 238.54 561.028 236.816 561.028 236.816Z" fill="#74B570"/>
<path d="M520.738 317.608H526.315C530.281 317.608 533.495 314.394 533.495 310.428V297.616H513.56V310.428C513.558 314.394 516.772 317.608 520.738 317.608Z" fill="#7B7F86"/>
<path d="M533.494 299.906H513.558V301.309H533.494V299.906Z" fill="white"/>
<path d="M533.494 302.465H513.558V303.29H533.494V302.465Z" fill="white"/>
<path d="M198.882 71.9668H193.307V88.0997H198.882V71.9668Z" fill="#51BE5F"/>
<path d="M270.344 77.2163H264.769V88.0997H270.344V77.2163Z" fill="#51BE5F"/>
<path d="M222.509 50.3545H216.935V88.0996H222.509V50.3545Z" fill="#51BE5F"/>
<path d="M234.325 71.1343H228.75V88.0997H234.325V71.1343Z" fill="#51BE5F"/>
<path d="M246.139 66.333H240.564V88.1021H246.139V66.333Z" fill="#51BE5F"/>
<path d="M210.695 61.3149H205.121V88.0993H210.695V61.3149Z" fill="#51BE5F"/>
<path d="M257.994 55.1104H252.419V88.0995H257.994V55.1104Z" fill="#51BE5F"/>
<path d="M149.84 90.0411H43.6068C42.4511 90.0411 41.5132 89.1032 41.5132 87.9475V42.2313C41.5132 41.0756 42.4511 40.1377 43.6068 40.1377H149.84C150.996 40.1377 151.934 41.0756 151.934 42.2313V87.9475C151.934 89.1032 150.996 90.0411 149.84 90.0411Z" fill="#FDCE65"/>
<path d="M147.224 87.699H46.223C45.2877 87.699 44.5317 86.9431 44.5317 86.0077V54.9418C44.5317 54.0064 45.2903 53.2505 46.223 53.2505H147.224C148.159 53.2505 148.915 54.0064 148.915 54.9418V86.0077C148.915 86.9405 148.157 87.699 147.224 87.699Z" fill="white"/>
<path d="M49.4518 47.7052H46.9994C46.4818 47.7052 46.0615 47.2849 46.0615 46.7673V44.748C46.0615 44.2303 46.4818 43.8101 46.9994 43.8101H49.4518C49.9694 43.8101 50.3897 44.2303 50.3897 44.748V46.7673C50.3897 47.2849 49.9694 47.7052 49.4518 47.7052Z" fill="white"/>
<path d="M57.319 47.7052H54.8666C54.349 47.7052 53.9287 47.2849 53.9287 46.7673V44.748C53.9287 44.2303 54.349 43.8101 54.8666 43.8101H57.319C57.8366 43.8101 58.2569 44.2303 58.2569 44.748V46.7673C58.2543 47.2849 57.8366 47.7052 57.319 47.7052Z" fill="white"/>
<path d="M65.1832 47.7052H62.7309C62.2132 47.7052 61.793 47.2849 61.793 46.7673V44.748C61.793 44.2303 62.2132 43.8101 62.7309 43.8101H65.1832C65.7009 43.8101 66.1211 44.2303 66.1211 44.748V46.7673C66.1211 47.2849 65.7009 47.7052 65.1832 47.7052Z" fill="white"/>
<path d="M144.667 60.7998H89.4537C88.5465 60.7998 87.8008 60.0567 87.8008 59.147C87.8008 58.2398 88.5439 57.4941 89.4537 57.4941H144.667C145.574 57.4941 146.319 58.2373 146.319 59.147C146.319 60.0567 145.576 60.7998 144.667 60.7998Z" fill="#FDCE65"/>
<path d="M103.14 86.2818H47.9273C47.0175 86.2818 46.2744 85.5386 46.2744 84.6289C46.2744 83.7218 47.0175 82.9761 47.9273 82.9761H103.14C104.047 82.9761 104.793 83.7192 104.793 84.6289C104.791 85.5386 104.047 86.2818 103.14 86.2818Z" fill="#FDCE65"/>
<path d="M113.311 86.2815H107.599C107.289 86.2815 107.035 86.0278 107.035 85.7178V83.5447C107.035 83.2347 107.289 82.981 107.599 82.981H113.311C113.621 82.981 113.875 83.2347 113.875 83.5447V85.7178C113.875 86.0278 113.621 86.2815 113.311 86.2815Z" fill="#FDCE65"/>
<path d="M121.924 86.2815H116.212C115.902 86.2815 115.648 86.0278 115.648 85.7178V83.5447C115.648 83.2347 115.902 82.981 116.212 82.981H121.924C122.234 82.981 122.487 83.2347 122.487 83.5447V85.7178C122.487 86.0278 122.234 86.2815 121.924 86.2815Z" fill="#FDCE65"/>
<path d="M145.2 67.9955H53.7673C53.1497 67.9955 52.6475 67.4907 52.6475 66.8757C52.6475 66.2581 53.1523 65.7559 53.7673 65.7559H145.2C145.817 65.7559 146.319 66.2607 146.319 66.8757C146.319 67.4933 145.815 67.9955 145.2 67.9955Z" fill="#FDCE65"/>
<path d="M145.2 72.8334H53.7673C53.1497 72.8334 52.6475 72.3286 52.6475 71.7136C52.6475 71.096 53.1523 70.5938 53.7673 70.5938H145.2C145.817 70.5938 146.319 71.0986 146.319 71.7136C146.319 72.3286 145.815 72.8334 145.2 72.8334Z" fill="#FDCE65"/>
</svg>
