<svg width="48" height="49" viewBox="0 0 48 49" fill="none" xmlns="http://www.w3.org/2000/svg">
<circle cx="24" cy="24.4023" r="23.5" stroke="#51BE5F"/>
<path fill-rule="evenodd" clip-rule="evenodd" d="M12.6792 31.0692C15.1308 31.2876 17.3006 30.7168 19.2627 29.2866C17.2135 29.1101 15.8474 28.1074 15.0841 26.2581C15.7677 26.337 16.4058 26.353 17.0741 26.1804C14.4346 25.5169 13.4676 23.3427 13.545 21.8745C14.1563 22.1757 14.7898 22.3731 15.5287 22.3891C14.5576 21.7025 13.9309 20.8399 13.6753 19.7418C13.4186 18.6403 13.6008 17.6023 14.1739 16.5969C14.5115 16.9857 14.8479 17.3486 15.2122 17.6862C17.1868 19.5145 19.5188 20.638 22.2248 21.0202C22.5624 21.0676 22.9028 21.0919 23.242 21.13C23.3593 21.1432 23.4122 21.1454 23.3838 20.9877C22.9551 18.6194 24.4135 16.4369 26.8087 15.9157C28.37 15.576 29.747 15.9841 30.9133 17.0431C31.026 17.1457 31.117 17.1699 31.2667 17.1363C32.1154 16.9455 32.9226 16.6554 33.6848 16.2456C33.7365 16.2174 33.7827 16.1645 33.8743 16.1904C33.5339 17.1644 32.9027 17.9118 32.0323 18.4876C32.8588 18.4137 33.6369 18.1781 34.415 17.914C34.2392 18.2399 34.0035 18.5107 33.7639 18.7771C33.3557 19.2299 32.9044 19.6392 32.4012 19.9927C32.309 20.0578 32.2629 20.1212 32.2651 20.2448C32.3306 24.2114 30.8507 27.5322 27.7598 30.1371C25.6703 31.8982 23.1965 32.7988 20.4381 32.9764C17.7355 33.1501 15.2219 32.5694 12.9023 31.2104C12.8431 31.1751 12.7862 31.1365 12.6792 31.0692Z" fill="#51BE5F"/>
</svg>
