<svg width="502" height="314" viewBox="0 0 502 314" fill="none" xmlns="http://www.w3.org/2000/svg">
<path opacity="0.1" d="M501.256 192.574C501.222 194.841 501.14 197.098 501.015 199.344C500.97 200.181 500.919 201.015 500.861 201.848C500.739 203.616 500.592 205.374 500.419 207.123C500.292 208.427 500.15 209.728 499.996 211.021C498.913 220.112 497.204 228.923 495.099 237.306C491.819 250.36 486.244 262.252 478.906 272.556C477.996 273.835 477.059 275.09 476.094 276.32C474.129 278.828 472.055 281.229 469.879 283.52C467.17 286.373 464.306 289.051 461.305 291.541C444.675 305.345 423.801 313.39 401.556 313.397L339.67 313.417L250.64 313.448L245.471 313.452L47.3239 313.519C27.7252 313.525 12.1715 301.435 4.75164 285.122C1.68015 278.374 0 270.903 0 263.267C0 263.082 0.00181715 262.895 0.00363353 262.71C0.00544991 262.544 0.00726506 262.381 0.0108978 262.216C0.0199797 261.821 0.0326956 261.425 0.049043 261.03C0.0563085 260.842 0.0653892 260.655 0.0762875 260.468C0.0871858 260.27 0.0980845 260.072 0.110799 259.872C0.123514 259.696 0.134413 259.52 0.148944 259.346C0.165292 259.144 0.181637 258.943 0.197984 258.741C0.24521 258.192 0.303335 257.646 0.368724 257.097C0.390521 256.917 0.412316 256.739 0.435929 256.561C0.490421 256.154 0.548546 255.747 0.610303 255.341C0.635732 255.175 0.662978 255.01 0.690224 254.847C0.751981 254.472 0.81737 254.096 0.888208 253.722C0.951781 253.386 1.01717 253.05 1.08801 252.714C1.13705 252.48 1.18791 252.245 1.23877 252.011C1.32051 251.653 1.40406 251.296 1.49125 250.938C1.49306 250.93 1.49488 250.923 1.4967 250.916C1.54392 250.729 1.59115 250.544 1.63837 250.356C1.68742 250.169 1.73646 249.984 1.78731 249.797C2.03979 248.865 2.31951 247.935 2.62648 247.009C2.81175 246.455 3.0061 245.899 3.21135 245.347C3.49289 244.588 3.7926 243.832 4.11228 243.078C4.1922 242.891 4.27212 242.702 4.35567 242.515C4.43741 242.328 4.52096 242.139 4.60633 241.952C4.6917 241.765 4.77707 241.578 4.86426 241.391C4.95144 241.204 5.03863 241.018 5.12945 240.831C5.21845 240.644 5.30927 240.459 5.4019 240.274C5.57264 239.93 5.74702 239.587 5.92684 239.246C5.9777 239.146 6.03037 239.046 6.08486 238.946C6.32099 238.503 6.56438 238.06 6.81504 237.62C6.85864 237.542 6.90405 237.464 6.94946 237.386C7.0312 237.242 7.11293 237.099 7.1983 236.957C7.30547 236.774 7.41264 236.592 7.52344 236.41C7.72869 236.071 7.93394 235.731 8.141 235.39C8.34081 235.059 8.54242 234.727 8.74404 234.394C9.4488 233.233 10.1554 232.069 10.8601 230.896C11.1035 230.491 11.3451 230.086 11.5885 229.679C12.2714 228.531 12.9508 227.372 13.621 226.202C13.7463 225.984 13.8699 225.766 13.9934 225.548C14.0061 225.527 14.0188 225.505 14.0315 225.481C14.3821 224.865 14.729 224.244 15.0705 223.619C15.1776 223.425 15.2848 223.231 15.3883 223.036C15.5827 222.68 15.7734 222.324 15.9641 221.967C16.0586 221.789 16.153 221.61 16.2457 221.432C16.3147 221.302 16.3837 221.171 16.4527 221.038C16.5417 220.868 16.6308 220.697 16.7179 220.524C16.8433 220.283 16.9668 220.039 17.0885 219.796C17.3155 219.351 17.5371 218.904 17.7569 218.454C17.8986 218.167 18.0366 217.878 18.1747 217.587C18.2891 217.347 18.4035 217.108 18.5143 216.866C18.7523 216.358 18.9866 215.847 19.2136 215.331C19.3135 215.11 19.4116 214.886 19.5079 214.663C19.7622 214.083 20.0092 213.497 20.2508 212.906C20.318 212.743 20.3852 212.578 20.4506 212.412C20.654 211.911 20.852 211.406 21.0427 210.896C21.1027 210.741 21.1608 210.587 21.2189 210.431C21.5404 209.566 21.8492 208.687 22.1435 207.797C22.207 207.604 22.2706 207.41 22.3324 207.216C22.4522 206.847 22.5685 206.475 22.6811 206.1C22.7011 206.039 22.7192 205.977 22.7392 205.915C22.7973 205.717 22.8573 205.517 22.9154 205.318C22.9772 205.105 23.0389 204.891 23.0989 204.676C23.1606 204.462 23.2206 204.246 23.2787 204.03C23.3968 203.598 23.5112 203.163 23.6202 202.724C23.6747 202.504 23.7291 202.284 23.7818 202.064C23.8363 201.843 23.8872 201.621 23.9398 201.4C23.9907 201.176 24.0416 200.955 24.0906 200.729C24.1288 200.553 24.1687 200.375 24.205 200.197C24.2159 200.15 24.2268 200.103 24.2359 200.056C24.2414 200.034 24.2468 200.012 24.2505 199.988C24.2886 199.809 24.3249 199.629 24.3612 199.447C24.3939 199.287 24.4266 199.126 24.4575 198.962C24.4793 198.855 24.4993 198.748 24.5175 198.641C24.5592 198.432 24.5974 198.223 24.6337 198.012C24.6464 197.949 24.6591 197.885 24.6682 197.82C24.7082 197.605 24.7445 197.389 24.779 197.171C24.8008 197.048 24.8226 196.924 24.8408 196.801C24.8735 196.608 24.9043 196.414 24.9316 196.219C24.9443 196.145 24.957 196.069 24.9661 195.992C25.0042 195.747 25.0406 195.5 25.0733 195.253C25.0824 195.184 25.0933 195.115 25.1023 195.044C25.1405 194.763 25.1768 194.477 25.2113 194.192C25.2513 193.88 25.2876 193.567 25.3203 193.251C25.3221 193.244 25.3221 193.239 25.3221 193.231C25.3948 192.594 25.4547 191.951 25.5074 191.301C25.5619 190.647 25.6073 189.987 25.6418 189.321C25.6618 188.988 25.6763 188.654 25.689 188.316C25.7653 186.475 25.7726 184.578 25.709 182.626C25.6981 182.31 25.6854 181.99 25.6709 181.67C25.6618 181.432 25.6509 181.194 25.6382 180.956C25.3403 175.333 24.4412 169.235 22.7937 162.558C17.4154 140.747 16.9214 120.934 20.2544 103.241C20.5541 101.635 20.8883 100.046 21.2534 98.4765C22.2161 94.3224 23.3949 90.2937 24.7718 86.3867C25.7726 83.5513 26.8787 80.7832 28.0848 78.0786C31.1926 71.1091 34.9634 64.5775 39.3028 58.498C54.7892 36.7869 77.503 20.8246 103.063 11.1106C158.348 -9.90852 226.949 -1.69668 264.535 40.812C297.343 77.9097 377.492 44.3557 437.026 72.3407C448.52 77.7426 459.246 85.4385 468.714 96.3786C470.242 98.1441 471.735 99.9932 473.195 101.931C477.502 107.649 481.507 114.137 485.158 121.499C485.312 121.81 485.469 122.124 485.621 122.438C488.722 128.812 491.562 135.832 494.105 143.559C495.197 146.879 496.152 150.207 496.975 153.535C497.141 154.194 497.297 154.851 497.451 155.509C499.487 164.269 500.637 173.022 501.073 181.67C501.077 181.745 501.08 181.821 501.084 181.894C501.147 183.201 501.195 184.506 501.229 185.808C501.231 185.839 501.231 185.871 501.231 185.902C501.286 188.135 501.293 190.36 501.256 192.574Z" fill="#F8BE3E"/>
<path opacity="0.1" d="M501.274 190.934C501.271 191.48 501.265 192.027 501.256 192.574C501.222 194.841 501.14 197.098 501.015 199.343C500.969 200.181 500.918 201.015 500.86 201.848C500.739 203.616 500.591 205.374 500.419 207.123C500.292 208.427 500.15 209.728 499.996 211.021C498.913 220.112 497.204 228.923 495.099 237.306C491.818 250.36 486.244 262.252 478.906 272.556C477.996 273.835 477.058 275.09 476.094 276.32C474.129 278.828 472.054 281.229 469.878 283.52C467.17 286.373 464.306 289.051 461.305 291.541C444.674 305.345 423.8 313.39 401.555 313.397L339.669 313.417L250.64 313.448L245.483 313.446L99.7225 313.397C68.6606 313.387 40.2761 297.82 22.3721 272.845L34.0605 245.347L49.447 209.146L53.3104 200.056L57.7097 189.704L61.0282 181.894H501.084C501.149 183.201 501.198 184.505 501.229 185.808C501.231 185.839 501.231 185.871 501.231 185.902C501.245 186.493 501.256 187.081 501.263 187.67C501.267 187.986 501.269 188.302 501.273 188.616C501.274 188.865 501.278 189.114 501.278 189.362C501.278 189.475 501.28 189.59 501.28 189.702C501.28 190.084 501.278 190.463 501.274 190.843C501.274 190.874 501.274 190.905 501.274 190.934Z" fill="#51BE5F"/>
<path opacity="0.1" d="M359.82 108.129C359.82 108.129 364.561 102.563 375.897 103.183C375.897 103.183 392.355 93.9065 409.907 101.946C409.907 101.946 428.563 99.9532 442.38 103.671C451.593 106.149 454.635 108.748 454.635 108.748L359.82 108.129Z" fill="#51BE5F"/>
<path opacity="0.1" d="M237.567 133.978C237.567 133.978 244.995 120.28 262.757 121.803C262.757 121.803 288.544 98.9725 316.042 118.758C316.042 118.758 345.273 113.856 366.921 123.003C381.354 129.103 386.122 135.5 386.122 135.5L237.567 133.978Z" fill="#51BE5F"/>
<path opacity="0.1" d="M193.711 57.6607C193.711 57.6607 196.63 51.4323 203.612 52.1244C203.612 52.1244 213.747 41.7419 224.557 50.7403C224.557 50.7403 236.047 48.5116 244.555 52.6711C250.228 55.4447 252.102 58.3545 252.102 58.3545L193.711 57.6607Z" fill="#51BE5F"/>
<path opacity="0.1" d="M324.289 97.1033C328.36 97.1033 331.661 93.8024 331.661 89.7306C331.661 85.6588 328.36 82.3579 324.289 82.3579C320.217 82.3579 316.916 85.6588 316.916 89.7306C316.916 93.8024 320.217 97.1033 324.289 97.1033Z" fill="#51BE5F"/>
<path d="M469.878 283.52C467.17 286.374 464.306 289.051 461.305 291.541C444.674 305.346 423.801 313.39 401.555 313.398L339.67 313.418L250.64 313.449L245.474 313.45L47.3239 313.519C27.7252 313.525 12.1715 301.435 4.75164 285.122C1.68015 278.374 0 270.904 0 263.268C0 263.082 0.00181715 262.895 0.00363353 262.71C0.00544991 262.545 0.00726506 262.381 0.0108978 262.216C0.0199797 261.822 0.0326956 261.426 0.0490429 261.03C0.0563085 260.843 0.0653892 260.656 0.0762875 260.468C0.0871857 260.27 0.0980845 260.072 0.110799 259.873C0.123514 259.696 0.134413 259.52 0.148944 259.346C0.165292 259.144 0.181637 258.943 0.197984 258.741C0.24521 258.194 0.301518 257.646 0.368724 257.097C0.390521 256.917 0.412316 256.739 0.435929 256.561C0.490421 256.155 0.548546 255.748 0.610303 255.341C0.635732 255.176 0.662978 255.01 0.690224 254.847C0.750164 254.473 0.817369 254.097 0.888208 253.722C0.951781 253.386 1.01717 253.05 1.08801 252.714C1.13705 252.48 1.18791 252.246 1.23877 252.011C1.32051 251.654 1.40406 251.296 1.49125 250.938C1.49306 250.931 1.49488 250.923 1.4967 250.916C1.54392 250.729 1.59115 250.544 1.63837 250.357C1.68741 250.17 1.73646 249.984 1.78731 249.797C2.03797 248.865 2.3177 247.935 2.62648 247.009C2.71912 246.729 2.81538 246.45 2.91347 246.172C2.9952 245.941 3.07876 245.71 3.16413 245.478C3.18048 245.434 3.19501 245.391 3.21135 245.347C3.2168 245.334 3.22043 245.322 3.22588 245.309C3.35848 244.955 3.49289 244.599 3.63457 244.246C3.64002 244.232 3.64547 244.216 3.65273 244.201C3.80168 243.827 3.95425 243.453 4.11409 243.078C4.19401 242.891 4.27393 242.702 4.35749 242.515C4.43922 242.328 4.52278 242.139 4.60815 241.952C4.69352 241.765 4.77889 241.578 4.86608 241.391C4.95326 241.204 5.04045 241.019 5.13126 240.832C5.22027 240.645 5.31109 240.459 5.40372 240.274C5.57446 239.931 5.74884 239.587 5.92866 239.246C5.97952 239.146 6.03219 239.046 6.08668 238.946C6.32281 238.503 6.5662 238.06 6.81686 237.62C6.86045 237.542 6.90586 237.464 6.95127 237.386C7.03301 237.242 7.11475 237.099 7.20012 236.957C7.30729 236.774 7.41445 236.592 7.52525 236.411C7.7305 236.071 7.93575 235.731 8.14281 235.39C8.34262 235.059 8.54424 234.727 8.74585 234.394C9.45061 233.234 10.1572 232.069 10.8619 230.896C11.1053 230.491 11.3469 230.086 11.5903 229.679C12.2733 228.531 12.9526 227.372 13.6228 226.203C13.7463 225.985 13.8717 225.767 13.9952 225.549C14.0079 225.527 14.0206 225.505 14.0333 225.481C14.3821 224.864 14.729 224.244 15.0723 223.62C15.1795 223.425 15.2848 223.231 15.3902 223.037C15.5845 222.681 15.7752 222.325 15.966 221.967C16.0604 221.789 16.1549 221.611 16.2475 221.433C16.3165 221.302 16.3855 221.171 16.4546 221.039C16.5436 220.868 16.6326 220.695 16.7197 220.525C16.8451 220.283 16.9686 220.04 17.0903 219.796C17.3173 219.351 17.5389 218.904 17.7587 218.454C17.9004 218.167 18.0384 217.878 18.1765 217.587C18.2909 217.348 18.4035 217.106 18.5161 216.866C18.7541 216.358 18.9884 215.847 19.2155 215.331C19.3154 215.11 19.4134 214.886 19.5097 214.663C19.764 214.084 20.011 213.497 20.2526 212.907C20.3198 212.743 20.387 212.578 20.4524 212.413C20.6558 211.911 20.8538 211.406 21.0445 210.896C21.1045 210.742 21.1626 210.587 21.2207 210.431C21.5422 209.566 21.851 208.687 22.1453 207.797C22.2088 207.605 22.2724 207.41 22.3342 207.216C22.454 206.847 22.5703 206.475 22.6829 206.101C22.7029 206.039 22.7211 205.977 22.741 205.915C22.801 205.717 22.8591 205.518 22.9172 205.318C22.9808 205.105 23.0407 204.891 23.1007 204.677C23.1624 204.462 23.2224 204.246 23.2805 204.03C23.3986 203.598 23.513 203.164 23.622 202.724C23.6783 202.506 23.7328 202.286 23.7836 202.065C23.8381 201.845 23.8908 201.623 23.9417 201.4C23.9925 201.176 24.0434 200.955 24.0924 200.73C24.1324 200.553 24.1705 200.375 24.2069 200.197C24.2177 200.15 24.2286 200.103 24.2377 200.056C24.2432 200.034 24.2486 200.012 24.2523 199.989C24.2904 199.809 24.3286 199.629 24.3631 199.447C24.3958 199.286 24.4285 199.124 24.4593 198.962C24.4811 198.855 24.5011 198.748 24.5193 198.641C24.561 198.432 24.5992 198.223 24.6355 198.012C24.6482 197.949 24.6609 197.885 24.67 197.82C24.71 197.605 24.7463 197.388 24.7808 197.171C24.8026 197.048 24.8226 196.924 24.8426 196.801C24.8735 196.608 24.9043 196.414 24.9334 196.22C24.9461 196.145 24.9588 196.069 24.9679 195.993C25.0061 195.747 25.0406 195.5 25.0751 195.253C25.0842 195.184 25.0951 195.115 25.1041 195.044C25.1423 194.763 25.1786 194.478 25.2131 194.193C25.2513 193.88 25.2876 193.568 25.3221 193.252C25.3239 193.244 25.3239 193.239 25.3239 193.232C25.3948 192.594 25.4547 191.951 25.5092 191.301C25.5619 190.647 25.6073 189.988 25.6436 189.321C25.6618 188.989 25.6763 188.653 25.6908 188.317C25.7653 186.475 25.7744 184.58 25.7108 182.626C25.6999 182.31 25.6872 181.99 25.6727 181.67H180.261C180.261 181.67 180.61 181.67 181.242 181.674C181.834 181.679 182.673 181.689 183.71 181.707C184.224 181.716 184.787 181.727 185.392 181.739C186.865 181.772 188.585 181.821 190.465 181.894C192.349 181.966 194.392 182.063 196.499 182.19C198.882 182.333 201.347 182.517 203.761 182.751C204.237 182.798 204.709 182.846 205.18 182.896C205.538 182.935 205.892 182.973 206.244 183.013C206.735 183.069 207.22 183.127 207.699 183.189C219.66 184.706 228.289 187.732 215.146 193.78C213.733 194.43 210.858 195.228 207.256 196.189C207.105 196.229 206.953 196.27 206.798 196.31C204.42 196.944 201.749 197.645 198.984 198.421C198.984 198.421 198.982 198.421 198.982 198.423C198.512 198.554 198.04 198.688 197.565 198.824C196.457 199.142 195.34 199.471 194.225 199.814C192.296 200.405 190.378 201.031 188.534 201.698C185.225 202.889 182.155 204.203 179.701 205.645C174.855 208.489 172.403 211.839 175.231 215.755C175.259 215.793 175.289 215.833 175.324 215.871C176.614 217.369 181.823 218.732 189.855 219.994C190.002 220.018 190.151 220.041 190.3 220.063C190.649 220.118 191.001 220.17 191.359 220.225C195.789 220.886 200.991 221.52 206.804 222.132C207.267 222.181 207.735 222.228 208.209 222.277C222.829 223.781 241.097 225.151 260.545 226.459C263.168 226.637 265.812 226.811 268.473 226.985C268.646 226.998 268.818 227.009 268.993 227.02C269.102 227.027 269.209 227.034 269.318 227.042C275.688 227.459 282.143 227.872 288.6 228.282C294.467 228.655 300.334 229.025 306.141 229.396C308.697 229.559 311.242 229.721 313.768 229.886C316.727 230.077 319.664 230.268 322.567 230.46C330.893 231.012 338.956 231.566 346.554 232.131C350.092 232.395 353.531 232.66 356.847 232.929C358.7 233.077 360.516 233.228 362.289 233.381C365.782 233.681 369.115 233.982 372.261 234.289C394.599 236.474 407.513 238.899 401.347 241.865C401.265 241.905 401.18 241.945 401.092 241.983C399.975 242.483 398.32 242.997 396.085 243.527C338.238 257.255 368.467 276.093 469.878 283.52Z" fill="#FFE0B3"/>
<path d="M339.669 313.417L250.64 313.448L245.47 313.45L47.3236 313.517C27.7249 313.525 12.1713 301.433 4.75139 285.122C-0.717717 273.105 -1.77485 258.797 3.2111 245.345C4.33544 242.312 5.76493 239.32 7.52319 236.409C14.0912 225.532 21.2005 214.494 24.2357 200.054H94.1516C94.1516 200.054 98.4891 200.052 104.358 200.277C120.545 200.9 148.389 203.26 129.039 212.162C122.133 215.339 80.378 222.026 89.1239 234.138C97.8716 246.248 362.089 249.546 309.977 261.91C264.15 272.789 280.481 299.213 339.669 313.417Z" fill="#FFE6C5"/>
<path d="M265.133 307.204C256.743 309.195 250.208 311.294 245.47 313.45L47.3236 313.517C27.7249 313.525 12.1713 301.433 4.75139 285.122C-0.717717 273.105 -1.77485 258.797 3.2111 245.345H49.3089C49.3089 245.345 53.6464 245.343 59.5152 245.569C75.7027 246.192 103.546 248.551 84.1961 257.453C77.2902 260.63 35.5354 267.318 44.2812 279.43C53.0271 291.541 317.245 294.84 265.133 307.204Z" fill="#FFF0E2"/>
<path d="M66.374 84.8299C66.0289 82.1253 64.9754 79.8367 62.7013 78.6815C62.7013 78.6815 57.7444 76.0623 53.7193 77.6116C53.7193 77.6116 54.2225 78.3564 55.0525 79.5098C49.8468 76.1749 43.4096 73.6592 35.8716 73.6937C35.8716 73.6937 37.7061 75.9115 40.4289 78.8649C36.5691 78.0784 32.4259 77.7333 28.0848 78.0784C26.8787 80.783 25.7725 83.5512 24.7717 86.3866C25.9814 86.9605 27.2583 87.5563 28.5934 88.163C30.526 86.7662 33.009 85.353 35.2413 85.0188C35.2413 85.0188 33.4322 87.0568 32.277 89.8068C33.7537 90.4425 35.2595 91.0746 36.7871 91.6904C31.6067 92.822 26.3029 94.9253 21.2534 98.4764C20.8883 100.046 20.5541 101.635 20.2544 103.241C20.6467 103.281 21.0609 103.324 21.4986 103.366C23.8054 103.588 26.6844 103.849 29.8648 104.062C30.7985 104.129 31.7521 104.178 32.7256 104.229C33.543 104.283 34.364 104.32 35.1905 104.363C35.2958 104.209 35.403 104.034 35.512 103.862C36.5073 102.349 37.975 100.367 39.4608 99.3809C39.4608 99.3809 38.9958 102.336 38.7433 104.405C38.7288 104.432 38.736 104.463 38.7233 104.49C38.8305 104.492 38.9376 104.494 39.0448 104.496C39.0557 104.49 39.0557 104.49 39.0557 104.49C42.4251 104.587 45.809 104.57 48.9786 104.42C49.1638 103.059 49.4363 100.398 48.9967 99.5135C48.9967 99.5135 51.2999 100.901 51.487 104.254C52.1845 104.194 52.8547 104.133 53.4995 104.056C53.6321 104.044 53.7647 104.027 53.8955 104.009C55.7736 103.778 57.4447 103.459 58.9305 103.072C60.4835 102.67 61.8313 102.2 63.001 101.693C63.2262 101.597 63.4406 101.499 63.6513 101.399C63.9364 100.222 67.2077 91.3325 66.374 84.8299ZM63.6513 101.399C63.604 101.584 63.6331 101.579 63.7621 101.348C63.7257 101.366 63.6894 101.383 63.6513 101.399ZM106.828 120.346C106.676 119.935 106.52 119.53 106.354 119.13C105.237 116.364 103.889 113.852 102.375 111.572C101.773 110.666 101.145 109.794 100.493 108.96C100.377 108.808 100.257 108.657 100.135 108.508C100.108 108.472 100.079 108.436 100.05 108.399C99.9588 108.287 99.868 108.176 99.7754 108.065C97.9572 105.856 95.9809 103.906 93.9266 102.187C97.9317 102.476 100.809 102.531 100.809 102.531C96.1426 96.6091 90.1667 93.1398 84.3162 91.1455C85.7348 91.0746 86.6302 91.0056 86.6302 91.0056C86.2633 89.8413 85.5876 88.8259 84.8084 87.9686C82.8358 85.7999 80.1985 84.6465 80.1985 84.6465C78.9343 84.0689 77.7536 83.6493 76.6529 83.3587C71.6324 82.0363 68.2976 83.4186 66.374 84.8299C65.7946 85.2549 65.3441 85.68 65.0135 86.036C62.5905 80.9701 38.093 95.7191 44.0816 95.5338C46.1777 95.4684 52.3044 94.573 53.9573 94.4204C53.861 95.8535 54.7147 96.6527 56.3113 97.0233C56.7381 97.1195 57.1668 97.174 57.5918 97.1886C57.0088 98.0368 55.5266 100.356 53.4995 104.056C49.3709 111.589 42.9809 124.847 37.312 143.079C32.7275 157.821 30.021 175.04 29.1056 181.67C28.8822 183.288 28.7641 184.277 28.7532 184.44C28.7532 184.44 29.952 185.539 33.227 185.81C36.2984 186.062 38.776 185.23 38.776 185.23C38.8178 184.682 38.9431 183.448 39.1502 181.67C40.062 173.798 42.5468 155.234 46.2504 137.993C49.9957 120.554 55.5466 109.204 58.9305 103.072C60.4835 102.67 61.8313 102.2 63.001 101.693C63.6803 103.395 64.6139 105.268 65.8672 107.308C66.0707 107.645 66.285 107.987 66.5102 108.334C66.7228 108.664 66.9462 109 67.175 109.344C69.9141 107.406 72.4353 108.339 72.4353 108.339C71.4708 108.546 69.5563 110.419 68.6082 111.409C70.4663 113.986 72.5588 116.644 74.733 119.218C74.733 119.218 74.733 119.218 74.733 119.232C74.8038 119.314 74.871 119.396 74.9401 119.477C74.9528 119.452 74.98 119.437 74.9964 119.41C75.3179 119.081 75.6684 118.718 76.0153 118.351C77.2487 117.058 78.4783 115.719 78.4783 115.719C78.6291 117.496 77.997 119.877 77.4321 121.599C77.3649 121.793 77.2941 121.986 77.2378 122.164C77.7899 122.783 78.3258 123.402 78.878 124.007C79.5228 124.739 80.1585 125.455 80.7906 126.143C81.5135 126.935 82.2183 127.696 82.8976 128.421C83.3135 128.868 83.7204 129.302 84.1164 129.72C84.9919 130.643 85.8092 131.494 86.5467 132.256C87.2206 132.948 87.8272 133.565 88.3485 134.094C89.0678 134.826 89.6273 135.387 89.9887 135.738C90.263 136.014 90.4156 136.166 90.4156 136.166C90.4283 136.028 90.4428 135.89 90.4428 135.767C90.4755 135.387 90.5046 135.013 90.5264 134.64C90.5627 134.081 90.5863 133.525 90.5954 132.971C90.7316 126.712 89.5346 121.116 87.5693 116.186C87.4967 116.004 87.4222 115.825 87.3477 115.643C86.9772 114.747 86.5794 113.874 86.1616 113.022C86.8282 113.402 87.4967 113.774 88.1633 114.139C88.2741 114.201 88.3831 114.262 88.4939 114.321C89.1459 114.678 89.7962 115.031 90.4428 115.376C91.2983 113.814 91.8087 112.226 92.083 111.202C92.103 111.124 92.123 111.049 92.1393 110.978C92.2828 110.419 92.3428 110.076 92.3428 110.076C92.4608 110.283 92.5734 110.497 92.677 110.722C92.6951 110.762 92.7151 110.804 92.7333 110.844V110.846C93.5761 112.729 93.9266 115.151 94.0229 117.236C94.4098 117.434 94.793 117.628 95.1727 117.819C95.8429 118.157 96.4986 118.484 97.1398 118.798C97.9535 119.201 98.7437 119.583 99.5011 119.946C99.5411 119.881 99.5792 119.813 99.6173 119.748C100.869 117.55 100.729 115.294 100.729 115.294C101.882 117.207 102.642 119.891 103.067 121.641C103.523 121.846 103.948 122.038 104.347 122.233C104.794 122.436 105.206 122.623 105.579 122.79C107.074 123.464 107.956 123.844 107.956 123.844C107.613 122.631 107.241 121.475 106.828 120.346Z" fill="#F8BE3E"/>
<path d="M105.622 12.2257C105.622 12.2257 104.641 11.708 103.063 11.1105C99.8261 9.88803 94.0755 8.33867 89.095 10.2568C89.095 10.2568 90.0213 11.6245 91.5471 13.746C81.9675 7.60848 70.1229 2.98217 56.2494 3.04756C56.2494 3.04756 59.6261 7.12714 64.6357 12.5636C52.2988 10.0461 38.3872 9.97885 23.7018 14.8032C21.6021 15.5025 19.5114 16.2926 17.3735 17.1862C17.3735 17.1862 19.8038 18.4886 23.8271 20.5338C24.5609 20.8862 25.3275 21.2803 26.1466 21.6981C29.1527 20.3086 33.8862 18.3215 37.9676 17.7929C37.9676 17.7929 34.3439 20.3213 32.6711 24.8913C35.7825 26.3989 39.2046 28.0137 42.8573 29.672C46.412 27.1018 50.9819 24.5008 55.0906 23.885C55.0906 23.885 51.7612 27.6377 49.636 32.6963C52.3515 33.8715 55.1233 35.0321 57.9332 36.1637C46.599 38.6449 34.9415 43.649 24.1286 52.6455C22.8154 53.7227 21.5512 54.8597 20.2779 56.0658C20.0981 56.2093 19.9165 56.3855 19.7348 56.5635C19.7348 56.5635 20.1253 56.6089 20.8374 56.6888C22.4194 56.8868 25.5727 57.2265 29.7976 57.6533C32.5639 57.9203 35.7789 58.2146 39.3027 58.4979C41.1862 58.6487 43.157 58.7958 45.195 58.932C46.9133 59.0555 48.6697 59.1464 50.4625 59.2426C51.9646 59.3407 53.4722 59.4043 54.9962 59.486C55.1905 59.2027 55.3885 58.883 55.5883 58.5633C57.4192 55.777 60.122 52.1351 62.8538 50.3188C62.8538 50.3188 62.0019 55.757 61.5333 59.5623C61.5097 59.6132 61.5206 59.6695 61.497 59.7203C61.6949 59.724 61.8929 59.7294 62.0909 59.7331C62.1109 59.7185 62.1109 59.7185 62.1109 59.7185C68.3102 59.9002 74.5349 59.8675 80.3727 59.5932C80.7106 57.0884 81.2137 52.1878 80.4054 50.5622C80.4054 50.5622 84.6412 53.1178 84.9863 59.288C86.2687 59.1772 87.5038 59.0646 88.6917 58.9248C88.937 58.8957 89.1785 58.8666 89.4201 58.8358C95.0309 58.151 108.886 38.8847 110.692 24.9458C111.42 19.3078 110.178 14.5398 105.622 12.2257ZM187.893 91.9919C187.59 91.0528 187.272 90.1265 186.94 89.211C186.905 89.1075 186.867 89.004 186.829 88.9004C186.442 87.8578 186.039 86.8334 185.617 85.8289C185.014 84.3849 184.378 82.9809 183.71 81.6131C183.025 80.2127 182.31 78.8522 181.565 77.5299C176.486 68.5316 170.029 61.2933 163.089 55.4809C170.461 56.0131 175.756 56.1148 175.756 56.1148C167.168 45.2202 156.17 38.8338 145.403 35.1611C148.013 35.034 149.66 34.9068 149.66 34.9068C147.277 27.3307 137.827 23.2021 137.827 23.2021C122.927 16.3943 114.354 21.5074 110.692 24.9458C110.388 25.231 110.118 25.5052 109.88 25.7595C105.421 16.4361 60.3363 43.5782 71.3599 43.2367C75.2161 43.1168 86.4939 41.4694 89.5345 41.1915C89.3565 43.8252 90.9277 45.2947 93.8666 45.9794C94.6513 46.1574 95.4378 46.2573 96.2225 46.2828C95.1526 47.8449 92.4244 52.1133 88.6917 58.9248C85.3333 65.0514 81.1629 73.236 76.6528 83.3587C73.3888 90.6841 69.9467 99.0231 66.5102 108.334C63.9454 115.271 61.3843 122.745 58.8995 130.741C53.5558 147.922 49.5997 166.937 46.9877 181.67C45.6563 189.183 44.6737 195.582 44.0361 200.055C43.4676 204.041 43.1733 206.496 43.1479 206.852C43.1479 206.852 44.8771 208.438 49.4471 209.146C50.0429 209.239 50.6877 209.315 51.3834 209.373C57.0359 209.838 61.5932 208.309 61.5932 208.309C61.6822 207.132 61.9819 204.246 62.4796 200.055C63.0318 195.418 63.8274 189.183 64.8518 181.893C64.8609 181.819 64.8718 181.745 64.8827 181.67C67.2403 164.89 70.795 142.591 75.3487 121.381C75.5684 120.36 75.79 119.35 76.0153 118.351C78.6454 106.719 81.7005 96.6182 84.8083 87.9686C93.5124 63.7472 102.627 50.9055 103.977 47.6523C105.066 52.3894 107.295 58.1419 111.451 64.9061C112.187 66.1231 112.997 67.3636 113.858 68.6569C118.9 65.0841 123.537 66.806 123.537 66.806C121.763 67.1875 118.241 70.6331 116.493 72.4568C117.02 73.187 117.558 73.9208 118.104 74.6564C120.595 78.0113 123.276 81.4188 126.055 84.7718C126.621 85.4584 127.192 86.1414 127.767 86.8225C127.767 86.8225 127.767 86.8225 127.767 86.8479C127.895 87.0005 128.022 87.1531 128.149 87.3038C128.173 87.2548 128.223 87.2294 128.249 87.1785C130.935 84.4412 134.659 80.3871 134.659 80.3871C134.939 83.6565 133.772 88.0395 132.733 91.2072C132.608 91.5614 132.481 91.9156 132.379 92.2462C133.393 93.3851 134.381 94.5257 135.394 95.641C136.586 96.9833 137.75 98.302 138.916 99.568C142.869 103.9 146.543 107.753 149.508 110.817C152.472 113.857 154.701 116.113 155.841 117.229C156.348 117.735 156.628 118.013 156.628 118.013C156.653 117.761 156.679 117.507 156.679 117.279C156.829 115.53 156.931 113.832 156.957 112.136C157.009 109.689 156.951 107.297 156.793 104.961C156.653 102.892 156.434 100.865 156.143 98.8832C154.875 90.2391 152.238 82.4178 148.797 75.4211C151.433 76.916 154.069 78.36 156.679 79.755C159.312 74.9398 160.175 69.9992 160.175 69.9992C162.253 73.5975 163.063 78.7923 163.265 83.1752C166.838 84.9988 170.233 86.6717 173.349 88.1666C173.729 87.5454 174.045 86.9188 174.307 86.3012C175.395 83.7565 175.587 81.3824 175.613 80.2672C175.62 79.844 175.605 79.6024 175.605 79.6024C175.673 79.715 175.74 79.8294 175.809 79.9439C176.933 81.8965 177.845 84.236 178.564 86.4629C178.788 87.1585 178.995 87.8451 179.182 88.5045C179.467 89.5089 179.71 90.4534 179.912 91.2835C180.748 91.6631 181.534 92.0173 182.268 92.3715C182.493 92.4751 182.713 92.575 182.929 92.673C183.298 92.8402 183.652 93.0018 183.992 93.1544C187.07 94.5475 188.907 95.3359 188.907 95.3359C188.583 94.197 188.246 93.0854 187.893 91.9919Z" fill="#51BE5F"/>
<path d="M198.998 198.414C198.998 198.414 163.12 202.749 166.483 206.337C169.847 209.924 161.354 206.998 158.887 210.585C156.421 214.172 168.725 213.737 168.725 216.652C168.725 219.567 154.822 221.362 159.979 224.949C165.136 228.536 207.294 223.38 207.519 226.295C207.742 229.21 196.755 235.489 212.678 234.816C228.598 234.144 253.49 225.398 251.92 228.762C250.351 232.126 269.187 226.967 269.187 226.967C269.187 226.967 258.349 227.416 256.256 224.575C254.442 222.112 263.133 216.801 246.241 220.388C243.342 221.004 226.695 223.678 218.136 222.78C209.817 221.908 229.443 217.246 221.874 215.903C216.99 215.037 194.973 216.483 191.264 215.529C184.635 213.826 201.131 208.578 190.031 207.457C180.657 206.511 198.998 198.414 198.998 198.414Z" fill="white"/>
<path d="M476.094 276.32C474.129 278.828 472.054 281.229 469.878 283.52C467.17 286.373 464.306 289.051 461.305 291.541C449.833 288.491 453.905 281.356 422.692 283.267C389.731 285.285 397.803 282.257 403.521 277.549C409.239 272.839 348.361 274.857 345.669 270.149C342.979 265.441 356.769 262.077 354.415 256.359C353.803 254.874 356.663 253.163 361.235 251.442C363.422 250.616 366.005 249.79 368.784 248.987C382.543 245.003 401.167 241.56 401.167 241.56C401.239 241.661 401.299 241.763 401.345 241.865C401.657 242.548 401.397 243.229 400.742 243.908C396.971 247.817 380.144 251.65 384.349 255.013C389.395 259.049 432.448 248.623 418.994 258.041C405.54 267.459 434.802 268.467 455.656 264.095C476.51 259.723 467.764 271.495 475.164 275.867C475.453 276.038 475.763 276.189 476.094 276.32Z" fill="white"/>
<path d="M275.689 227.192C275.689 227.192 304.971 228.78 302.279 232.48C299.587 236.18 305.643 236.852 324.479 235.17C343.315 233.488 371.965 232.948 369.424 235.34C366.882 237.733 373.46 239.376 383.028 238.779C392.595 238.181 403.461 239.111 401.168 241.561L400.669 244.31C400.669 244.31 409.489 238.179 402.164 236.684C394.838 235.19 373.013 233.395 375.254 231.602C377.497 229.808 373.162 226.669 361.649 228.464C350.139 230.258 310.373 231.453 313.512 229.361C316.651 227.268 289.743 225.174 275.689 227.192Z" fill="white"/>
<path d="M177.199 120.309L176.015 119.768L157.285 160.77L158.47 161.311L177.199 120.309Z" fill="#5ECD6C"/>
<path d="M164.675 271.465L161.102 270.308C161.102 270.308 160.361 260.614 161.951 248.996C162.957 241.636 164.802 233.664 168.144 227.261C169.657 224.364 171.476 221.787 173.663 219.734C173.663 219.734 176.403 213.372 180.033 204.865C184.069 195.409 209.323 192.638 194.912 212.447C191.955 216.512 188.78 223.667 184.975 228.013C178.472 235.442 173.884 244.114 170.735 251.748C166.232 262.668 164.675 271.465 164.675 271.465Z" fill="#FFB27D"/>
<path d="M156.543 272.006C155.461 273.761 157.798 275.479 160.69 277.099C163.582 278.719 162.385 278.881 166.083 281.635C169.781 284.388 171.96 284.085 172.527 283.682C173.03 283.326 171.519 281.626 169.933 279.764C169.734 279.531 169.536 279.293 169.336 279.057C167.565 276.936 167.301 274.273 166.471 271.512C165.685 268.896 166.933 262.394 166.933 262.394L161.996 258.472C161.996 258.472 160.993 264.384 160.441 266.847C160.116 268.295 158.932 269.508 157.973 270.4C157.453 270.887 156.925 271.387 156.543 272.006Z" fill="#FFB27D"/>
<path d="M208.649 186.908C208.475 188.234 208.34 191.075 207.492 190.921C206.802 190.794 206.084 187.03 205.332 186.122C204.241 184.805 203.605 182.342 203.536 181.761C203.398 180.564 203.116 180.268 203.116 180.268L203.118 180.266H203.114C203.114 180.266 196.243 159.579 196.314 154.615C196.334 152.999 196.232 149.731 196.081 146.064C195.918 142.077 195.698 137.616 195.529 134.274C198.931 134.23 202.606 134.666 205.581 135.147C205.476 139.156 205.29 143.237 205.127 146.785C204.882 152.059 204.682 156.15 204.851 157.065C205.318 159.577 205.483 172.69 206.613 179.688C206.762 180.384 206.834 181.772 207.368 182.644C208.013 183.694 208.885 185.099 208.649 186.908Z" fill="#FFB27D"/>
<path d="M198.45 165.061C192.672 146.59 204.303 146.832 203.701 137.588C203.1 128.347 195.944 118.408 195.944 118.408C195.944 118.408 195.688 118.382 195.241 118.34C194.996 118.319 194.785 118.159 194.7 117.926C194.433 117.196 194.354 115.598 194.36 113.932C194.365 111.387 194.561 108.686 194.561 108.686L185.979 106.986L185.469 106.886C185.485 111.204 184.668 114.448 183.783 116.261C183.362 117.123 182.541 117.712 181.591 117.846C179.747 118.104 176.503 118.656 174.316 119.57C173.254 120.013 172.443 120.542 172.16 121.163C169.804 126.345 167.45 139.423 165.797 148.752C164.876 153.952 164.005 157.213 163.807 158.842C163.494 161.419 171.65 163.188 172.672 158.33C173.007 156.748 173.824 153.583 174.779 150.038C174.923 149.502 175.072 148.955 175.221 148.407C176.906 152.979 177.767 155.095 177.72 157.071C177.653 159.883 175.747 162.409 171.762 171.344C169.561 176.285 204.35 183.924 198.45 165.061Z" fill="#FFB27D"/>
<path d="M194.559 108.688C194.559 108.688 194.363 111.389 194.358 113.934C189.555 113.798 187.018 109.418 185.977 106.99L194.559 108.688Z" fill="#E8945B"/>
<path d="M212.019 276.046L208.373 276.943C208.373 276.943 202.639 269.092 197.873 258.379C194.852 251.592 192.224 243.843 191.695 236.641C191.455 233.381 191.644 230.233 192.423 227.336C192.423 227.336 191.403 220.484 190.009 211.341C188.462 201.176 186.455 188.182 184.882 178.626L185.83 178.344L201.342 169.273C201.342 169.273 208.471 185.523 206.649 209.951C206.275 214.963 207.345 222.719 206.397 228.416C204.78 238.156 205.445 247.944 206.787 256.093C208.711 267.748 212.019 276.046 212.019 276.046Z" fill="#FFB27D"/>
<path d="M168.704 179.639C171.208 166.083 177.88 161.021 176.814 160.166C176.803 160.155 176.797 160.149 176.797 160.149C172.683 157.23 174.461 152.219 174.732 150.426C173.47 150.766 169.392 151.536 164.728 148.962C166.649 139.568 169.388 126.396 172.131 121.177C172.264 120.923 172.493 120.689 172.805 120.465C172.783 120.443 172.778 120.432 172.778 120.432C175.346 118.56 180.595 117.986 180.595 117.986C180.595 117.986 183.423 124.912 184.29 125.994C189.89 132.989 199.947 129.832 198.578 125.475C198.083 123.887 195.542 118.894 195.234 118.336C195.217 118.309 195.946 118.405 195.946 118.405C197.633 118.629 198.828 118.798 199.687 118.947C201.375 119.234 201.794 119.435 202.214 119.759C203.694 121.239 205.621 124.917 205.776 131.483C205.834 133.925 208.377 160.881 200.151 160.415C199.965 160.404 200.123 160.845 200.479 161.677C201.642 164.349 164.626 201.683 168.704 179.639Z" fill="#F8BE3E"/>
<path d="M205.391 280.788C205.394 282.849 208.286 283.08 211.597 282.933C214.909 282.787 213.977 283.556 218.57 283.95C223.164 284.344 224.859 282.938 225.128 282.297C225.367 281.729 223.188 281.078 220.861 280.332C220.568 280.239 220.274 280.143 219.98 280.045C217.357 279.175 215.731 277.048 213.572 275.139C211.525 273.33 209.163 267.143 209.163 267.143L202.902 266.409C202.902 266.409 205.164 271.964 205.99 274.349C206.477 275.751 206.108 277.406 205.763 278.67C205.576 279.356 205.389 280.061 205.391 280.788Z" fill="#FFB27D"/>
<path d="M208.268 248.627C194.549 256.467 160.928 229.339 160.964 228.618C161.155 224.78 164.626 201.683 168.702 179.641C171.206 166.086 177.878 161.023 176.812 160.168C177.066 160.375 180.935 163.496 188.032 163.071C194.385 162.689 199.279 161.892 200.477 161.679C201.64 164.349 204.935 171.046 205.89 179.64C209.002 207.595 208.268 248.627 208.268 248.627Z" fill="#0F0F0F"/>
<path d="M198.292 161.768C198.292 161.768 195.617 204.346 189.29 221.62C182.964 238.893 175.179 246.193 166.42 249.112C157.662 252.031 131.628 255.439 142.333 236.948C153.039 218.457 159.12 215.295 158.635 201.668C158.149 188.044 176.312 161.717 176.312 161.717L186.798 163.105L198.292 161.768Z" fill="#0F0F0F"/>
<path d="M176.797 160.151C176.797 160.151 188.031 164.839 200.15 160.417L200.766 162.316C200.766 162.316 188.298 166.647 176.312 161.719L176.797 160.151Z" fill="#ED7D2B"/>
<path d="M198.432 88.0761C198.432 88.0761 186.669 75.2561 181.198 84.0873C181.198 84.0873 176.895 86.1217 175.669 93.6705C174.418 101.374 179.109 107.767 181.661 106.209C183.298 105.21 185.291 106.65 185.291 106.65L198.432 88.0761Z" fill="#152847"/>
<path d="M195.911 109.563C195.911 109.563 183.471 110.372 183.087 102.616C182.704 94.8617 180.839 89.7431 188.765 88.8985C196.692 88.0539 198.383 90.9383 199.14 93.494C199.898 96.0532 199.137 109.153 195.911 109.563Z" fill="#F4A36C"/>
<path d="M193.255 105.077C193.255 105.077 193.515 105.98 195.782 105.729C195.782 105.729 197.686 105.519 197.578 104.518C197.578 104.518 195.693 103.893 193.255 105.077Z" fill="white"/>
<path d="M162.746 95.6373C162.746 95.6373 200.831 78.5379 210.629 77.0576C220.426 75.5772 223.696 75.2194 222.147 78.6742C220.595 82.1289 211.121 96.3239 194.777 98.2402C178.434 100.156 172.176 106.461 163.009 105.876C153.842 105.291 151.044 102.768 154.659 99.9439C158.274 97.1195 162.746 95.6373 162.746 95.6373Z" fill="#F8BE3E"/>
<path d="M174.327 94.3841C174.327 94.3841 173.493 83.2025 175.867 79.864C178.241 76.5237 183.482 78.4381 186.835 76.0296C190.188 73.6211 200.159 85.3876 200.159 85.3876C200.159 85.3876 189.761 94.2606 174.327 94.3841Z" fill="#FDCA5B"/>
<path d="M182.631 167.628L181.981 167.519L165.387 190.728C165.387 190.728 175.473 191.378 180.245 188.776C185.016 186.173 184.8 168.846 184.8 168.846L182.631 167.628Z" fill="#51BE5F"/>
<path d="M157.251 160.035C157.251 160.035 172.868 166.976 182.63 167.628C182.63 167.628 178.292 188.669 168.531 190.403C158.77 192.138 148.574 185.197 149.009 179.774C149.443 174.352 157.251 160.035 157.251 160.035Z" fill="#51BE5F"/>
<path d="M182.631 167.628C182.631 167.628 184.475 166.692 184.8 168.848C184.8 168.846 182.78 168.44 182.631 167.628Z" fill="#8FB5E2"/>
<path d="M183.579 168.278C183.229 168.278 182.94 168.003 182.929 167.656C182.926 167.54 182.546 155.966 181.696 144.203C180.161 122.975 178.461 119.59 177.802 119.119C177.511 118.912 177.446 118.511 177.654 118.222C177.865 117.935 178.272 117.869 178.563 118.077C179.716 118.899 181.431 122.492 182.993 144.114C183.845 155.903 184.224 167.498 184.228 167.615C184.239 167.969 183.957 168.265 183.598 168.278C183.594 168.278 183.587 168.278 183.579 168.278Z" fill="#5ECD6C"/>
<path d="M163.787 159.03C163.787 159.03 165.766 172.506 170.647 181.779L174.225 180.965L172.672 158.331C172.672 158.333 168.496 155.672 163.787 159.03Z" fill="#FFB27D"/>
<path d="M173.736 179.992C173.736 179.992 176.828 180.805 177.885 181.537C178.942 182.269 179.592 185.306 178.562 186.554C177.914 187.341 175.932 184.792 174.712 184.792C173.491 184.792 170.97 184.06 170.645 181.783C170.32 179.503 173.736 179.992 173.736 179.992Z" fill="#FFB27D"/>
<path d="M174.004 180.061C174.004 180.061 175.651 180.304 177.644 180.251C177.644 180.251 177.853 180.598 177.331 180.755C176.812 180.911 175.528 181.049 175.528 181.049L173.898 179.992L174.004 180.061Z" fill="#FFB27D"/>
<path d="M369.52 189.499L365.48 207.365L367.593 212.794C352.866 215.169 350.247 222.46 346.538 219.761C346.538 219.761 346.276 215.011 346.37 213.161C346.463 211.313 346.102 208.52 346.441 205.841L348.236 189.223C348.236 189.223 347.932 179 351.883 178.626C353.316 178.49 355.478 177.053 355.636 175.623C355.661 175.398 356.255 171.927 356.368 169.524L363.346 172.971C363.346 172.971 363.007 177.1 363.097 178.034C363.105 178.103 363.114 178.172 363.123 178.241C363.243 179.28 364.327 179.946 365.328 180.259C371.476 182.182 369.52 189.499 369.52 189.499Z" fill="#F8BE3E"/>
<path d="M365.915 189.952C366.167 189.952 366.371 189.748 366.371 189.496C366.371 189.245 366.167 189.041 365.915 189.041C365.663 189.041 365.459 189.245 365.459 189.496C365.459 189.748 365.663 189.952 365.915 189.952Z" fill="#F8BE3E"/>
<path d="M354.811 188.534C355.063 188.534 355.267 188.33 355.267 188.078C355.267 187.826 355.063 187.622 354.811 187.622C354.56 187.622 354.355 187.826 354.355 188.078C354.355 188.33 354.56 188.534 354.811 188.534Z" fill="#F8BE3E"/>
<path d="M366.082 211.974C366.082 211.974 373.896 231.495 372.148 239.667C370.401 247.838 363.906 257.854 363.906 257.854L360.18 255.444C360.18 255.444 364.434 240.515 363.223 236.502C362.011 232.492 356.875 215.18 356.875 215.18L366.082 211.974Z" fill="#FFB27D"/>
<path d="M364.382 255.816C364.382 255.816 364.85 259.413 366.699 262.101C368.548 264.789 369.5 266.529 368.098 266.931C366.698 267.332 363.279 264.363 361.539 263.111C359.799 261.86 355.91 260.659 360.11 254.618L364.382 255.816Z" fill="#FFB27D"/>
<path d="M358.055 214.205C358.055 214.205 358.895 235.887 353.233 242.033C349.849 245.71 333.275 246.783 333.275 246.783L331.26 243.358C331.26 243.358 346.293 236.528 346.402 235.478C346.834 231.31 346.371 213.162 346.371 213.162L358.055 214.205Z" fill="#FFB27D"/>
<path d="M333.4 246.753C333.4 246.753 329.876 247.613 327.408 249.746C324.939 251.878 323.313 253.015 322.761 251.668C322.209 250.32 324.785 246.595 325.838 244.727C326.892 242.86 327.656 238.862 334.125 242.375L333.4 246.753Z" fill="#FFB27D"/>
<path d="M365.326 180.258C365.326 180.258 368.523 180.771 374.608 177.387C379.543 174.642 386.725 161.03 386.725 161.03L389.093 162.14C389.093 162.14 384.349 178.173 381.19 181.397C378.032 184.621 369.518 189.497 369.518 189.497L365.326 180.258Z" fill="#FFB27D"/>
<path d="M386.725 161.03C386.725 161.03 386.607 158.738 386.865 158.44C387.123 158.142 387.597 159.595 387.697 159.388C387.797 159.181 388.887 156.575 389.777 156.805C391.026 157.131 390.669 158.493 390.491 159.604C390.311 160.718 389.096 162.138 389.096 162.138L386.725 161.03Z" fill="#FFB27D"/>
<path d="M352.25 178.664C352.25 178.664 349.053 179.176 342.969 175.792C338.033 173.047 330.851 159.436 330.851 159.436L328.483 160.545C328.483 160.545 333.227 176.579 336.386 179.803C339.545 183.027 348.367 188.792 348.367 188.792L352.25 178.664Z" fill="#FFB27D"/>
<path d="M330.852 159.436C330.852 159.436 330.97 157.143 330.712 156.845C330.454 156.548 329.98 158.001 329.88 157.794C329.78 157.587 328.69 154.98 327.8 155.211C326.55 155.536 326.908 156.898 327.086 158.01C327.266 159.123 328.481 160.544 328.481 160.544L330.852 159.436Z" fill="#FFB27D"/>
<path d="M356.172 172.928C356.172 172.928 356.909 175.278 363.132 176.074L363.207 174.853L356.172 172.928Z" fill="#ED975D"/>
<path d="M365.631 174.65C365.631 174.65 355.405 177.171 354.377 169.602C353.349 162.033 357.147 156.613 360.037 156.333C365.8 155.776 367.004 158.081 367.94 160.52C368.874 162.958 370.347 173.558 365.631 174.65Z" fill="#FFB27D"/>
<path d="M362.515 170.298C362.515 170.298 363.405 171.496 365.292 171.128C365.292 171.128 367.348 170.775 367.036 169.191C367.037 169.191 364.487 169.102 362.515 170.298Z" fill="white"/>
<path d="M356.061 173.151C356.061 173.151 354.258 171.776 354.806 168.476C354.806 168.476 353.606 166.994 354.617 165.967C355.602 164.97 356.632 167.219 356.875 166.868C357.118 166.518 357.049 160.604 358.461 161.067C366.375 163.666 370.472 157.483 370.472 157.483C370.472 157.483 361.561 149.613 353.767 154.061C344.736 159.212 349.072 173.151 356.061 173.151Z" fill="#0F0F0F"/>
<path d="M349.411 159.056C349.411 159.056 348.823 157.734 349.193 156.697C349.193 156.697 349.36 158.046 349.934 158.588C350.51 159.131 349.411 159.056 349.411 159.056Z" fill="#2C3A64"/>
<path d="M349.513 158.072C349.513 158.072 348.289 158.07 347.82 159.103C347.82 159.103 348.609 158.406 349.539 158.94L349.513 158.072Z" fill="#2C3A64"/>
<path d="M346.538 219.761L358.053 220.353C358.053 220.353 361.361 220.05 364.255 219.558C366.556 219.167 368.596 218.657 368.507 218.088C368.305 216.802 366.062 204.794 366.062 204.794C366.062 204.794 356.177 206.409 346.743 203.047C346.743 203.047 344.541 209.466 346.538 219.761Z" fill="#0F0F0F"/>
<path d="M336.099 176.077C336.103 176.073 336.103 176.073 336.099 176.077V176.077Z" fill="#E26337"/>
<path d="M358.055 220.353C358.055 220.353 358.865 214.372 360.545 212.793C360.545 212.793 359.65 216.799 360.545 220.083L358.055 220.353Z" fill="#0F0F0F"/>
<path d="M303.653 230.901C303.653 230.901 305.186 254.443 302.592 257.86C299.998 261.276 295.677 256.953 294.961 254.754C294.246 252.554 291.249 233.971 293.033 232.875C294.816 231.78 303.653 230.901 303.653 230.901Z" fill="#F2A36D"/>
<path d="M279.146 256.717C281.355 256.532 288.174 257.364 293.528 258.097C296.707 258.533 299.37 258.933 300.247 259.067C300.269 259.071 300.287 259.073 300.305 259.076C300.423 259.095 300.501 259.106 300.536 259.113C300.549 259.115 300.556 259.115 300.556 259.115C300.556 259.115 303.913 252.941 297.108 250.3C295.859 249.815 294.458 249.613 293.003 249.611C292.785 249.609 292.568 249.613 292.348 249.622C286.03 249.847 278.976 253.462 278.976 253.462L279.146 256.717Z" fill="#F2A36D"/>
<path d="M279.146 256.717C279.146 256.717 273.259 260.956 271.995 259.832C270.731 258.708 274.618 255.992 275.086 254.868C275.555 253.744 277.622 252.243 278.977 253.462C280.332 254.681 279.146 256.717 279.146 256.717Z" fill="#F2A36D"/>
<path d="M275.724 169.011C275.724 169.011 270.676 165.077 266.668 166.852C262.659 168.628 260.312 162.334 255.504 162.116C250.696 161.898 248.039 164.011 249.305 168.072C250.573 172.132 258.772 178.457 262.383 176.873C265.994 175.289 268.671 169.02 270.78 169.453C272.889 169.885 275.828 172.243 275.828 172.243L275.724 169.011Z" fill="#0F0F0F"/>
<path d="M295.672 198.154C291.409 197.482 289.965 192.083 293.312 189.361C296.7 186.605 299.884 183.652 300.632 181.763C302.369 177.371 303.422 167.838 303.422 167.838L306.479 168.785C306.479 168.785 307.772 179.312 306.196 185.23C305.05 189.53 301.01 194.561 298.885 196.991C298.086 197.905 296.872 198.344 295.672 198.154Z" fill="#FFB27D"/>
<path d="M306.479 168.784C306.479 168.784 306.317 164.521 305.009 162.917C303.702 161.313 302.735 159.913 301.438 160.611C300.142 161.308 302.107 165.21 301.862 165.36C301.616 165.511 299.884 163.984 299.84 164.461C299.796 164.939 301.9 166.995 302.307 167.219C302.715 167.44 303.42 167.838 303.42 167.838L306.479 168.784Z" fill="#FFB27D"/>
<path d="M291.098 233.705C291.098 233.705 292.631 257.247 290.037 260.664C287.444 264.08 281.858 259.863 281.144 257.665C280.429 255.465 278.694 236.777 280.48 235.681C282.265 234.586 291.098 233.705 291.098 233.705Z" fill="#FFB27D"/>
<path d="M289.512 261.218C289.512 261.218 275.008 273.591 272.713 276.657L270.166 274.623C270.166 274.623 274.46 260.163 280.953 256.83C287.447 253.497 289.512 261.218 289.512 261.218Z" fill="#FFB27D"/>
<path d="M277.177 201.846C281.255 200.431 281.722 194.862 277.944 192.773C274.122 190.661 270.466 188.316 269.396 186.588C266.909 182.574 264.188 173.378 264.188 173.378L261.348 174.849C261.348 174.849 261.936 185.439 264.534 190.984C266.421 195.013 271.287 199.25 273.808 201.267C274.758 202.028 276.029 202.246 277.177 201.846Z" fill="#FFB27D"/>
<path d="M262.383 176.871C262.383 176.871 259.836 173.447 259.851 171.378C259.865 169.309 259.738 167.611 261.186 167.342C262.633 167.073 263.547 171.346 263.834 171.309C264.119 171.273 264.511 168.997 264.846 169.342C265.18 169.687 264.829 172.608 264.651 173.037C264.473 173.465 264.172 174.217 264.172 174.217L262.383 176.871Z" fill="#FFB27D"/>
<path d="M289.839 189.535C289.839 189.535 291.877 189.626 292.694 189.179C295.313 187.747 298.77 184.393 298.77 184.393C298.77 184.393 305.772 191.8 300.875 200.646C300.625 201.098 289.839 189.535 289.839 189.535Z" fill="#60D06F"/>
<path d="M280.868 191.246C280.868 191.246 275.479 189.133 272.204 189.23C272.204 189.23 267.384 201.757 274.914 206.393C282.445 211.026 280.868 191.246 280.868 191.246Z" fill="#60D06F"/>
<path d="M288.215 167.898C288.215 167.898 293.581 161.959 290.513 158.522C287.447 155.085 291.87 149.257 286.11 147.698C280.35 146.142 275.586 150.621 276.85 155.685C278.114 160.749 284.641 161.376 285.532 163.624C286.424 165.873 286.384 167.061 286.384 167.061L288.215 167.898Z" fill="#0F0F0F"/>
<path d="M306.706 242.395L307.493 244.527C307.493 244.527 306.675 245.984 304.45 245.708C302.225 245.432 300.403 246.278 299.383 246.934C298.362 247.588 296.821 247.546 295.189 247.308C293.556 247.07 293.619 247.364 292.753 247.334C291.886 247.303 291.291 246.411 290.304 246.723C289.318 247.036 286.759 247.01 285.311 246.425C283.863 245.841 280.496 246.367 279.751 245.597C279.006 244.827 278.323 243.939 276.845 243.812C275.366 243.685 274.327 243.468 273.893 242.522C273.459 241.576 271.801 241.427 271.214 241.127C270.627 240.829 270.633 239.923 270.006 239.676C269.38 239.429 268.553 238.857 268.328 238.272C268.103 237.687 267.118 237.776 267.004 237.442C266.888 237.107 267.531 236.575 267.531 236.575L306.706 242.395Z" fill="#6BDE7A"/>
<path d="M306.706 242.395C298.627 248.639 277.684 248.374 267.532 236.573C267.394 236.544 272.791 209.426 272.791 209.426C272.791 209.426 272.816 197.35 274.198 195.69C279.421 189.415 288.468 189.34 292.578 189.609C304.568 190.397 307.509 241.784 306.706 242.395Z" fill="#51BE5F"/>
<path d="M292.41 170.879C292.332 170.759 289.088 166.009 283.31 165.243C278.629 164.622 274.39 168.064 273.839 172.752C273.285 177.464 274.233 183.51 281.957 185.428L292.41 170.879Z" fill="#0F0F0F"/>
<path d="M287.636 193.664L287.62 193.671C285.082 194.814 281.913 193.677 280.683 191.181L280.69 191.157C280.69 191.157 281.791 188.99 281.958 185.43C282.027 183.934 281.964 182.204 281.637 180.315L289.276 183.318C289.276 183.318 289.169 184.008 289.153 185.011C289.135 186.095 289.224 187.546 289.665 188.889C289.669 188.9 289.672 188.912 289.676 188.923C290.304 190.801 289.442 192.85 287.636 193.664Z" fill="#FFB27D"/>
<path d="M289.665 188.888C285.52 189.188 281.958 185.43 281.958 185.43L289.153 185.01C289.136 186.095 289.224 187.546 289.665 188.888Z" fill="#EA9C68"/>
<path d="M291.442 186.386C291.442 186.386 283.411 189.381 279.915 183.105C276.142 176.332 278.999 170.843 281.766 170.216C287.282 168.968 290.737 170.776 291.941 172.93C293.145 175.084 295.877 184.775 291.442 186.386Z" fill="#FFB27D"/>
<path d="M287.807 183.018C287.807 183.018 288.236 183.834 290.365 183.142C290.365 183.142 292.152 182.56 291.849 181.62C291.849 181.62 289.912 181.394 287.807 183.018Z" fill="white"/>
<path d="M285.193 170.855C285.193 170.855 286.232 178.452 279.096 181.409C276.259 182.584 274.35 170.994 280.276 168.456C286.203 165.919 292.226 168.471 293.078 172.51C293.93 176.55 293.422 177.416 293.422 177.416C293.422 177.416 290.336 169.784 285.193 170.855Z" fill="#0F0F0F"/>
<path d="M275.83 172.242C275.545 171.224 275.75 170.934 276.075 170.843C276.4 170.752 276.725 170.894 277.01 171.911C277.296 172.928 276.936 173.916 276.936 173.916C276.936 173.916 276.113 173.259 275.83 172.242Z" fill="#F8BE3E"/>
<path d="M278.197 172.237C279.014 171.57 279.363 171.639 279.575 171.902C279.79 172.164 279.788 172.518 278.971 173.186C278.153 173.853 277.102 173.92 277.102 173.92C277.102 173.92 277.378 172.903 278.197 172.237Z" fill="#F8BE3E"/>
<path d="M275.016 173.126C273.97 172.981 273.71 173.221 273.663 173.557C273.616 173.891 273.801 174.194 274.845 174.34C275.892 174.485 276.823 173.998 276.823 173.998C276.823 173.998 276.062 173.272 275.016 173.126Z" fill="#F8BE3E"/>
<path d="M275.499 175.462C275.024 176.405 275.167 176.728 275.469 176.881C275.77 177.033 276.117 176.957 276.593 176.014C277.069 175.072 276.907 174.033 276.907 174.033C276.907 174.033 275.977 174.52 275.499 175.462Z" fill="#F8BE3E"/>
<path d="M278.951 174.498C279.846 175.057 279.892 175.408 279.714 175.695C279.536 175.982 279.2 176.096 278.302 175.537C277.407 174.977 277.005 174.005 277.005 174.005C277.005 174.005 278.055 173.938 278.951 174.498Z" fill="#F8BE3E"/>
<path d="M276.918 174.35C277.165 174.35 277.365 174.15 277.365 173.903C277.365 173.657 277.165 173.457 276.918 173.457C276.671 173.457 276.471 173.657 276.471 173.903C276.471 174.15 276.671 174.35 276.918 174.35Z" fill="#F8BE3E"/>
<path d="M272.712 276.655C272.712 276.655 276.772 281.046 275.789 283.294C274.805 285.543 266.938 280.624 267.078 278.657C267.218 276.69 270.166 274.621 270.166 274.621L272.712 276.655Z" fill="#FFB27D"/>
<path d="M120.929 106.83C120.929 106.83 132.937 109.311 136.023 113.062C139.109 116.813 137.554 139.572 139.668 146.144C142.173 153.932 141.441 161.677 141.441 161.677L124.556 148.247L120.929 106.83Z" fill="#FFB27D"/>
<path opacity="0.5" d="M133.25 127.847C133.25 127.847 137.843 140.133 135.453 144.999C133.062 149.865 130.721 147.035 130.721 147.035L133.25 127.847Z" fill="#ED985F"/>
<path d="M97.1144 284.332C97.1144 284.332 95.8593 292.001 97.4286 292.927L118.313 294.476C118.313 294.476 118.497 292.066 115.184 291.276C111.871 290.484 106.127 288.072 105.464 283.622C104.803 279.172 97.1144 284.332 97.1144 284.332Z" fill="#FFB27D"/>
<path d="M144.495 279.827C144.495 279.827 143.24 287.496 144.809 288.423L165.694 289.972C165.694 289.972 165.877 287.562 162.564 286.77C159.251 285.978 152.734 284.652 152.071 280.202C151.408 275.755 144.495 279.827 144.495 279.827Z" fill="#FFB27D"/>
<path d="M123.06 176.637C123.06 176.637 120.927 190.084 118.392 206.25C114.948 228.21 110.398 246.691 109.304 251.733C105.59 268.864 105.533 283.983 105.533 283.983C105.533 283.983 103.897 286.286 97.1163 284.33C97.1163 284.33 94.2737 273.114 92.4555 244.335C92.1758 239.9 93.8995 233.039 93.8995 232.681C93.9431 210.6 94.4154 171.766 94.4154 171.766L123.06 176.637Z" fill="#FFB27D"/>
<path d="M104.856 109.731C104.856 109.731 118.739 115.298 126.322 112.363C126.322 112.363 124.251 110.087 120.791 108.525C120.953 106.952 121.069 105.588 121.111 104.434C121.258 101.772 121.156 100.275 121.156 100.275L115.692 96.5513L110.509 92.9839C111.646 103.931 104.856 109.731 104.856 109.731Z" fill="#FFB27D"/>
<path d="M95.16 115.267C95.1528 115.309 95.1582 133.763 96.4478 145.114C96.5859 146.338 96.6767 147.668 96.7294 149.066C96.9964 156.179 96.2571 165.112 95.5705 171.524C95.0728 176.167 94.6042 179.491 94.5661 179.841C94.4753 180.662 131.146 184.98 131.4 184.793C131.506 184.727 126.331 167.27 130.421 150.966C135.424 131.03 133.972 116.148 129.684 111.969C127.978 110.303 120.927 106.828 120.927 106.828C118.208 107.15 118.51 110.312 115.787 108.717C112.803 106.986 108.732 104.988 108.165 105.359C103.888 108.014 97.2707 106.874 95.16 115.267Z" fill="#FFB27D"/>
<path opacity="0.5" d="M110.707 97.1866C110.707 97.1866 114.526 103.146 121.111 104.436C121.258 101.773 121.156 100.276 121.156 100.276L115.692 96.5527L110.707 97.1866Z" fill="#ED985F"/>
<path d="M123.508 99.9352C123.508 99.9352 110.83 102.909 109.088 95.1091C107.346 87.3096 104.536 82.4399 112.557 80.213C120.578 77.9843 122.822 80.6162 124.046 83.0792C125.272 85.5404 126.761 98.9616 123.508 99.9352Z" fill="#FFB27D"/>
<path d="M103.368 79.8912C103.243 79.7659 102.967 79.6769 102.367 79.6842C102.367 79.6842 102.825 79.3536 103.462 79.2937C103.531 78.4545 103.873 76.9542 105.277 76.4983C105.277 76.4983 104.536 76.9596 104.496 77.8496C106.036 76.0351 109.5 74.5547 119.379 74.6601C132.399 74.7981 128.697 83.3805 127.088 84.4831C125.479 85.5856 121.074 83.1644 117.968 83.6257C114.862 84.0871 114.575 88.6407 113.558 89.3328C112.541 90.0248 112.882 88.9005 111.404 88.3501C109.925 87.7998 109.952 90.1847 110.472 91.7013C110.991 93.218 109.16 95.3904 109.16 95.3904C109.16 95.3904 109.16 95.3904 107.023 93.3833C104.885 91.3744 102.389 82.4233 103.163 80.4253C103.23 80.2491 103.297 80.0692 103.368 79.8912Z" fill="#0F0F0F"/>
<path d="M130.109 171.749C130.109 171.749 147.637 210.879 151.15 228.08C154.663 245.282 152.042 281.398 152.042 281.398L144.495 279.829C144.495 279.829 132.37 250.168 136.219 234.091C138.05 226.442 100.972 206.03 105.648 184.144C108.645 170.105 130.109 171.749 130.109 171.749Z" fill="#FFB27D"/>
<path d="M119.747 158.031C120.005 158.051 120.247 157.631 120.288 157.092C120.329 156.554 120.154 156.102 119.895 156.082C119.637 156.063 119.395 156.483 119.354 157.021C119.313 157.559 119.489 158.012 119.747 158.031Z" fill="#ED985F"/>
<path d="M146.936 209.969C146.936 209.969 139.352 214.183 128.352 216.036L128.35 216.038C126.478 216.354 124.422 216.621 122.177 216.812L117.018 211.742L101.561 196.559L96.1934 164.992C96.1934 164.992 113.972 169.918 131.079 167.003C131.077 167.003 140.945 185.539 146.936 209.969Z" fill="#0F0F0F"/>
<path d="M128.352 216.036L128.35 216.038C126.478 216.354 124.422 216.621 122.177 216.812L117.018 211.742L121.897 183.12C122.422 195.391 128.352 216.036 128.352 216.036Z" fill="#DCEAFF"/>
<path d="M96.1916 164.992C96.1916 164.992 93.4361 171.284 92.7859 179.81C92.1356 188.336 92.4135 214.543 92.4135 214.543C92.4135 214.543 98.1987 219.529 116.593 217.313L123.265 173.965L96.1916 164.992Z" fill="#0F0F0F"/>
<path d="M106.218 106.269C106.218 106.269 119.548 112.047 120.927 106.83C120.927 106.83 133.592 108.981 136.023 113.062C138.453 117.144 139.35 132.485 139.35 132.485C139.35 132.485 136.66 134.279 133.071 135.326L135.612 174.045C135.612 174.045 125.297 182.268 90.9131 174.943L95.9953 120.377L106.218 106.269Z" fill="#51BE5F"/>
<path d="M127.624 142.262C125.452 142.594 123.457 143.374 121.721 144.494C116.882 147.62 114.057 153.391 114.982 159.454C116.239 167.693 123.935 173.353 132.174 172.096C139.202 171.024 144.353 165.266 144.932 158.484C145.036 157.314 145.001 156.116 144.816 154.904C143.559 146.667 135.861 141.005 127.624 142.262Z" fill="#FDCA5B"/>
<path d="M127.624 142.262C125.452 142.594 123.457 143.374 121.721 144.494C120.865 146.676 120.555 149.101 120.933 151.582C122.077 159.085 129.088 164.242 136.595 163.098C139.968 162.584 142.867 160.882 144.932 158.484C145.036 157.314 145.001 156.116 144.816 154.904C143.559 146.667 135.861 141.005 127.624 142.262Z" fill="#F8BE3E"/>
<path d="M132.174 172.096C138.063 166.318 138.92 160.282 138.535 156.168C138.119 151.714 136.282 148.576 136.262 148.545L136.063 148.663C136.081 148.694 137.894 151.791 138.304 156.199C138.684 160.261 137.993 166.384 132.174 172.096Z" fill="#163560"/>
<path d="M114.808 157.075C117.062 150.957 122.333 148.767 126.427 147.995C130.875 147.157 134.839 147.78 134.877 147.786L134.913 147.557C134.873 147.55 130.872 146.921 126.383 147.766C122.231 148.549 117.1 150.854 114.808 157.075Z" fill="#163560"/>
<path d="M136.691 147.399L136.751 147.622C136.786 147.613 140.35 146.618 142.148 148.362C140.255 146.525 136.839 147.359 136.691 147.399Z" fill="#163560"/>
<path d="M128.719 142.131C132.521 142.542 135.865 147.506 135.898 147.555L136.09 147.426C136.081 147.413 135.238 146.156 133.925 144.865C132.71 143.666 130.766 142.351 128.719 142.131Z" fill="#163560"/>
<path d="M135.661 146.469C135.498 146.469 135.347 146.501 135.216 146.561C134.851 146.73 134.635 147.114 134.704 147.56C134.797 148.167 135.376 148.663 135.997 148.667C136.528 148.67 136.918 148.314 136.964 147.833C136.971 147.749 136.969 147.664 136.956 147.573C136.862 146.966 136.284 146.472 135.661 146.469Z" fill="#163560"/>
<path d="M100.513 108.318C100.513 108.318 90.3538 109.884 87.918 115.349C84.6794 122.615 80.0894 148.202 83.7385 153.331C87.4439 158.543 111.369 161.743 111.369 161.743L113.6 156.955C113.6 156.955 93.2799 147.869 93.1982 146.967C93.1165 146.064 95.0346 133.773 97.7828 127.581C100.184 122.17 100.513 108.318 100.513 108.318Z" fill="#FFB27D"/>
<path d="M113.6 156.957C113.6 156.957 116.477 156.348 118.431 157.26C120.386 158.172 123.612 158.025 123.457 158.996C123.303 159.968 118.161 159.956 118.958 160.689C119.757 161.423 126.7 164.12 124.792 166.197C122.885 168.273 118.48 167.906 117.151 167.127C115.821 166.347 110.775 161.269 110.775 161.269L113.6 156.957Z" fill="#FFB27D"/>
<path d="M106.218 106.269C106.218 106.269 91.6417 109.746 88.7264 113.333C85.8111 116.92 82.1675 131.104 82.1675 131.104C82.1675 131.104 88.6701 136.038 96.8547 134.804C105.039 133.571 106.721 116.753 106.721 116.417C106.723 116.079 106.218 106.269 106.218 106.269Z" fill="#60D06F"/>
<path d="M124.309 94.7093C124.309 94.7093 124.099 96.0771 122.707 96.3368C120.166 96.8109 119.345 95.207 119.345 95.207C119.345 95.207 122.235 93.99 124.309 94.7093Z" fill="white"/>
<path d="M299.342 290.268C299.795 290.006 300.045 289.592 299.901 289.343C299.757 289.094 299.274 289.103 298.821 289.365C298.368 289.626 298.118 290.04 298.262 290.289C298.406 290.539 298.89 290.529 299.342 290.268Z" fill="#E8C7A0"/>
<path d="M313.045 291.572C313.609 291.247 313.921 290.731 313.742 290.421C313.563 290.111 312.961 290.124 312.397 290.449C311.833 290.775 311.521 291.29 311.7 291.6C311.879 291.91 312.481 291.898 313.045 291.572Z" fill="#F4D9B3"/>
<path d="M302.451 286.459C303.143 286.714 303.817 286.612 303.958 286.232C304.098 285.852 303.65 285.337 302.958 285.082C302.266 284.827 301.592 284.929 301.452 285.309C301.312 285.69 301.759 286.204 302.451 286.459Z" fill="#FFF0E2"/>
<path d="M309.331 285.369C309.783 285.107 310.033 284.693 309.889 284.444C309.745 284.195 309.262 284.204 308.809 284.466C308.357 284.727 308.106 285.141 308.25 285.39C308.394 285.64 308.878 285.63 309.331 285.369Z" fill="#E8C7A0"/>
<path d="M323.028 286.704C323.592 286.378 323.903 285.863 323.724 285.553C323.545 285.243 322.943 285.255 322.379 285.581C321.815 285.906 321.504 286.421 321.683 286.731C321.862 287.042 322.464 287.029 323.028 286.704Z" fill="#F4D9B3"/>
<path d="M312.447 281.555C313.139 281.81 313.814 281.708 313.954 281.328C314.094 280.947 313.646 280.433 312.954 280.178C312.263 279.923 311.588 280.025 311.448 280.405C311.308 280.785 311.755 281.3 312.447 281.555Z" fill="#FFF0E2"/>
<path d="M313.298 288.483C313.558 288.333 313.702 288.096 313.619 287.953C313.537 287.811 313.26 287.817 313 287.967C312.74 288.117 312.596 288.354 312.679 288.496C312.761 288.639 313.038 288.633 313.298 288.483Z" fill="#E8C7A0"/>
<path d="M321.134 289.22C321.457 289.033 321.636 288.737 321.533 288.559C321.43 288.381 321.085 288.388 320.762 288.575C320.439 288.761 320.26 289.057 320.363 289.235C320.466 289.413 320.811 289.406 321.134 289.22Z" fill="#F4D9B3"/>
<path d="M315.071 286.279C315.468 286.425 315.854 286.366 315.935 286.148C316.015 285.93 315.759 285.634 315.363 285.488C314.966 285.342 314.58 285.401 314.499 285.62C314.419 285.838 314.675 286.133 315.071 286.279Z" fill="#FFF0E2"/>
<path d="M57.1249 280.157C57.713 279.817 58.0385 279.28 57.8519 278.957C57.6654 278.634 57.0373 278.647 56.4492 278.987C55.8611 279.326 55.5355 279.864 55.7221 280.187C55.9087 280.51 56.5368 280.497 57.1249 280.157Z" fill="#E8C7A0"/>
<path d="M74.9081 281.872C75.6396 281.45 76.0443 280.781 75.8121 280.379C75.5798 279.977 74.7986 279.993 74.0671 280.415C73.3357 280.838 72.9309 281.506 73.1632 281.908C73.3954 282.311 74.1766 282.294 74.9081 281.872Z" fill="#F4D9B3"/>
<path d="M61.1338 275.227C62.0318 275.558 62.9074 275.426 63.0895 274.931C63.2716 274.437 62.6911 273.768 61.7931 273.437C60.895 273.107 60.0194 273.239 59.8373 273.733C59.6553 274.227 60.2357 274.896 61.1338 275.227Z" fill="#FFF0E2"/>
<path d="M70.1005 273.78C70.6886 273.44 71.0141 272.903 70.8275 272.58C70.6409 272.256 70.0129 272.27 69.4248 272.609C68.8366 272.949 68.5111 273.486 68.6977 273.809C68.8843 274.132 69.5123 274.119 70.1005 273.78Z" fill="#E8C7A0"/>
<path d="M87.8725 275.506C88.6039 275.084 89.0087 274.415 88.7764 274.013C88.5442 273.611 87.763 273.627 87.0315 274.049C86.3 274.472 85.8953 275.14 86.1275 275.542C86.3598 275.944 87.141 275.928 87.8725 275.506Z" fill="#F4D9B3"/>
<path d="M74.1071 268.859C75.0052 269.19 75.8807 269.057 76.0627 268.563C76.2448 268.069 75.6643 267.4 74.7662 267.069C73.8682 266.738 72.9926 266.871 72.8106 267.365C72.6286 267.859 73.209 268.528 74.1071 268.859Z" fill="#FFF0E2"/>
<path d="M75.2213 277.827C75.5584 277.632 75.745 277.324 75.6382 277.139C75.5314 276.954 75.1715 276.962 74.8344 277.156C74.4974 277.351 74.3107 277.659 74.4176 277.844C74.5244 278.029 74.8843 278.021 75.2213 277.827Z" fill="#E8C7A0"/>
<path d="M85.3997 278.82C85.8184 278.578 86.0501 278.195 85.9172 277.965C85.7843 277.735 85.3371 277.744 84.9183 277.986C84.4996 278.228 84.2679 278.61 84.4008 278.841C84.5337 279.071 84.9809 279.062 85.3997 278.82Z" fill="#F4D9B3"/>
<path d="M77.5259 275.007C78.0399 275.196 78.5412 275.12 78.6455 274.837C78.7499 274.553 78.4178 274.17 77.9038 273.981C77.3898 273.792 76.8886 273.868 76.7842 274.151C76.6798 274.435 77.0119 274.818 77.5259 275.007Z" fill="#FFF0E2"/>
<path d="M226.897 269.308C227.467 268.978 227.783 268.457 227.602 268.143C227.421 267.829 226.812 267.842 226.241 268.172C225.67 268.501 225.354 269.023 225.535 269.336C225.716 269.65 226.326 269.637 226.897 269.308Z" fill="#E8C7A0"/>
<path d="M244.157 271.004C244.868 270.594 245.261 269.945 245.035 269.554C244.81 269.163 244.051 269.178 243.34 269.589C242.629 269.999 242.236 270.648 242.462 271.039C242.688 271.43 243.447 271.415 244.157 271.004Z" fill="#F4D9B3"/>
<path d="M230.8 264.531C231.672 264.852 232.523 264.724 232.7 264.244C232.877 263.763 232.313 263.114 231.44 262.792C230.567 262.471 229.717 262.6 229.54 263.08C229.363 263.56 229.927 264.21 230.8 264.531Z" fill="#FFF0E2"/>
<path d="M239.483 263.132C240.054 262.802 240.37 262.281 240.189 261.967C240.008 261.654 239.398 261.667 238.827 261.996C238.257 262.326 237.941 262.847 238.122 263.161C238.303 263.474 238.912 263.461 239.483 263.132Z" fill="#E8C7A0"/>
<path d="M256.744 264.834C257.455 264.424 257.848 263.775 257.622 263.384C257.397 262.993 256.637 263.008 255.927 263.419C255.216 263.829 254.823 264.479 255.049 264.869C255.275 265.26 256.034 265.245 256.744 264.834Z" fill="#F4D9B3"/>
<path d="M243.387 258.357C244.26 258.678 245.11 258.549 245.287 258.069C245.464 257.589 244.9 256.939 244.027 256.618C243.155 256.297 242.304 256.425 242.127 256.905C241.95 257.386 242.514 258.035 243.387 258.357Z" fill="#FFF0E2"/>
<path d="M244.468 267.101C244.795 266.912 244.976 266.613 244.873 266.433C244.769 266.254 244.419 266.261 244.092 266.45C243.764 266.639 243.583 266.938 243.686 267.118C243.79 267.298 244.14 267.291 244.468 267.101Z" fill="#E8C7A0"/>
<path d="M254.361 268.009C254.769 267.774 254.994 267.402 254.865 267.177C254.735 266.953 254.3 266.962 253.893 267.198C253.485 267.433 253.26 267.805 253.389 268.029C253.519 268.254 253.954 268.245 254.361 268.009Z" fill="#F4D9B3"/>
<path d="M246.695 264.335C247.195 264.519 247.682 264.445 247.783 264.17C247.884 263.895 247.561 263.523 247.061 263.339C246.561 263.155 246.074 263.229 245.973 263.504C245.872 263.778 246.195 264.151 246.695 264.335Z" fill="#FFF0E2"/>
<path d="M318.851 298.248C319.506 297.871 319.868 297.273 319.66 296.913C319.452 296.554 318.754 296.568 318.099 296.946C317.445 297.324 317.083 297.921 317.291 298.281C317.499 298.641 318.197 298.626 318.851 298.248Z" fill="#E8C7A0"/>
<path d="M338.635 300.142C339.449 299.672 339.9 298.928 339.642 298.481C339.383 298.033 338.514 298.052 337.7 298.522C336.886 298.992 336.435 299.735 336.694 300.183C336.952 300.63 337.821 300.612 338.635 300.142Z" fill="#F4D9B3"/>
<path d="M323.348 292.731C324.347 293.098 325.321 292.951 325.523 292.401C325.726 291.851 325.08 291.108 324.081 290.74C323.083 290.372 322.109 290.519 321.906 291.069C321.704 291.619 322.349 292.363 323.348 292.731Z" fill="#FFF0E2"/>
<path d="M333.275 291.161C333.929 290.783 334.291 290.185 334.083 289.825C333.876 289.466 333.177 289.48 332.523 289.858C331.869 290.236 331.507 290.834 331.714 291.193C331.922 291.553 332.621 291.538 333.275 291.161Z" fill="#E8C7A0"/>
<path d="M353.057 293.055C353.871 292.585 354.322 291.842 354.063 291.394C353.805 290.947 352.936 290.965 352.122 291.435C351.308 291.905 350.857 292.649 351.116 293.096C351.374 293.544 352.243 293.525 353.057 293.055Z" fill="#F4D9B3"/>
<path d="M337.744 285.691C338.743 286.059 339.717 285.912 339.919 285.362C340.122 284.812 339.476 284.068 338.477 283.7C337.479 283.332 336.505 283.48 336.302 284.03C336.1 284.579 336.745 285.323 337.744 285.691Z" fill="#FFF0E2"/>
<path d="M338.98 295.659C339.354 295.443 339.562 295.101 339.443 294.895C339.324 294.689 338.924 294.698 338.55 294.914C338.175 295.13 337.968 295.472 338.087 295.678C338.206 295.884 338.606 295.876 338.98 295.659Z" fill="#E8C7A0"/>
<path d="M350.315 296.739C350.781 296.47 351.039 296.044 350.891 295.787C350.743 295.531 350.245 295.542 349.779 295.811C349.312 296.08 349.054 296.507 349.202 296.763C349.35 297.019 349.848 297.009 350.315 296.739Z" fill="#F4D9B3"/>
<path d="M341.558 292.504C342.131 292.715 342.689 292.631 342.804 292.317C342.92 292.002 342.55 291.576 341.978 291.366C341.405 291.155 340.848 291.239 340.732 291.553C340.616 291.868 340.986 292.293 341.558 292.504Z" fill="#FFF0E2"/>
<path d="M381.195 307.925C381.849 307.547 382.211 306.949 382.004 306.59C381.796 306.23 381.097 306.245 380.443 306.622C379.789 307 379.427 307.598 379.635 307.957C379.842 308.317 380.541 308.302 381.195 307.925Z" fill="#E8C7A0"/>
<path d="M400.977 309.818C401.791 309.348 402.242 308.604 401.983 308.157C401.725 307.71 400.856 307.728 400.042 308.198C399.228 308.668 398.777 309.412 399.036 309.859C399.294 310.306 400.163 310.288 400.977 309.818Z" fill="#F4D9B3"/>
<path d="M385.665 302.457C386.664 302.825 387.638 302.677 387.84 302.128C388.043 301.578 387.397 300.834 386.398 300.466C385.4 300.098 384.426 300.245 384.223 300.795C384.021 301.345 384.666 302.089 385.665 302.457Z" fill="#FFF0E2"/>
<path d="M395.616 300.821C396.27 300.443 396.632 299.845 396.425 299.486C396.217 299.126 395.518 299.141 394.864 299.518C394.21 299.896 393.848 300.494 394.056 300.853C394.263 301.213 394.962 301.198 395.616 300.821Z" fill="#E8C7A0"/>
<path d="M415.393 302.758C416.207 302.288 416.657 301.544 416.399 301.097C416.141 300.65 415.271 300.668 414.457 301.138C413.643 301.608 413.193 302.351 413.451 302.799C413.709 303.246 414.579 303.228 415.393 302.758Z" fill="#F4D9B3"/>
<path d="M400.091 295.359C401.09 295.726 402.063 295.579 402.266 295.029C402.468 294.479 401.823 293.736 400.824 293.368C399.825 293 398.851 293.147 398.649 293.697C398.447 294.247 399.092 294.991 400.091 295.359Z" fill="#FFF0E2"/>
<path d="M401.349 305.337C401.724 305.12 401.931 304.778 401.812 304.572C401.693 304.366 401.293 304.375 400.919 304.591C400.544 304.807 400.337 305.149 400.456 305.355C400.575 305.561 400.975 305.553 401.349 305.337Z" fill="#E8C7A0"/>
<path d="M412.654 306.43C413.121 306.161 413.379 305.735 413.231 305.478C413.083 305.222 412.585 305.233 412.119 305.502C411.652 305.771 411.394 306.197 411.542 306.454C411.69 306.71 412.188 306.699 412.654 306.43Z" fill="#F4D9B3"/>
<path d="M403.899 302.194C404.472 302.405 405.029 302.321 405.145 302.006C405.261 301.692 404.891 301.266 404.319 301.055C403.746 300.845 403.188 300.929 403.073 301.243C402.957 301.558 403.327 301.983 403.899 302.194Z" fill="#FFF0E2"/>
<path d="M317.068 194.278H309.113C308.913 194.278 308.748 194.114 308.748 193.913V193.755C308.748 193.555 308.911 193.39 309.113 193.39H317.068C317.268 193.39 317.433 193.553 317.433 193.755V193.913C317.433 194.114 317.27 194.278 317.068 194.278Z" fill="white"/>
<path d="M331.52 194.278H319.893C319.693 194.278 319.528 194.114 319.528 193.913V193.755C319.528 193.555 319.691 193.39 319.893 193.39H331.52C331.719 193.39 331.885 193.553 331.885 193.755V193.913C331.885 194.114 331.721 194.278 331.52 194.278Z" fill="white"/>
<path d="M322.461 192.116H313.414C313.236 192.116 313.09 191.971 313.09 191.793V191.551C313.09 191.373 313.236 191.228 313.414 191.228H322.461C322.639 191.228 322.784 191.373 322.784 191.551V191.793C322.784 191.971 322.639 192.116 322.461 192.116Z" fill="white"/>
<path d="M326.688 192.117H324.404C324.312 192.117 324.237 192.04 324.237 191.949V191.399C324.237 191.306 324.314 191.232 324.404 191.232H326.688C326.78 191.232 326.855 191.308 326.855 191.399V191.949C326.855 192.042 326.78 192.117 326.688 192.117Z" fill="white"/>
<path d="M330.075 192.117H327.792C327.699 192.117 327.625 192.04 327.625 191.949V191.399C327.625 191.306 327.701 191.232 327.792 191.232H330.075C330.168 191.232 330.242 191.308 330.242 191.399V191.949C330.242 192.042 330.168 192.117 330.075 192.117Z" fill="white"/>
<path d="M406.186 222.015H387.402C387.061 222.015 386.781 221.735 386.781 221.394C386.781 221.052 387.061 220.772 387.402 220.772H406.186C406.527 220.772 406.807 221.052 406.807 221.394C406.807 221.737 406.527 222.015 406.186 222.015Z" fill="white"/>
<path d="M418.444 218.791H399.661C399.32 218.791 399.04 218.512 399.04 218.17C399.04 217.829 399.32 217.549 399.661 217.549H418.444C418.786 217.549 419.066 217.829 419.066 218.17C419.064 218.512 418.786 218.791 418.444 218.791Z" fill="white"/>
<path d="M439.509 222.015H412.26C411.918 222.015 411.639 221.735 411.639 221.394C411.639 221.052 411.918 220.772 412.26 220.772H439.509C439.851 220.772 440.13 221.052 440.13 221.394C440.13 221.737 439.851 222.015 439.509 222.015Z" fill="white"/>
<path d="M449.073 189.838H432.84C432.543 189.838 432.304 189.597 432.304 189.302C432.304 189.006 432.545 188.767 432.84 188.767H449.073C449.367 188.767 449.608 189.008 449.608 189.302C449.608 189.597 449.367 189.838 449.073 189.838Z" fill="white"/>
<path d="M459.666 187.05H443.433C443.139 187.05 442.897 186.809 442.897 186.514C442.897 186.22 443.139 185.979 443.433 185.979H459.666C459.96 185.979 460.202 186.22 460.202 186.514C460.202 186.809 459.96 187.05 459.666 187.05Z" fill="white"/>
<path d="M477.871 189.838H454.322C454.026 189.838 453.786 189.597 453.786 189.302C453.786 189.006 454.028 188.767 454.322 188.767H477.869C478.166 188.767 478.405 189.008 478.405 189.302C478.407 189.597 478.166 189.838 477.871 189.838Z" fill="white"/>
</svg>
