<svg width="48" height="49" viewBox="0 0 48 49" fill="none" xmlns="http://www.w3.org/2000/svg">
<circle cx="24" cy="24.4023" r="23.5" stroke="#51BE5F"/>
<path fill-rule="evenodd" clip-rule="evenodd" d="M23.9455 14.8957C26.645 14.8996 29.344 14.9349 32.0377 15.142C32.6737 15.1909 33.3102 15.2534 33.9368 15.3789C35.45 15.6817 36.4263 16.7343 36.7098 18.3695C37.1058 20.6562 37.1613 22.9664 37.1215 25.2804C37.0935 26.8943 37.0039 28.5044 36.771 30.1039C36.6009 31.2713 36.1871 32.2754 35.1871 32.9431C34.5765 33.351 33.8879 33.4696 33.1886 33.5458C30.4731 33.8426 27.7461 33.8766 25.0195 33.9047C22.2741 33.9328 19.5298 33.8741 16.7885 33.7116C15.8969 33.6589 15.0061 33.5819 14.1244 33.4275C12.6395 33.1668 11.625 32.1211 11.3165 30.5411C11.081 29.3354 11.0001 28.1119 10.9339 26.8871C10.8259 24.8861 10.8542 22.886 10.9951 20.888C11.0613 19.9477 11.1464 19.0082 11.3575 18.0871C11.7224 16.4978 12.8104 15.5069 14.3853 15.3053C17.0338 14.9663 19.6967 14.9421 22.3583 14.8966C22.8875 14.8881 23.4167 14.8957 23.9455 14.8957ZM21.3985 20.3296C21.3985 23.0544 21.3985 25.7439 21.3985 28.4657C23.6793 27.1061 25.9358 25.7609 28.2223 24.3975C25.9346 23.0336 23.6772 21.6884 21.3985 20.3296Z" fill="#51BE5F"/>
</svg>
